<?xml version="1.0" standalone="no"?>
<!DOCTYPE svg PUBLIC "-//W3C//DTD SVG 20010904//EN"
 "http://www.w3.org/TR/2001/REC-SVG-20010904/DTD/svg10.dtd">
<svg version="1.0" xmlns="http://www.w3.org/2000/svg"
 width="300.000000pt" height="300.000000pt" viewBox="0 0 300.000000 300.000000"
 preserveAspectRatio="xMidYMid meet">
<metadata>
Created by potrace 1.11, written by Peter Selinger 2001-2013
</metadata>
<g transform="translate(0.000000,300.000000) scale(0.100000,-0.100000)"
fill="#000000" stroke="none">
<path d="M1070 2995 c-8 -2 -49 -9 -90 -15 -411 -66 -779 -364 -944 -763 l-37
-87 3 -598 3 -597 29 -80 c68 -188 168 -348 306 -485 251 -252 580 -381 935
-367 198 8 332 42 511 128 64 31 129 54 180 64 507 97 898 480 1005 985 26
124 31 340 10 460 -27 157 -110 366 -194 490 -151 224 -375 399 -622 486 -59
21 -97 42 -145 83 -234 197 -527 303 -830 300 -58 -1 -112 -3 -120 -4z m355
-195 c92 -18 236 -68 271 -95 17 -13 14 -15 -41 -17 -97 -3 -106 -2 -190 21
-277 76 -573 29 -811 -128 -168 -111 -308 -280 -381 -457 -19 -48 -55 -114
-79 -146 -23 -32 -46 -68 -49 -78 -4 -11 -10 -20 -14 -20 -5 0 -2 30 5 68 98
471 477 819 950 871 100 11 224 4 339 -19z m468 -295 c442 -66 783 -376 898
-815 29 -108 36 -318 15 -435 -42 -240 -151 -444 -327 -610 -219 -207 -487
-306 -793 -292 -496 21 -908 374 -1012 867 -25 113 -24 314 0 430 61 297 256
569 515 719 214 124 463 172 704 136z m-1173 -330 c-26 -35 -52 -70 -57 -77
-4 -7 -39 -39 -78 -70 -168 -136 -292 -341 -341 -563 -27 -126 -23 -323 10
-450 52 -198 176 -398 323 -520 182 -152 380 -228 624 -240 104 -5 281 -47
249 -59 -8 -3 -61 -10 -117 -16 -237 -23 -473 33 -684 162 -104 64 -259 215
-324 316 -243 378 -241 839 5 1208 74 110 215 246 330 317 51 31 97 57 101 57
5 0 -14 -29 -41 -65z"/>
<path d="M1585 2426 c-323 -53 -608 -261 -747 -546 -251 -514 -37 -1116 484
-1360 233 -109 523 -119 766 -27 334 126 571 410 638 764 22 118 15 305 -15
423 -92 355 -374 636 -729 726 -119 30 -285 39 -397 20z m-45 -512 c62 -35
122 -106 145 -173 8 -25 15 -76 15 -115 0 -141 -78 -246 -213 -290 -18 -6 -15
-10 186 -323 l47 -73 -43 0 -42 0 -120 188 -121 187 -162 3 -162 2 -2 -187 -3
-188 -37 -3 -38 -3 0 506 0 506 248 -3 247 -3 55 -31z m955 1 l0 -30 -292 -3
-293 -2 0 -195 0 -195 255 0 255 0 0 -35 0 -35 -255 0 -255 0 0 -205 0 -205
300 0 300 0 0 -35 0 -35 -335 0 -335 0 0 505 0 505 328 -2 327 -3 0 -30z"/>
<path d="M1070 1636 l0 -246 196 0 c224 0 239 4 303 76 98 112 75 292 -48 379
l-43 30 -204 3 -204 3 0 -245z"/>
</g>
</svg>
