<svg id="Layer_1" data-name="Layer 1" xmlns="http://www.w3.org/2000/svg" viewBox="0 0 476.4 322.4"><defs><style>.cls-1{fill:#bcbec0;}.cls-2,.cls-3{fill:#fff;}.cls-3{font-size:22px;font-family:Muli;}</style></defs><title>app-screenshot-placeholder</title><rect class="cls-1" width="476.4" height="322.4"/><path class="cls-2" d="M283.15,822.09a2.79,2.79,0,0,0,.47.11,32.37,32.37,0,0,1,19.4,7.6c0.54,0.45,1,.94,1.57,1.39a1.55,1.55,0,0,0,.54.3,32.63,32.63,0,0,1,18.63,14.09,30.91,30.91,0,0,1,4.54,11.95,36.79,36.79,0,0,1,.43,4.41,31.88,31.88,0,0,1-7.29,21.77A32.21,32.21,0,0,1,303.35,895c-1.12.27-2.28,0.41-3.41,0.62a1.67,1.67,0,0,0-.54.19,32.17,32.17,0,0,1-10.94,4.07c-1.34.24-2.71,0.31-4.07,0.46-0.19,0-.37.07-0.56,0.11h-2.35a2.54,2.54,0,0,0-.39-0.1c-1.16-.12-2.34-0.19-3.49-0.35a30.23,30.23,0,0,1-9.13-2.82A32.63,32.63,0,0,1,252,879.37a30.18,30.18,0,0,1-2.12-9.78c-0.09-2,.09-3.94.14-5.91a4.26,4.26,0,0,0,0-1,32.53,32.53,0,0,1-.84-6.08,1.75,1.75,0,0,0-.1-0.39q0-1.18,0-2.35a3.07,3.07,0,0,0,.11-0.52,29,29,0,0,1,.8-5.83,32.87,32.87,0,0,1,30.4-25.29,2.44,2.44,0,0,0,.44-0.1h2.35Zm12.8,12.56a28.39,28.39,0,1,0,28.4,28.53A28.29,28.29,0,0,0,295.95,834.65ZM289,895.19L288.6,895c-1.32-.39-2.65-0.79-4-1.17a3.28,3.28,0,0,0-.94-0.15,28.83,28.83,0,0,1-5.43-.34A26.24,26.24,0,0,1,256.49,869a24.6,24.6,0,0,1,.7-7.61,26.11,26.11,0,0,1,10.3-15.2,2.86,2.86,0,0,0,.6-0.63c0.84-1.14,1.66-2.29,2.48-3.43,0.06-.09.12-0.19,0.23-0.36A28.35,28.35,0,0,0,289,895.19Zm6.57-65a28.33,28.33,0,0,0-39.27,12.5,26,26,0,0,0-2.56,9,1.16,1.16,0,0,0,.29-0.33c0.89-1.32,1.78-2.65,2.65-4a3.47,3.47,0,0,0,.39-0.78,25.37,25.37,0,0,1,6.08-9.89,25.78,25.78,0,0,1,21.07-7.79,25.27,25.27,0,0,1,6.68,1.48,1.31,1.31,0,0,0,.52.09c0.81-.06,1.61-0.15,2.42-0.22Z" transform="translate(-117.9 -718.71)"/><path class="cls-2" d="M463,848.38a0.33,0.33,0,0,1-.32-0.39c0-.52,0-1,0-1.55,0-.13,0-0.26,0-0.4l-0.11,0c-0.06.13-.12,0.25-0.17,0.38-0.2.57-.39,1.14-0.59,1.7a1,1,0,0,1-.2.24,0.92,0.92,0,0,1-.23-0.25c-0.21-.58-0.4-1.16-0.6-1.74,0-.14-0.12-0.27-0.18-0.4l-0.14,0v2.36l-0.16,0a1.06,1.06,0,0,1-.09-0.29c0-.77,0-1.54,0-2.31a0.44,0.44,0,0,1,.2-0.32,0.52,0.52,0,0,1,.37.22c0.24,0.64.45,1.29,0.67,1.94,0,0.09.08,0.17,0.17,0.36,0.1-.24.17-0.39,0.23-0.55,0.17-.47.35-0.95,0.48-1.43a0.63,0.63,0,0,1,.69-0.6v3Z" transform="translate(-117.9 -718.71)"/><path class="cls-2" d="M373.06,858.4l0.31-.48a9.18,9.18,0,0,1,5.58-4.48,7.07,7.07,0,0,1,7.74,2.24,7.2,7.2,0,0,1,1.58,3.78,27,27,0,0,1,.27,3.25c0.05,4.16.05,8.31,0.08,12.47a0.38,0.38,0,0,1-.48.47c-0.6,0-1.2,0-1.81,0-0.4,0-.53-0.11-0.52-0.52,0-3.89,0-7.78,0-11.67a24.08,24.08,0,0,0-.41-4.28,4.63,4.63,0,0,0-4.18-3.38,6.93,6.93,0,0,0-7.36,6.26,49.18,49.18,0,0,0-.34,5c-0.05,2.7,0,5.4,0,8.1,0,0.4-.11.54-0.52,0.52a14.88,14.88,0,0,0-1.72,0c-0.4,0-.49-0.13-0.49-0.51,0-3.84,0-7.67,0-11.51a24.31,24.31,0,0,0-.42-4.32,4.68,4.68,0,0,0-4.21-3.51,6.92,6.92,0,0,0-7.23,5.78,28,28,0,0,0-.42,4.32c-0.06,3.08,0,6.16,0,9.24,0,0.37-.08.53-0.49,0.51-0.61,0-1.23,0-1.85,0a0.31,0.31,0,0,1-.38-0.39,1.92,1.92,0,0,0,0-.21q0-10.37,0-20.75c0-.59,0-0.59.59-0.59s1.07,0,1.6,0a0.41,0.41,0,0,1,.53.51c0,1,0,1.9,0,2.86a4.09,4.09,0,0,0,.06.43c0.18-.23.31-0.37,0.42-0.52a8.82,8.82,0,0,1,5.32-3.63,7.37,7.37,0,0,1,6.89,1.77,7.15,7.15,0,0,1,1.66,2.7Z" transform="translate(-117.9 -718.71)"/><path class="cls-2" d="M396.42,872.06v0.42c0,3.57,0,7.14,0,10.71,0,0.4-.09.55-0.51,0.53-0.64,0-1.29,0-1.93,0a0.28,0.28,0,0,1-.35-0.34c0-.08,0-0.17,0-0.25q0-14.42,0-28.84c0-.57,0-0.57.58-0.57s1.18,0,1.76,0c0.36,0,.45.12,0.45,0.46,0,1,0,2,0,3v0.44l0.11,0,0.42-.49a10,10,0,0,1,6-3.76,11.38,11.38,0,0,1,13.47,10.13,11.52,11.52,0,0,1-6.62,11.73A10.93,10.93,0,0,1,397.56,873C397.2,872.67,396.8,872.38,396.42,872.06Zm17.3-7.36a8.73,8.73,0,0,0-1.71-5.29,8.42,8.42,0,0,0-7.92-3.6,7.9,7.9,0,0,0-4.39,1.67,9,9,0,0,0-3.36,9,8.7,8.7,0,0,0,10.49,7A9,9,0,0,0,413.72,864.7Z" transform="translate(-117.9 -718.71)"/><path class="cls-2" d="M446,847.77c-0.6-.17-1.14-0.35-1.69-0.48a3.11,3.11,0,0,0-2.28.23,1.47,1.47,0,0,0-.82,1.32c0,1.45,0,2.91-.08,4.36a0.41,0.41,0,0,0,.52.5c1.22,0,2.43,0,3.65,0a0.36,0.36,0,0,1,.45.46c0,0.5,0,1,0,1.51a0.33,0.33,0,0,1-.41.41c-1.22,0-2.43,0-3.65,0-0.55,0-.56,0-0.56.55q0,9.17,0,18.34a1,1,0,0,1,0,.37,0.51,0.51,0,0,1-.29.29c-0.7,0-1.4,0-2.1,0a0.27,0.27,0,0,1-.31-0.33c0-.13,0-0.25,0-0.38q0-9.13,0-18.26c0-.6,0-0.6-0.59-0.6s-1.29,0-1.93,0c-0.3,0-.44-0.07-0.42-0.4,0-.53,0-1.06,0-1.59a0.32,0.32,0,0,1,.4-0.38c0.64,0,1.29,0,1.93,0s0.61,0,.61-0.59c0-1.26,0-2.52,0-3.78a9.76,9.76,0,0,1,.2-1.83,3.66,3.66,0,0,1,3.1-2.79,9.51,9.51,0,0,1,4,.38,0.43,0.43,0,0,1,.29.24C446,846.14,446,846.94,446,847.77Z" transform="translate(-117.9 -718.71)"/><path class="cls-2" d="M344.38,856.08l-1.87,1.63c-0.24-.19-0.59-0.5-1-0.78a6,6,0,0,0-3-1.25,3.37,3.37,0,0,0-3.76,2.9,3,3,0,0,0,1.25,2.67,25.87,25.87,0,0,0,2.89,1.85,18.44,18.44,0,0,1,3.69,2.45,5.49,5.49,0,0,1,1.73,5.06,6.2,6.2,0,0,1-5.59,5.49,8,8,0,0,1-7.16-2.71,0.34,0.34,0,0,1,0-.56c0.5-.53,1-1.08,1.55-1.74a5.65,5.65,0,0,0,.45.59,6.08,6.08,0,0,0,3.65,1.89,4.13,4.13,0,0,0,4.49-2.92,3,3,0,0,0-.87-3.12,20.48,20.48,0,0,0-2.58-1.78c-1.15-.72-2.36-1.33-3.48-2.1a5.52,5.52,0,0,1-2.48-4.58,5.66,5.66,0,0,1,5.06-5.9,7.94,7.94,0,0,1,6.22,2.16c0.22,0.18.42,0.37,0.63,0.55A2,2,0,0,1,344.38,856.08Z" transform="translate(-117.9 -718.71)"/><path class="cls-2" d="M420.43,860.38c0-4.88,0-9.77,0-14.65,0-.43.13-0.56,0.55-0.54,0.6,0,1.2,0,1.8,0a0.3,0.3,0,0,1,.37.36c0,0.11,0,.22,0,0.34q0,14.52,0,29c0,0.69,0,.69-0.71.69-0.49,0-1,0-1.47,0s-0.55-.1-0.55-0.53c0-3.08,0-6.16,0-9.23v-5.5Z" transform="translate(-117.9 -718.71)"/><path class="cls-2" d="M432.12,864.67c0,3.49,0,7,0,10.46,0,0.41-.11.54-0.52,0.52a15.76,15.76,0,0,0-1.8,0c-0.43,0-.47-0.17-0.47-0.52q0-8.71,0-17.43c0-1.19,0-2.38,0-3.57a0.35,0.35,0,0,1,.43-0.43c0.63,0,1.26,0,1.89,0,0.38,0,.47.12,0.47,0.48C432.11,857.68,432.12,861.17,432.12,864.67Z" transform="translate(-117.9 -718.71)"/><path class="cls-2" d="M452.19,864.67c0,3.49,0,7,0,10.46,0,0.41-.12.54-0.52,0.52a15.8,15.8,0,0,0-1.76,0c-0.42,0-.51-0.13-0.51-0.52q0-9,0-18.06c0-1,0-2,0-2.94a0.35,0.35,0,0,1,.43-0.43c0.63,0,1.26,0,1.89,0,0.38,0,.47.12,0.47,0.48C452.19,857.68,452.19,861.18,452.19,864.67Z" transform="translate(-117.9 -718.71)"/><path class="cls-2" d="M348.1,864.68q0-5.21,0-10.41c0-.56,0-0.56.55-0.56s1.15,0,1.72,0a0.37,0.37,0,0,1,.45.45c0,1.93,0,3.86,0,5.79q0,7.58,0,15.16c0,0.42-.09.58-0.53,0.55a15.06,15.06,0,0,0-1.72,0c-0.37,0-.48-0.11-0.48-0.48,0-2.1,0-4.2,0-6.3Q348.1,866.77,348.1,864.68Z" transform="translate(-117.9 -718.71)"/><path class="cls-2" d="M433,846.91a2.25,2.25,0,1,1-4.51,0,2.3,2.3,0,0,1,2.23-2.29A2.24,2.24,0,0,1,433,846.91Z" transform="translate(-117.9 -718.71)"/><path class="cls-2" d="M453.05,846.91a2.21,2.21,0,0,1-2.23,2.28,2.28,2.28,0,0,1-.05-4.55A2.22,2.22,0,0,1,453.05,846.91Z" transform="translate(-117.9 -718.71)"/><path class="cls-2" d="M347.18,846.89a2.24,2.24,0,0,1,2.26-2.26,2.28,2.28,0,1,1,0,4.55A2.23,2.23,0,0,1,347.18,846.89Z" transform="translate(-117.9 -718.71)"/><path class="cls-2" d="M458.39,848.29v-1.36q0-.21,0-0.42c0-.78,0-0.78-0.77-0.86a1.06,1.06,0,0,1-.23-0.08,3.59,3.59,0,0,1,2.35,0,5.87,5.87,0,0,1-.67,0,0.34,0.34,0,0,0-.42.41c0,0.63,0,1.26,0,1.88a1.86,1.86,0,0,1-.09.38Z" transform="translate(-117.9 -718.71)"/><path class="cls-2" d="M295.94,889.18a26.17,26.17,0,1,1,26.17-26A26.15,26.15,0,0,1,295.94,889.18Zm-0.35-13.25-6.53-10.19c0.53-.17,1-0.28,1.43-0.47a8,8,0,0,0,4.67-7.82,8.32,8.32,0,0,0-1.69-4.75,7.12,7.12,0,0,0-5.93-3.18h-5.38c-1.78,0-3.56,0-5.33,0-0.31,0-.45.09-0.42,0.4,0,0.1,0,.2,0,0.29q0,12.51,0,25c0,0.11,0,.22,0,0.34a0.32,0.32,0,0,0,.38.37h1.09c0.59,0,.59,0,0.59-0.58,0-2.94,0-5.88,0-8.82A0.42,0.42,0,0,1,279,866q3.67,0,7.35,0a0.86,0.86,0,0,1,.84.47q2.88,4.53,5.8,9a0.75,0.75,0,0,0,.36.37C294,875.95,294.75,875.93,295.59,875.93Zm2.9-13.23q0,6.3,0,12.6c0,0.65,0,.65.65,0.65h15.79c1.26,0,1.26,0,1.25-1.27,0-.62,0-0.62-0.64-0.62q-7.22,0-14.45,0a0.44,0.44,0,0,1-.55-0.54c0-3.23,0-6.47,0-9.7,0-.54,0-0.54.57-0.54h11.63c1.17,0,1.17,0,1.17-1.19,0-.56,0-0.56-0.55-0.56-4.1,0-8.2,0-12.3,0a0.42,0.42,0,0,1-.52-0.52c0-3,0-6.08,0-9.11,0-.55,0-0.55.55-0.55h13.48c1.26,0,1.26,0,1.25-1.26,0-.57,0-0.57-0.58-0.57H299.09c-0.6,0-.6,0-0.6.63Q298.49,856.42,298.49,862.7Z" transform="translate(-117.9 -718.71)"/><path class="cls-2" d="M278.48,857.72c0-2,0-3.95,0-5.92a0.37,0.37,0,0,1,.45-0.46c2.69,0,5.37,0,8.06,0a5.64,5.64,0,0,1,4.84,2.46,6.81,6.81,0,0,1-1.22,9.3,4.86,4.86,0,0,1-3,1c-2.87,0-5.74,0-8.61,0a0.4,0.4,0,0,1-.49-0.5C278.49,861.67,278.48,859.69,278.48,857.72Z" transform="translate(-117.9 -718.71)"/><text class="cls-3" transform="translate(128.39 214.79)">a<tspan x="13.87" y="0">p</tspan><tspan x="27.67" y="0">p </tspan><tspan x="48.52" y="0">s</tspan><tspan x="59.33" y="0">c</tspan><tspan x="70.77" y="0">r</tspan><tspan x="79.47" y="0">e</tspan><tspan x="92.3" y="0">e</tspan><tspan x="105.04" y="0">n</tspan><tspan x="118.55" y="0">s</tspan><tspan x="129.32" y="0">h</tspan><tspan x="142.89" y="0">o</tspan><tspan x="156.45" y="0">t </tspan><tspan x="172.36" y="0">h</tspan><tspan x="185.92" y="0">e</tspan><tspan x="198.62" y="0">r</tspan><tspan x="207.32" y="0">e</tspan></text></svg>