<svg id="Layer_1" data-name="Layer 1" xmlns="http://www.w3.org/2000/svg" viewBox="0 0 141.94 51.95"><defs><style>.cls-1{fill:#fff;}</style></defs><title>logo-light</title><path class="cls-1" d="M22.62,0l0.31,0.07a21.48,21.48,0,0,1,12.87,5c0.36,0.3.69,0.62,1,.92a1,1,0,0,0,.36.2,21.65,21.65,0,0,1,12.36,9.35,20.5,20.5,0,0,1,3,7.93,24.41,24.41,0,0,1,.28,2.93A21.15,21.15,0,0,1,48,40.84a21.37,21.37,0,0,1-12,7.51c-0.75.18-1.51,0.27-2.27,0.41a1.11,1.11,0,0,0-.36.12,21.34,21.34,0,0,1-7.26,2.7c-0.89.16-1.8,0.2-2.7,0.3A0.7,0.7,0,0,0,23,52H21.44l-0.26-.07c-0.77-.08-1.55-0.12-2.32-0.23a20.06,20.06,0,0,1-6-1.83A21.65,21.65,0,0,1,1.95,38,20,20,0,0,1,.54,31.52c-0.06-1.3.06-2.61,0.09-3.92a2.83,2.83,0,0,0,0-.68,21.58,21.58,0,0,1-.56-4A1.16,1.16,0,0,0,0,22.66V21.1a2,2,0,0,0,.07-0.35A19.25,19.25,0,0,1,.6,16.88,21.81,21.81,0,0,1,20.77.07L21.06,0h1.56Zm8.49,8.33a19.68,19.68,0,1,0,.22,0H31.11ZM26.53,48.49l-0.3-.1-2.64-.78a2.18,2.18,0,0,0-.62-0.1,19.13,19.13,0,0,1-3.6-.22A17.41,17.41,0,0,1,4.94,31.17a16.32,16.32,0,0,1,.46-5,17.32,17.32,0,0,1,6.84-10.08,1.9,1.9,0,0,0,.4-0.42l1.65-2.28,0.15-.24A18.81,18.81,0,0,0,26.53,48.5h0ZM30.85,5.35a18.8,18.8,0,0,0-25.54,7.4q-0.24.44-.46,0.89a17.26,17.26,0,0,0-1.7,6,0.77,0.77,0,0,0,.2-0.22l1.76-2.64a2.3,2.3,0,0,0,.26-0.51,16.83,16.83,0,0,1,4-6.56,17.1,17.1,0,0,1,14-5.17,16.76,16.76,0,0,1,4.43,1,0.87,0.87,0,0,0,.35.06l1.6-.15Z" transform="translate(0)"/><path class="cls-1" d="M141.93,17.44a0.22,0.22,0,0,1-.21-0.23V15.92h-0.08a0.91,0.91,0,0,1-.11.25l-0.39,1.13a0.64,0.64,0,0,1-.13.16,0.61,0.61,0,0,1-.15-0.17c-0.14-.38-0.26-0.77-0.4-1.16a0.8,0.8,0,0,0-.12-0.27h-0.09v1.57h-0.11a0.7,0.7,0,0,1-.06-0.19V15.71a0.29,0.29,0,0,1,.13-0.21,0.35,0.35,0,0,1,.25.15c0.16,0.42.3,0.86,0.44,1.29a0.86,0.86,0,0,0,.11.24c0.07-.16.11-0.26,0.15-0.37,0.11-.31.23-0.63,0.32-1a0.42,0.42,0,0,1,.44-0.4h0v2Z" transform="translate(0)"/><path class="cls-1" d="M82.27,24.09l0.2-.32a6.09,6.09,0,0,1,3.7-3,4.69,4.69,0,0,1,5.13,1.49,4.78,4.78,0,0,1,1,2.51,17.94,17.94,0,0,1,.18,2.16c0,2.76,0,5.51.06,8.27a0.25,0.25,0,0,1-.32.31H91c-0.4,0-.35-0.07-0.35-0.34V27.42a16,16,0,0,0-.27-2.84,3.07,3.07,0,0,0-2.77-2.24,4.59,4.59,0,0,0-4.88,4.15,32.63,32.63,0,0,0-.22,3.3v5.38c0,0.27-.07.36-0.34,0.34a9.88,9.88,0,0,0-1.14,0,0.27,0.27,0,0,1-.33-0.34V27.54a16.13,16.13,0,0,0-.28-2.87,3.1,3.1,0,0,0-2.79-2.33,4.59,4.59,0,0,0-4.8,3.83A18.55,18.55,0,0,0,72.57,29v6.13c0,0.25-.05.35-0.32,0.34H71a0.2,0.2,0,0,1-.25-0.26,1.27,1.27,0,0,0,0-.14V21.35c0-.39,0-0.39.39-0.39h1.06a0.27,0.27,0,0,1,.35.34v1.89a2.72,2.72,0,0,0,0,.28l0.28-.35a5.85,5.85,0,0,1,3.53-2.41A4.89,4.89,0,0,1,81,21.89a4.74,4.74,0,0,1,1.1,1.79Z" transform="translate(0)"/><path class="cls-1" d="M97.77,33.17v7.38c0,0.26-.06.36-0.34,0.35s-0.85,0-1.28,0a0.19,0.19,0,0,1-.23-0.23V21.36c0-.38,0-0.38.38-0.38h1.17c0.39,0,.3.08,0.3,0.31v2.29h0.07l0.28-.33a6.63,6.63,0,0,1,4-2.5,7.55,7.55,0,0,1,8.84,6q0.07,0.36.1,0.73a7.64,7.64,0,0,1-4.39,7.78,7.25,7.25,0,0,1-8.13-1.45C98.29,33.56,98,33.37,97.77,33.17Zm11.48-4.9a5.79,5.79,0,0,0-1.13-3.51,5.59,5.59,0,0,0-5.27-2.39,5.24,5.24,0,0,0-2.92,1.11,5.94,5.94,0,0,0-2.23,6,5.77,5.77,0,0,0,6.66,4.72l0.34-.07A6,6,0,0,0,109.25,28.27Z" transform="translate(0)"/><path class="cls-1" d="M130.65,17c-0.4-.11-0.76-0.23-1.12-0.32a2.06,2.06,0,0,0-1.51.16,1,1,0,0,0-.54.88c0,1,0,1.93-.05,2.89a0.27,0.27,0,0,0,.34.33h2.42a0.24,0.24,0,0,1,.3.3v1a0.22,0.22,0,0,1-.27.27H127.8c-0.37,0-.37,0-0.37.36V35.08a0.63,0.63,0,0,1,0,.25,0.34,0.34,0,0,1-.19.19h-1.39a0.18,0.18,0,0,1-.21-0.22V35.05q0-6.06,0-12.11c0-.4,0-0.4-0.39-0.4H124c-0.2,0-.29,0-0.28-0.26s0-.71,0-1.06a0.21,0.21,0,0,1,.16-0.25h1.38c0.4,0,.41,0,0.41-0.39V18.07a6.47,6.47,0,0,1,.13-1.21,2.43,2.43,0,0,1,2.1-1.85,6.31,6.31,0,0,1,2.63.25,0.29,0.29,0,0,1,.19.16C130.66,16,130.65,16.49,130.65,17Z" transform="translate(0)"/><path class="cls-1" d="M63.24,22.56L62,23.64c-0.16-.13-0.39-0.33-0.64-0.52a4,4,0,0,0-2-.83,2.23,2.23,0,0,0-2.51,1.88,2,2,0,0,0,.83,1.77,17.17,17.17,0,0,0,1.95,1.23,12.24,12.24,0,0,1,2.45,1.63,3.64,3.64,0,0,1,1.15,3.37,4.11,4.11,0,0,1-3.71,3.65A5.34,5.34,0,0,1,54.77,34a0.23,0.23,0,0,1,0-.32l0,0c0.33-.35.64-0.72,1-1.16a3.75,3.75,0,0,0,.3.39,4,4,0,0,0,2.44,1.29,2.74,2.74,0,0,0,3-1.93,2,2,0,0,0-.58-2.07A13.59,13.59,0,0,0,59.22,29c-0.76-.48-1.57-0.89-2.31-1.39a3.66,3.66,0,0,1-1.64-3,3.76,3.76,0,0,1,3.35-3.91,5.27,5.27,0,0,1,4.12,1.43l0.42,0.37Z" transform="translate(0)"/><path class="cls-1" d="M113.7,25.41V15.69c0-.29.09-0.37,0.36-0.36h1.2a0.2,0.2,0,0,1,.25.24v0.22q0,9.63,0,19.27c0,0.46,0,.46-0.47.46h-1c-0.35,0-.36-0.06-0.36-0.35V25.41h0Z" transform="translate(0)"/><path class="cls-1" d="M121.45,28.25v6.94c0,0.27-.08.36-0.34,0.34a10.45,10.45,0,0,0-1.2,0c-0.29,0-.31-0.12-0.31-0.35V21.25a0.23,0.23,0,0,1,.17-0.28h1.33c0.25,0,.31.08,0.31,0.32C121.45,23.61,121.45,25.93,121.45,28.25Z" transform="translate(0)"/><path class="cls-1" d="M134.77,28.26V35.2c0,0.27-.08.36-0.35,0.34a10.48,10.48,0,0,0-1.17,0c-0.28,0-.34-0.08-0.34-0.35v-14a0.23,0.23,0,0,1,.29-0.29h1.25c0.25,0,.31.08,0.31,0.32C134.77,23.61,134.77,25.93,134.77,28.26Z" transform="translate(0)"/><path class="cls-1" d="M65.71,28.26V21.35c0-.37,0-0.37.36-0.37h1.14a0.24,0.24,0,0,1,.3.3v3.84q0,5,0,10.06c0,0.28-.06.38-0.35,0.36a10,10,0,0,0-1.14,0,0.26,0.26,0,0,1-.32-0.32V31Q65.71,29.65,65.71,28.26Z" transform="translate(0)"/><path class="cls-1" d="M122,16.47a1.5,1.5,0,1,1-3,0,1.52,1.52,0,0,1,1.48-1.52A1.49,1.49,0,0,1,122,16.41S122,16.45,122,16.47Z" transform="translate(0)"/><path class="cls-1" d="M135.34,16.47A1.47,1.47,0,0,1,133.91,18h-0.06a1.51,1.51,0,0,1,0-3,1.47,1.47,0,0,1,1.49,1.45S135.34,16.46,135.34,16.47Z" transform="translate(0)"/><path class="cls-1" d="M65.1,16.46A1.48,1.48,0,0,1,66.56,15h0a1.51,1.51,0,1,1,0,3,1.48,1.48,0,0,1-1.5-1.46S65.1,16.47,65.1,16.46Z" transform="translate(0)"/><path class="cls-1" d="M138.85,17.39V16.21c0-.52,0-0.52-0.51-0.57l-0.15,0a2.38,2.38,0,0,1,1.56,0h-0.44a0.23,0.23,0,0,0-.28.27v1.25a1.23,1.23,0,0,1-.06.25Z" transform="translate(0)"/><path class="cls-1" d="M31.11,44.51A17.36,17.36,0,1,1,48.47,27.15v0.08A17.35,17.35,0,0,1,31.11,44.51Zm-0.26-8.79L26.52,29c0.35-.11.66-0.19,0.95-0.31a5.32,5.32,0,0,0,3.1-5.19,5.52,5.52,0,0,0-1.12-3.15,4.73,4.73,0,0,0-3.92-2.14h-7.1c-0.2,0-.3.06-0.28,0.27a0.4,0.4,0,0,1,0,.19V35.46a0.21,0.21,0,0,0,.16.25h0.81c0.39,0,.39,0,0.39-0.38V29.48a0.28,0.28,0,0,1,.24-0.31h5a0.57,0.57,0,0,1,.56.31q1.91,3,3.85,6a0.5,0.5,0,0,0,.24.25h1.47Zm1.92-8.78V35.3c0,0.43,0,.43.43,0.43H43.68c0.83,0,.83,0,0.83-0.84,0-.41,0-0.41-0.42-0.41H34.51a0.29,0.29,0,0,1-.36-0.36V27.68c0-.36,0-0.36.38-0.36h7.72c0.78,0,.78,0,0.78-0.79,0-.37,0-0.37-0.37-0.37H34.5a0.28,0.28,0,0,1-.34-0.35v-6c0-.37,0-0.37.37-0.37h8.94c0.84,0,.84,0,0.83-0.84,0-.38,0-0.38-0.39-0.38H33.2c-0.4,0-.4,0-0.4.42q0,4.14,0,8.31h0Z" transform="translate(0)"/><path class="cls-1" d="M19.52,23.64V19.71a0.25,0.25,0,0,1,.19-0.3h5.46A3.74,3.74,0,0,1,28.38,21a4.52,4.52,0,0,1-.81,6.17,3.22,3.22,0,0,1-2,.69H19.85a0.27,0.27,0,0,1-.33-0.33C19.53,26.26,19.52,24.95,19.52,23.64Z" transform="translate(0)"/></svg>
