<svg id="Layer_1" data-name="Layer 1" xmlns="http://www.w3.org/2000/svg" viewBox="0 0 212.86 77.9"><defs><style>.cls-1{fill:#1c75bc;}</style></defs><title>logo-dark</title><path class="cls-1" d="M33.92,0a2.77,2.77,0,0,0,.47.11,32.21,32.21,0,0,1,19.3,7.56c0.54,0.44,1,.93,1.56,1.38a1.54,1.54,0,0,0,.54.3,32.46,32.46,0,0,1,18.53,14,30.75,30.75,0,0,1,4.52,11.89,36.6,36.6,0,0,1,.42,4.39A31.71,31.71,0,0,1,72,61.28,32,32,0,0,1,54,72.53c-1.12.27-2.27,0.41-3.4,0.62a1.66,1.66,0,0,0-.54.19,32,32,0,0,1-10.89,4c-1.34.23-2.7,0.3-4,.45a2.77,2.77,0,0,0-.56.11H32.23a2.53,2.53,0,0,0-.39-0.1c-1.16-.12-2.32-0.19-3.48-0.35a30.08,30.08,0,0,1-9.08-2.8A32.46,32.46,0,0,1,2.9,56.93,30,30,0,0,1,.79,47.2c-0.09-2,.09-3.92.14-5.87a4.24,4.24,0,0,0,0-1,32.37,32.37,0,0,1-.84-6.05A1.74,1.74,0,0,0,0,33.89v-2.3A3,3,0,0,0,.1,31.07a28.86,28.86,0,0,1,.8-5.8A32.7,32.7,0,0,1,31.15.11,2.44,2.44,0,0,0,31.58,0h2.34ZM46.65,12.5a28.14,28.14,0,1,0,.35,0H46.65ZM39.83,72.72l-0.44-.15c-1.32-.39-2.63-0.79-4-1.17a3.28,3.28,0,0,0-.93-0.15,28.68,28.68,0,0,1-5.4-.34A26.11,26.11,0,0,1,7.41,46.68a24.47,24.47,0,0,1,.7-7.57A26,26,0,0,1,18.36,24,2.85,2.85,0,0,0,19,23.36c0.83-1.13,1.65-2.27,2.47-3.41l0.22-.36A28.21,28.21,0,0,0,39.83,72.72ZM46.37,8A28.19,28.19,0,0,0,8,19q-0.39.71-.75,1.44a25.87,25.87,0,0,0-2.54,9A1.15,1.15,0,0,0,5,29.11c0.88-1.32,1.77-2.63,2.64-4a3.45,3.45,0,0,0,.39-0.77,25.24,25.24,0,0,1,6-9.84,25.64,25.64,0,0,1,21-7.75,25.14,25.14,0,0,1,6.65,1.47,1.31,1.31,0,0,0,.52.09c0.8-.06,1.6-0.15,2.4-0.22Z" transform="translate(0.01)"/><path class="cls-1" d="M212.83,26.16a0.33,0.33,0,0,1-.33-0.33,0.33,0.33,0,0,1,0-.06V23.83H212.4c-0.06.13-.12,0.25-0.17,0.38-0.2.56-.39,1.13-0.59,1.69a1,1,0,0,1-.2.24,0.92,0.92,0,0,1-.23-0.25c-0.21-.57-0.4-1.16-0.6-1.73a1.27,1.27,0,0,0-.17-0.4H210.3v2.35h-0.16a1,1,0,0,1-.09-0.29v-2.3a0.44,0.44,0,0,1,.2-0.31,0.52,0.52,0,0,1,.37.22c0.24,0.64.44,1.29,0.66,1.93a1.29,1.29,0,0,0,.17.36c0.1-.24.17-0.39,0.23-0.55,0.17-.47.35-0.94,0.48-1.42a0.62,0.62,0,0,1,.64-0.6h0.05v3h0Z" transform="translate(0.01)"/><path class="cls-1" d="M123.36,36.12l0.31-.48a9.13,9.13,0,0,1,5.55-4.46,7,7,0,0,1,7.7,2.23,7.16,7.16,0,0,1,1.57,3.76,26.9,26.9,0,0,1,.27,3.23c0,4.13,0,8.27.08,12.4a0.38,0.38,0,0,1-.48.46h-1.8a0.42,0.42,0,0,1-.52-0.51V41.14a24,24,0,0,0-.41-4.26,4.6,4.6,0,0,0-4.16-3.36,6.89,6.89,0,0,0-7.32,6.23,48.92,48.92,0,0,0-.33,4.94c0,2.69,0,5.38,0,8.06,0,0.4-.11.54-0.52,0.52a14.8,14.8,0,0,0-1.71,0,0.4,0.4,0,0,1-.49-0.5V41.32a24.18,24.18,0,0,0-.42-4.3,4.65,4.65,0,0,0-4.19-3.5,6.89,6.89,0,0,0-7.19,5.75,27.81,27.81,0,0,0-.42,4.3c-0.06,3.06,0,6.13,0,9.19,0,0.37-.08.53-0.48,0.5h-1.84a0.31,0.31,0,0,1-.38-0.39,1.91,1.91,0,0,0,0-.21V32c0-.59,0-0.59.59-0.59h1.59a0.41,0.41,0,0,1,.53.51v2.84a4.07,4.07,0,0,0,.06.43l0.42-.52a8.77,8.77,0,0,1,5.29-3.61,7.34,7.34,0,0,1,6.85,1.76,7.11,7.11,0,0,1,1.65,2.68Z" transform="translate(0.01)"/><path class="cls-1" d="M146.6,49.71V60.78c0,0.39-.09.54-0.51,0.52h-1.92a0.28,0.28,0,0,1-.34-0.34V32c0-.56,0-0.56.57-0.56h1.75a0.36,0.36,0,0,1,.44.46v3.43h0.11l0.42-.49a9.94,9.94,0,0,1,6-3.75,11.32,11.32,0,0,1,13.25,9q0.1,0.54.15,1.08a11.46,11.46,0,0,1-6.59,11.67,10.87,10.87,0,0,1-12.2-2.17A14.84,14.84,0,0,0,146.6,49.71Zm17.23-7.32a8.69,8.69,0,0,0-1.7-5.27,8.38,8.38,0,0,0-7.88-3.58,7.86,7.86,0,0,0-4.37,1.67,8.91,8.91,0,0,0-3.34,8.93,8.65,8.65,0,0,0,10,7.09l0.46-.09A9,9,0,0,0,163.83,42.39Z" transform="translate(0.01)"/><path class="cls-1" d="M195.91,25.59c-0.6-.17-1.13-0.35-1.68-0.47a3.09,3.09,0,0,0-2.27.23,1.46,1.46,0,0,0-.82,1.31c0,1.45,0,2.89-.08,4.34a0.41,0.41,0,0,0,.51.5h3.63a0.36,0.36,0,0,1,.44.46v1.5a0.33,0.33,0,0,1-.41.41H191.6c-0.55,0-.55,0-0.55.54q0,9.12,0,18.25a1,1,0,0,1,0,.37,0.5,0.5,0,0,1-.29.29h-2.09a0.27,0.27,0,0,1-.31-0.33V34.44c0-.6,0-0.6-0.58-0.6h-1.92c-0.3,0-.43-0.07-0.42-0.4V31.85a0.31,0.31,0,0,1,.39-0.38h1.92c0.64,0,.61,0,0.61-0.59V27.12a9.7,9.7,0,0,1,.2-1.82,3.64,3.64,0,0,1,3.09-2.78,9.46,9.46,0,0,1,4,.38,0.43,0.43,0,0,1,.29.24C195.92,23.93,195.91,24.73,195.91,25.59Z" transform="translate(0.01)"/><path class="cls-1" d="M94.83,33.82L93,35.45c-0.23-.19-0.59-0.5-1-0.78a5.94,5.94,0,0,0-3-1.24,3.35,3.35,0,0,0-3.75,2.88A3,3,0,0,0,86.46,39a25.74,25.74,0,0,0,2.87,1.84A18.35,18.35,0,0,1,93,43.24a5.46,5.46,0,0,1,1.72,5,6.17,6.17,0,0,1-5.56,5.47A8,8,0,0,1,82,51a0.34,0.34,0,0,1,0-.56c0.49-.53,1-1.08,1.54-1.73a5.63,5.63,0,0,0,.45.58,6.05,6.05,0,0,0,3.63,1.88,4.11,4.11,0,0,0,4.46-2.9,3,3,0,0,0-.86-3.1,20.38,20.38,0,0,0-2.57-1.77c-1.14-.72-2.35-1.33-3.46-2.09a5.49,5.49,0,0,1-2.46-4.56,5.63,5.63,0,0,1,5-5.87A7.9,7.9,0,0,1,93.94,33l0.63,0.55A2,2,0,0,1,94.83,33.82Z" transform="translate(0.01)"/><path class="cls-1" d="M170.49,38.1V23.53c0-.43.13-0.56,0.54-0.53h1.79a0.3,0.3,0,0,1,.37.36V52.58c0,0.69,0,.69-0.71.69H171c-0.46,0-.55-0.1-0.54-0.53V38.1Z" transform="translate(0.01)"/><path class="cls-1" d="M182.12,42.37v10.4c0,0.4-.11.54-0.52,0.51a15.64,15.64,0,0,0-1.8,0c-0.43,0-.47-0.17-0.47-0.52V31.87a0.35,0.35,0,0,1,.43-0.43h1.88a0.39,0.39,0,0,1,.47.48C182.11,35.4,182.12,38.88,182.12,42.37Z" transform="translate(0.01)"/><path class="cls-1" d="M202.09,42.37v10.4c0,0.41-.12.54-0.52,0.51a15.73,15.73,0,0,0-1.75,0,0.42,0.42,0,0,1-.51-0.52V31.84a0.35,0.35,0,0,1,.43-0.43h1.88a0.39,0.39,0,0,1,.47.48C202.08,35.4,202.09,38.88,202.09,42.37Z" transform="translate(0.01)"/><path class="cls-1" d="M98.53,42.37q0-5.18,0-10.36c0-.56,0-0.56.55-0.56h1.71a0.36,0.36,0,0,1,.45.45V52.74c0,0.41-.09.57-0.53,0.54a15,15,0,0,0-1.71,0,0.39,0.39,0,0,1-.48-0.47V46.54Q98.53,44.45,98.53,42.37Z" transform="translate(0.01)"/><path class="cls-1" d="M183,24.69a2.24,2.24,0,0,1-4.48,0,2.29,2.29,0,0,1,2.22-2.28,2.23,2.23,0,0,1,2.26,2.2S183,24.66,183,24.69Z" transform="translate(0.01)"/><path class="cls-1" d="M202.94,24.69A2.2,2.2,0,0,1,200.81,27h-0.09a2.27,2.27,0,0,1,0-4.53,2.21,2.21,0,0,1,2.27,2.15S202.94,24.65,202.94,24.69Z" transform="translate(0.01)"/><path class="cls-1" d="M97.62,24.68a2.22,2.22,0,0,1,2.19-2.25h0.06a2.27,2.27,0,1,1,.3,4.53h-0.3a2.21,2.21,0,0,1-2.25-2.17S97.62,24.72,97.62,24.68Z" transform="translate(0.01)"/><path class="cls-1" d="M208.26,26.07V24.29c0-.78,0-0.78-0.76-0.85a1,1,0,0,1-.23-0.08,3.58,3.58,0,0,1,2.34,0,5.84,5.84,0,0,1-.67,0,0.34,0.34,0,0,0-.42.41v1.87a1.85,1.85,0,0,1-.09.38Z" transform="translate(0.01)"/><path class="cls-1" d="M46.65,66.75a26,26,0,1,1,26-26v0.09A26,26,0,0,1,46.65,66.75ZM46.3,53.59L39.83,43.42c0.53-.17,1-0.28,1.42-0.46a8,8,0,0,0,4.64-7.78,8.28,8.28,0,0,0-1.68-4.72,7.09,7.09,0,0,0-5.9-3.17H27.65c-0.31,0-.44.09-0.42,0.4V53.21a0.32,0.32,0,0,0,.26.37H28.7c0.58,0,.59,0,0.59-0.57V44.24a0.42,0.42,0,0,1,.52-0.52h7.31a0.86,0.86,0,0,1,.83.46q2.87,4.51,5.77,9a0.75,0.75,0,0,0,.36.37C44.75,53.59,45.46,53.59,46.3,53.59Zm2.88-13.16V53c0,0.65,0,.65.64,0.65H65.53c1.25,0,1.25,0,1.25-1.26,0-.61,0-0.62-0.64-0.62H51.77a0.44,0.44,0,0,1-.54-0.54V41.54c0-.54,0-0.54.56-0.54H63.36c1.17,0,1.17,0,1.16-1.19,0-.55,0-0.56-0.55-0.56H51.73a0.42,0.42,0,0,1-.52-0.52V29.66c0-.55,0-0.55.55-0.55H65.17c1.25,0,1.25,0,1.25-1.26,0-.57,0-0.57-0.58-0.57h-16c-0.6,0-.6,0-0.6.62q0,6.26,0,12.5v0Z" transform="translate(0.01)"/><path class="cls-1" d="M29.27,35.45V29.56a0.37,0.37,0,0,1,.45-0.45h8a5.61,5.61,0,0,1,4.81,2.45,6.78,6.78,0,0,1-1.21,9.25,4.83,4.83,0,0,1-3,1H29.76a0.4,0.4,0,0,1-.49-0.5C29.28,39.37,29.27,37.41,29.27,35.45Z" transform="translate(0.01)"/></svg>