<svg id="Layer_1" data-name="Layer 1" xmlns="http://www.w3.org/2000/svg" viewBox="0 0 212.82 77.96"><defs><style>.cls-1{fill:#1c75bc;}</style></defs><title>logo-dark</title><path class="cls-1" d="M346.09,1993.41a2.77,2.77,0,0,0,.47.11,32.21,32.21,0,0,1,19.3,7.56c0.54,0.44,1,.93,1.56,1.38a1.54,1.54,0,0,0,.54.3,32.46,32.46,0,0,1,18.53,14,30.75,30.75,0,0,1,4.52,11.89,36.6,36.6,0,0,1,.42,4.39,31.71,31.71,0,0,1-7.25,21.65,32,32,0,0,1-18,11.25c-1.12.27-2.27,0.41-3.4,0.62a1.66,1.66,0,0,0-.54.19,32,32,0,0,1-10.89,4c-1.34.23-2.7,0.3-4.05,0.45-0.19,0-.37.07-0.56,0.11h-2.34a2.53,2.53,0,0,0-.39-0.1c-1.16-.12-2.32-0.19-3.48-0.35a30.08,30.08,0,0,1-9.08-2.8,32.46,32.46,0,0,1-16.38-17.72,30,30,0,0,1-2.11-9.73c-0.09-2,.09-3.92.14-5.87a4.24,4.24,0,0,0,0-1,32.37,32.37,0,0,1-.84-6.05,1.74,1.74,0,0,0-.1-0.39V2025a3.05,3.05,0,0,0,.11-0.52,28.86,28.86,0,0,1,.8-5.8,32.7,32.7,0,0,1,30.25-25.16,2.43,2.43,0,0,0,.43-0.1h2.34Zm12.73,12.5a28.24,28.24,0,1,0,28.25,28.38A28.14,28.14,0,0,0,358.82,2005.91ZM352,2066.13l-0.44-.15c-1.32-.39-2.63-0.79-4-1.17a3.27,3.27,0,0,0-.93-0.15,28.68,28.68,0,0,1-5.4-.34,26.11,26.11,0,0,1-21.65-24.23,24.47,24.47,0,0,1,.7-7.57,26,26,0,0,1,10.25-15.12,2.85,2.85,0,0,0,.59-0.63c0.83-1.13,1.65-2.27,2.47-3.41,0.06-.09.12-0.19,0.22-0.36A28.21,28.21,0,0,0,352,2066.13Zm6.54-64.71a28.19,28.19,0,0,0-39.07,12.43,25.87,25.87,0,0,0-2.54,9,1.15,1.15,0,0,0,.29-0.33c0.88-1.32,1.77-2.63,2.64-4a3.45,3.45,0,0,0,.39-0.77,25.24,25.24,0,0,1,6-9.84,25.64,25.64,0,0,1,21-7.75,25.14,25.14,0,0,1,6.65,1.47,1.31,1.31,0,0,0,.52.09c0.8-.06,1.6-0.15,2.4-0.22Z" transform="translate(-312.17 -1993.41)"/><path class="cls-1" d="M525,2019.57a0.33,0.33,0,0,1-.32-0.39c0-.51,0-1,0-1.55,0-.13,0-0.26,0-0.39l-0.11,0c-0.06.13-.12,0.25-0.17,0.38-0.2.56-.39,1.13-0.59,1.69a1,1,0,0,1-.2.24,0.92,0.92,0,0,1-.23-0.25c-0.21-.57-0.4-1.16-0.6-1.73,0-.14-0.12-0.27-0.17-0.4l-0.14,0v2.35l-0.16,0a1,1,0,0,1-.09-0.29c0-.77,0-1.53,0-2.3a0.44,0.44,0,0,1,.2-0.31,0.52,0.52,0,0,1,.37.22c0.24,0.64.44,1.29,0.66,1.93,0,0.09.08,0.17,0.17,0.36,0.1-.24.17-0.39,0.23-0.55,0.17-.47.35-0.94,0.48-1.42a0.62,0.62,0,0,1,.69-0.6v3Z" transform="translate(-312.17 -1993.41)"/><path class="cls-1" d="M435.53,2029.53l0.31-.48a9.13,9.13,0,0,1,5.55-4.46,7,7,0,0,1,7.7,2.23,7.16,7.16,0,0,1,1.57,3.76,26.9,26.9,0,0,1,.27,3.23c0,4.13.05,8.27,0.08,12.4a0.38,0.38,0,0,1-.48.46c-0.6,0-1.2,0-1.8,0-0.4,0-.52-0.11-0.52-0.51,0-3.87,0-7.74,0-11.61a24,24,0,0,0-.41-4.26,4.6,4.6,0,0,0-4.16-3.36,6.89,6.89,0,0,0-7.32,6.23,48.93,48.93,0,0,0-.33,4.94c-0.05,2.69,0,5.38,0,8.06,0,0.4-.11.54-0.52,0.52a14.81,14.81,0,0,0-1.71,0c-0.4,0-.49-0.13-0.49-0.5,0-3.82,0-7.63,0-11.45a24.18,24.18,0,0,0-.42-4.3,4.65,4.65,0,0,0-4.19-3.5,6.89,6.89,0,0,0-7.19,5.75,27.81,27.81,0,0,0-.42,4.3c-0.06,3.06,0,6.13,0,9.19,0,0.37-.08.53-0.48,0.5-0.61,0-1.23,0-1.84,0a0.31,0.31,0,0,1-.38-0.39,1.91,1.91,0,0,0,0-.21q0-10.32,0-20.64c0-.59,0-0.59.59-0.59s1.06,0,1.59,0a0.41,0.41,0,0,1,.53.51c0,0.95,0,1.89,0,2.84a4.07,4.07,0,0,0,.06.43c0.18-.23.3-0.37,0.42-0.52a8.77,8.77,0,0,1,5.29-3.61,7.34,7.34,0,0,1,6.85,1.76,7.11,7.11,0,0,1,1.65,2.68Z" transform="translate(-312.17 -1993.41)"/><path class="cls-1" d="M458.77,2043.12v0.42c0,3.55,0,7.1,0,10.65,0,0.39-.09.54-0.51,0.52-0.64,0-1.28,0-1.92,0a0.28,0.28,0,0,1-.34-0.34c0-.08,0-0.17,0-0.25q0-14.35,0-28.69c0-.56,0-0.56.57-0.56s1.17,0,1.75,0c0.36,0,.45.12,0.44,0.46,0,1,0,2,0,3v0.43l0.11,0,0.42-.49a9.94,9.94,0,0,1,6-3.75,11.32,11.32,0,0,1,13.4,10.07,11.46,11.46,0,0,1-6.59,11.67,10.87,10.87,0,0,1-12.2-2.17C459.55,2043.73,459.15,2043.44,458.77,2043.12ZM476,2035.8a8.69,8.69,0,0,0-1.7-5.27,8.38,8.38,0,0,0-7.88-3.58,7.86,7.86,0,0,0-4.37,1.67,8.91,8.91,0,0,0-3.34,8.93,8.65,8.65,0,0,0,10.43,7A9,9,0,0,0,476,2035.8Z" transform="translate(-312.17 -1993.41)"/><path class="cls-1" d="M508.08,2019c-0.6-.17-1.13-0.35-1.68-0.47a3.09,3.09,0,0,0-2.27.23,1.46,1.46,0,0,0-.82,1.31c0,1.45,0,2.89-.08,4.34a0.41,0.41,0,0,0,.51.5c1.21,0,2.42,0,3.63,0a0.36,0.36,0,0,1,.44.46c0,0.5,0,1,0,1.5a0.33,0.33,0,0,1-.41.41c-1.21,0-2.42,0-3.63,0-0.55,0-.55,0-0.55.54q0,9.12,0,18.25a1,1,0,0,1,0,.37,0.5,0.5,0,0,1-.29.29c-0.7,0-1.39,0-2.09,0a0.27,0.27,0,0,1-.31-0.33c0-.12,0-0.25,0-0.38q0-9.08,0-18.17c0-.6,0-0.6-0.58-0.6s-1.28,0-1.92,0c-0.3,0-.43-0.07-0.42-0.4,0-.53,0-1.06,0-1.59a0.31,0.31,0,0,1,.39-0.38c0.64,0,1.28,0,1.92,0s0.61,0,.61-0.59c0-1.25,0-2.51,0-3.76a9.7,9.7,0,0,1,.2-1.82,3.64,3.64,0,0,1,3.09-2.78,9.46,9.46,0,0,1,3.95.38,0.43,0.43,0,0,1,.29.24C508.09,2017.34,508.08,2018.14,508.08,2019Z" transform="translate(-312.17 -1993.41)"/><path class="cls-1" d="M407,2027.23l-1.86,1.63c-0.23-.19-0.59-0.5-1-0.78a5.94,5.94,0,0,0-3-1.24,3.35,3.35,0,0,0-3.75,2.88,3,3,0,0,0,1.24,2.65,25.74,25.74,0,0,0,2.87,1.84,18.35,18.35,0,0,1,3.67,2.44,5.46,5.46,0,0,1,1.72,5,6.17,6.17,0,0,1-5.56,5.47,8,8,0,0,1-7.13-2.7,0.34,0.34,0,0,1,0-.56c0.49-.53,1-1.08,1.54-1.73a5.62,5.62,0,0,0,.45.58,6.05,6.05,0,0,0,3.63,1.88,4.11,4.11,0,0,0,4.46-2.9,3,3,0,0,0-.86-3.1,20.38,20.38,0,0,0-2.57-1.77c-1.14-.72-2.35-1.33-3.46-2.09a5.49,5.49,0,0,1-2.46-4.56,5.63,5.63,0,0,1,5-5.87,7.9,7.9,0,0,1,6.18,2.15c0.21,0.18.42,0.37,0.63,0.55A2,2,0,0,1,407,2027.23Z" transform="translate(-312.17 -1993.41)"/><path class="cls-1" d="M482.66,2031.51c0-4.86,0-9.71,0-14.57,0-.43.13-0.56,0.54-0.53,0.6,0,1.2,0,1.79,0a0.3,0.3,0,0,1,.37.36c0,0.11,0,.22,0,0.33q0,14.45,0,28.89c0,0.69,0,.69-0.71.69-0.49,0-1,0-1.46,0s-0.55-.1-0.54-0.53c0-3.06,0-6.12,0-9.19v-5.47Z" transform="translate(-312.17 -1993.41)"/><path class="cls-1" d="M494.29,2035.78c0,3.47,0,6.93,0,10.4,0,0.4-.11.54-0.52,0.51a15.67,15.67,0,0,0-1.8,0c-0.43,0-.47-0.17-0.47-0.52q0-8.67,0-17.34c0-1.18,0-2.37,0-3.55a0.35,0.35,0,0,1,.43-0.43c0.63,0,1.25,0,1.88,0,0.37,0,.47.12,0.47,0.48C494.28,2028.81,494.29,2032.29,494.29,2035.78Z" transform="translate(-312.17 -1993.41)"/><path class="cls-1" d="M514.26,2035.78c0,3.47,0,6.93,0,10.4,0,0.41-.12.54-0.52,0.51a15.72,15.72,0,0,0-1.75,0c-0.41,0-.51-0.13-0.51-0.52q0-9,0-18c0-1,0-1.95,0-2.92a0.35,0.35,0,0,1,.43-0.43c0.63,0,1.25,0,1.88,0,0.38,0,.47.12,0.47,0.48C514.25,2028.81,514.26,2032.29,514.26,2035.78Z" transform="translate(-312.17 -1993.41)"/><path class="cls-1" d="M410.7,2035.78q0-5.18,0-10.36c0-.56,0-0.56.55-0.56s1.14,0,1.71,0a0.36,0.36,0,0,1,.45.45c0,1.92,0,3.84,0,5.76q0,7.54,0,15.08c0,0.41-.09.57-0.53,0.54a15,15,0,0,0-1.71,0c-0.37,0-.48-0.1-0.48-0.47,0-2.09,0-4.18,0-6.27Q410.7,2037.86,410.7,2035.78Z" transform="translate(-312.17 -1993.41)"/><path class="cls-1" d="M495.14,2018.1a2.24,2.24,0,1,1-4.48,0,2.29,2.29,0,0,1,2.22-2.28A2.23,2.23,0,0,1,495.14,2018.1Z" transform="translate(-312.17 -1993.41)"/><path class="cls-1" d="M515.11,2018.1a2.2,2.2,0,0,1-2.22,2.27,2.27,2.27,0,0,1-.05-4.53A2.21,2.21,0,0,1,515.11,2018.1Z" transform="translate(-312.17 -1993.41)"/><path class="cls-1" d="M409.79,2018.09a2.22,2.22,0,0,1,2.25-2.25,2.27,2.27,0,1,1,0,4.53A2.21,2.21,0,0,1,409.79,2018.09Z" transform="translate(-312.17 -1993.41)"/><path class="cls-1" d="M520.43,2019.48v-1.36q0-.21,0-0.42c0-.78,0-0.78-0.76-0.85a1,1,0,0,1-.23-0.08,3.58,3.58,0,0,1,2.34,0,5.84,5.84,0,0,1-.67,0,0.34,0.34,0,0,0-.42.41c0,0.62,0,1.25,0,1.87a1.85,1.85,0,0,1-.09.38Z" transform="translate(-312.17 -1993.41)"/><path class="cls-1" d="M358.82,2060.16a26,26,0,1,1,26-25.91A26,26,0,0,1,358.82,2060.16ZM358.47,2047L352,2036.83c0.53-.17,1-0.28,1.42-0.46a8,8,0,0,0,4.64-7.78,8.28,8.28,0,0,0-1.68-4.72,7.09,7.09,0,0,0-5.9-3.17h-5.35c-1.77,0-3.54,0-5.31,0-0.31,0-.44.09-0.42,0.4,0,0.1,0,.19,0,0.29q0,12.45,0,24.9c0,0.11,0,.22,0,0.33a0.32,0.32,0,0,0,.38.37h1.09c0.58,0,.59,0,0.59-0.57,0-2.92,0-5.85,0-8.77a0.42,0.42,0,0,1,.52-0.52q3.66,0,7.31,0a0.86,0.86,0,0,1,.83.46q2.87,4.51,5.77,9a0.75,0.75,0,0,0,.36.37C356.92,2047,357.63,2047,358.47,2047Zm2.88-13.16q0,6.27,0,12.53c0,0.65,0,.65.64,0.65H377.7c1.25,0,1.25,0,1.25-1.26,0-.61,0-0.62-0.64-0.62q-7.19,0-14.37,0a0.44,0.44,0,0,1-.54-0.54c0-3.22,0-6.43,0-9.65,0-.54,0-0.54.56-0.54h11.57c1.17,0,1.17,0,1.16-1.19,0-.55,0-0.56-0.55-0.56-4.08,0-8.16,0-12.24,0a0.42,0.42,0,0,1-.52-0.52c0-3,0-6,0-9.07,0-.55,0-0.55.55-0.55h13.41c1.25,0,1.25,0,1.25-1.26,0-.57,0-0.57-0.58-0.57H362c-0.6,0-.6,0-0.6.62Q361.35,2027.57,361.35,2033.81Z" transform="translate(-312.17 -1993.41)"/><path class="cls-1" d="M341.44,2028.86c0-2,0-3.93,0-5.89a0.37,0.37,0,0,1,.45-0.45c2.67,0,5.35,0,8,0a5.61,5.61,0,0,1,4.81,2.45,6.78,6.78,0,0,1-1.21,9.25,4.83,4.83,0,0,1-3,1c-2.85,0-5.71,0-8.56,0a0.4,0.4,0,0,1-.49-0.5C341.45,2032.78,341.44,2030.82,341.44,2028.86Z" transform="translate(-312.17 -1993.41)"/></svg>