<?xml version="1.0" encoding="utf-8"?>
<!-- Generator: Adobe Illustrator 19.2.1, SVG Export Plug-In . SVG Version: 6.00 Build 0)  -->
<svg version="1.1" id="Layer_1" xmlns="http://www.w3.org/2000/svg" xmlns:xlink="http://www.w3.org/1999/xlink" x="0px" y="0px"
	 viewBox="0 0 212.8 78" style="enable-background:new 0 0 212.8 78;" xml:space="preserve">
<style type="text/css">
	.st0{fill:#265B80;}
</style>
<title>logo-dark</title>
<path class="st0" d="M33.9,0c0.2,0.1,0.3,0.1,0.5,0.1c7.1,0.3,13.9,3,19.3,7.6c0.5,0.4,1,0.9,1.6,1.4c0.2,0.1,0.3,0.2,0.5,0.3
	c7.7,2.2,14.3,7.2,18.5,14c2.3,3.6,3.9,7.7,4.5,11.9c0.2,1.5,0.4,2.9,0.4,4.4c0.4,7.9-2.2,15.6-7.2,21.7c-4.5,5.7-10.9,9.7-18,11.2
	c-1.1,0.3-2.3,0.4-3.4,0.6c-0.2,0-0.4,0.1-0.5,0.2c-3.4,2-7,3.3-10.9,4c-1.3,0.2-2.7,0.3-4,0.4c-0.2,0-0.4,0.1-0.6,0.1h-2.3
	c-0.1,0-0.3-0.1-0.4-0.1c-1.2-0.1-2.3-0.2-3.5-0.4c-3.2-0.4-6.2-1.4-9.1-2.8c-7.5-3.6-13.4-9.9-16.4-17.7c-1.2-3.1-2-6.4-2.1-9.7
	c-0.1-2,0.1-3.9,0.1-5.9c0-0.3,0-0.7,0-1c-0.5-2-0.8-4-0.8-6.1C0.1,34.1,0,34,0,33.9v-2.3c0.1-0.2,0.1-0.3,0.1-0.5
	c0.1-2,0.3-3.9,0.8-5.8C4.2,11.1,16.6,0.8,31.1,0.1c0.1,0,0.3-0.1,0.4-0.1L33.9,0L33.9,0z M46.6,12.5c-15.6,0-28.2,12.7-28.2,28.3
	C18.4,56.3,31.1,69,46.7,69c15.5,0,28.2-12.6,28.2-28.1C75,25.3,62.5,12.6,47,12.5C46.9,12.5,46.8,12.5,46.6,12.5z M39.8,72.7
	l-0.4-0.1c-1.3-0.4-2.6-0.8-4-1.2c-0.3-0.1-0.6-0.1-0.9-0.1c-1.8,0.1-3.6-0.1-5.4-0.3c-12-2.1-21-12.1-21.6-24.2
	c-0.2-2.5,0.1-5.1,0.7-7.6C9.6,33,13.2,27.6,18.4,24c0.2-0.2,0.4-0.4,0.6-0.6c0.8-1.1,1.6-2.3,2.5-3.4c0.1-0.1,0.1-0.2,0.2-0.4
	C7.5,26,1.2,42.8,7.6,56.9C13.2,69.2,26.7,75.8,39.8,72.7z M46.4,8C32.8,0.5,15.6,5.4,8,19c-0.3,0.5-0.5,1-0.7,1.4
	c-1.4,2.8-2.2,5.9-2.5,9C4.9,29.3,5,29.2,5,29.1c0.9-1.3,1.8-2.6,2.6-4c0.2-0.2,0.3-0.5,0.4-0.8c1.2-3.7,3.3-7.1,6-9.8
	c5.4-5.7,13.2-8.5,21-7.8c2.3,0.2,4.5,0.7,6.6,1.5c0.2,0.1,0.3,0.1,0.5,0.1c0.8-0.1,1.6-0.2,2.4-0.2L46.4,8z"/>
<path class="st0" d="M212.8,26.2c-0.2,0-0.3-0.2-0.3-0.3c0,0,0,0,0-0.1c0-0.5,0-1,0-1.6c0-0.1,0-0.3,0-0.4h-0.1
	c-0.1,0.1-0.1,0.2-0.2,0.4c-0.2,0.6-0.4,1.1-0.6,1.7c-0.1,0.1-0.1,0.2-0.2,0.2c-0.1-0.1-0.2-0.2-0.2-0.2c-0.2-0.6-0.4-1.2-0.6-1.7
	c0-0.1-0.1-0.3-0.2-0.4h-0.1v2.3h-0.2c0-0.1-0.1-0.2-0.1-0.3c0-0.8,0-1.5,0-2.3c0-0.1,0.1-0.2,0.2-0.3c0.1,0,0.3,0.1,0.4,0.2
	c0.2,0.6,0.4,1.3,0.7,1.9c0,0.1,0.1,0.2,0.2,0.4c0.1-0.2,0.2-0.4,0.2-0.6c0.2-0.5,0.3-0.9,0.5-1.4c0-0.3,0.3-0.6,0.6-0.6
	c0,0,0,0,0.1,0L212.8,26.2L212.8,26.2z"/>
<path class="st0" d="M123.4,36.1l0.3-0.5c1.2-2.2,3.2-3.8,5.5-4.5c2.8-0.9,5.9-0.1,7.7,2.2c0.9,1.1,1.4,2.4,1.6,3.8
	c0.2,1.1,0.2,2.1,0.3,3.2c0,4.1,0,8.3,0.1,12.4c0.1,0.2-0.1,0.4-0.3,0.5c-0.1,0-0.1,0-0.2,0c-0.6,0-1.2,0-1.8,0
	c-0.4,0-0.5-0.1-0.5-0.5c0-3.9,0-7.7,0-11.6c0-1.4-0.1-2.9-0.4-4.3c-0.5-1.9-2.2-3.2-4.2-3.4c-3.7-0.2-7,2.5-7.3,6.2
	c-0.2,1.6-0.3,3.3-0.3,4.9c0,2.7,0,5.4,0,8.1c0,0.4-0.1,0.5-0.5,0.5c-0.6,0-1.1,0-1.7,0c-0.4,0-0.5-0.1-0.5-0.5c0-3.8,0-7.6,0-11.4
	c0-1.4-0.2-2.9-0.4-4.3c-0.5-2-2.2-3.4-4.2-3.5c-3.5-0.2-6.6,2.3-7.2,5.8c-0.3,1.4-0.4,2.9-0.4,4.3c-0.1,3.1,0,6.1,0,9.2
	c0,0.4-0.1,0.5-0.5,0.5c-0.6,0-1.2,0-1.8,0c-0.2,0-0.3,0-0.4-0.2c0-0.1,0-0.1,0-0.2c0-0.1,0-0.1,0-0.2c0-6.9,0-13.8,0-20.6
	c0-0.6,0-0.6,0.6-0.6s1.1,0,1.6,0c0.2-0.1,0.4,0,0.5,0.2c0,0.1,0,0.2,0,0.3c0,0.9,0,1.9,0,2.8c0,0.1,0,0.3,0.1,0.4
	c0.2-0.2,0.3-0.4,0.4-0.5c1.2-1.8,3.1-3.1,5.3-3.6c2.4-0.6,5,0,6.9,1.8c0.7,0.8,1.3,1.7,1.6,2.7L123.4,36.1z"/>
<path class="st0" d="M146.6,49.7v0.4c0,3.6,0,7.1,0,10.6c0,0.4-0.1,0.5-0.5,0.5c-0.6,0-1.3,0-1.9,0c-0.1,0-0.3-0.1-0.3-0.2
	c0,0,0-0.1,0-0.1c0-0.1,0-0.2,0-0.2c0-9.6,0-19.1,0-28.7c0-0.6,0-0.6,0.6-0.6s1.2,0,1.8,0c0.4,0,0.5,0.1,0.4,0.5c0,1,0,2,0,3v0.4
	h0.1l0.4-0.5c1.5-1.9,3.6-3.3,6-3.8c6.1-1.2,12.1,2.8,13.2,9c0.1,0.4,0.1,0.7,0.2,1.1c0.5,4.9-2.1,9.6-6.6,11.7
	c-4.1,1.9-9,1-12.2-2.2C147.4,50.3,147,50,146.6,49.7z M163.8,42.4c0-1.9-0.6-3.7-1.7-5.3c-1.8-2.6-4.8-3.9-7.9-3.6
	c-1.6,0.1-3.1,0.7-4.4,1.7c-2.7,2.1-4,5.6-3.3,8.9c0.8,4.7,5.3,7.9,10,7.1c0.2,0,0.3-0.1,0.5-0.1C161,50.2,163.8,46.5,163.8,42.4z"
	/>
<path class="st0" d="M195.9,25.6c-0.6-0.2-1.1-0.3-1.7-0.5c-0.8-0.2-1.6-0.1-2.3,0.2c-0.5,0.2-0.8,0.8-0.8,1.3c0,1.4,0,2.9-0.1,4.3
	c-0.1,0.2,0.1,0.4,0.3,0.5c0.1,0,0.1,0,0.2,0c1.2,0,2.4,0,3.6,0c0.2-0.1,0.4,0.1,0.4,0.2c0,0.1,0,0.1,0,0.2c0,0.5,0,1,0,1.5
	c0.1,0.2,0,0.4-0.2,0.4c-0.1,0-0.1,0-0.2,0c-1.2,0-2.4,0-3.6,0c-0.5,0-0.5,0-0.5,0.5c0,6.1,0,12.2,0,18.2c0,0.1,0,0.2,0,0.4
	c-0.1,0.1-0.2,0.2-0.3,0.3c-0.7,0-1.4,0-2.1,0c-0.1,0-0.3-0.1-0.3-0.2c0,0,0-0.1,0-0.1c0-0.1,0-0.2,0-0.4c0-6.1,0-12.1,0-18.2
	c0-0.6,0-0.6-0.6-0.6s-1.3,0-1.9,0c-0.3,0-0.4-0.1-0.4-0.4c0-0.5,0-1.1,0-1.6c0-0.2,0-0.3,0.2-0.4c0.1,0,0.1,0,0.2,0
	c0.6,0,1.3,0,1.9,0s0.6,0,0.6-0.6c0-1.2,0-2.5,0-3.8c0-0.6,0.1-1.2,0.2-1.8c0.3-1.5,1.6-2.6,3.1-2.8c1.3-0.2,2.7,0,4,0.4
	c0.1,0,0.2,0.1,0.3,0.2C195.9,23.9,195.9,24.7,195.9,25.6z"/>
<path class="st0" d="M94.8,33.8L93,35.4c-0.2-0.2-0.6-0.5-1-0.8c-0.9-0.7-1.9-1.1-3-1.2c-1.8-0.2-3.5,1.1-3.8,2.9
	c-0.1,1,0.4,2,1.2,2.7c0.9,0.7,1.9,1.3,2.9,1.8c1.3,0.7,2.5,1.5,3.7,2.4c1.4,1.3,2,3.1,1.7,5c-0.3,2.9-2.6,5.2-5.6,5.5
	c-2.7,0.4-5.4-0.7-7.1-2.7c-0.2-0.1-0.2-0.3-0.1-0.5c0,0,0.1-0.1,0.1-0.1c0.5-0.5,1-1.1,1.5-1.7c0.1,0.2,0.3,0.4,0.5,0.6
	c1,1,2.2,1.7,3.6,1.9c2,0.3,3.9-1,4.5-2.9c0.3-1.1,0-2.3-0.9-3.1c-0.8-0.7-1.7-1.2-2.6-1.8c-1.1-0.7-2.4-1.3-3.5-2.1
	c-1.5-1-2.5-2.7-2.5-4.6c-0.1-3,2-5.5,5-5.9c2.3-0.2,4.5,0.6,6.2,2.2c0.2,0.2,0.4,0.4,0.6,0.6C94.7,33.7,94.8,33.7,94.8,33.8z"/>
<path class="st0" d="M170.5,38.1c0-4.9,0-9.7,0-14.6c0-0.4,0.1-0.6,0.5-0.5c0.6,0,1.2,0,1.8,0c0.2,0,0.3,0.1,0.4,0.2
	c0,0,0,0.1,0,0.1c0,0.1,0,0.2,0,0.3c0,9.6,0,19.3,0,28.9c0,0.7,0,0.7-0.7,0.7c-0.5,0-1,0-1.5,0s-0.5-0.1-0.5-0.5c0-3.1,0-6.1,0-9.2
	L170.5,38.1L170.5,38.1z"/>
<path class="st0" d="M182.1,42.4c0,3.5,0,6.9,0,10.4c0,0.4-0.1,0.5-0.5,0.5c-0.6,0-1.2,0-1.8,0c-0.4,0-0.5-0.2-0.5-0.5
	c0-5.8,0-11.6,0-17.3c0-1.2,0-2.4,0-3.6c-0.1-0.2,0.1-0.4,0.2-0.4c0.1,0,0.1,0,0.2,0c0.6,0,1.2,0,1.9,0c0.4,0,0.5,0.1,0.5,0.5
	C182.1,35.4,182.1,38.9,182.1,42.4z"/>
<path class="st0" d="M202.1,42.4c0,3.5,0,6.9,0,10.4c0,0.4-0.1,0.5-0.5,0.5c-0.6,0-1.2,0-1.8,0c-0.4,0-0.5-0.1-0.5-0.5
	c0-6,0-12,0-18c0-1,0-1.9,0-2.9c-0.1-0.2,0.1-0.4,0.2-0.4c0.1,0,0.1,0,0.2,0c0.6,0,1.2,0,1.9,0c0.4,0,0.5,0.1,0.5,0.5
	C202.1,35.4,202.1,38.9,202.1,42.4z"/>
<path class="st0" d="M98.5,42.4c0-3.5,0-6.9,0-10.4c0-0.6,0-0.6,0.5-0.6s1.1,0,1.7,0c0.2-0.1,0.4,0,0.5,0.2c0,0.1,0,0.1,0,0.2
	c0,1.9,0,3.8,0,5.8c0,5,0,10.1,0,15.1c0,0.4-0.1,0.6-0.5,0.5c-0.6,0-1.1,0-1.7,0c-0.4,0-0.5-0.1-0.5-0.5c0-2.1,0-4.2,0-6.3
	C98.5,45.1,98.5,43.8,98.5,42.4z"/>
<path class="st0" d="M183,24.7c0,1.2-1,2.2-2.2,2.2c-1.2,0-2.2-1-2.2-2.2c0-1.2,1-2.2,2.2-2.3C181.9,22.4,183,23.4,183,24.7
	C183,24.6,183,24.7,183,24.7z"/>
<path class="st0" d="M202.9,24.7c0,1.2-0.9,2.2-2.1,2.3c0,0-0.1,0-0.1,0c-1.3-0.1-2.2-1.1-2.1-2.4c0.1-1.1,1-2.1,2.1-2.1
	c1.2,0,2.2,0.9,2.3,2.1C202.9,24.6,202.9,24.7,202.9,24.7z"/>
<path class="st0" d="M97.6,24.7c0-1.2,1-2.2,2.2-2.2c0,0,0,0,0.1,0c1.3-0.1,2.3,0.9,2.4,2.1c0.1,1.3-0.9,2.3-2.1,2.4
	c-0.1,0-0.2,0-0.3,0c-1.2,0-2.2-0.9-2.3-2.2C97.6,24.8,97.6,24.7,97.6,24.7z"/>
<path class="st0" d="M208.3,26.1v-1.4c0-0.1,0-0.3,0-0.4c0-0.8,0-0.8-0.8-0.8c-0.1,0-0.2,0-0.2-0.1c0.8-0.3,1.6-0.3,2.3,0
	c-0.2,0-0.4,0-0.7,0c-0.2,0-0.4,0.1-0.4,0.2c0,0.1,0,0.1,0,0.2c0,0.6,0,1.2,0,1.9c0,0.1,0,0.3-0.1,0.4L208.3,26.1z"/>
<path class="st0" d="M46.6,66.7c-14.4,0-26-11.6-26-26c0-14.4,11.6-26,26-26s26,11.6,26,26c0,0,0,0.1,0,0.1
	C72.6,55.2,61,66.7,46.6,66.7z M46.3,53.6l-6.5-10.2c0.5-0.2,1-0.3,1.4-0.5c3-1.4,4.9-4.5,4.6-7.8c-0.1-1.7-0.6-3.4-1.7-4.7
	c-1.3-2-3.5-3.2-5.9-3.2H33c-1.8,0-3.5,0-5.3,0c-0.3,0-0.4,0.1-0.4,0.4c0,0.1,0,0.2,0,0.3c0,8.3,0,16.6,0,24.9c0,0.1,0,0.2,0,0.3
	c0,0.2,0.1,0.3,0.3,0.4c0,0,0.1,0,0.1,0h1.1c0.6,0,0.6,0,0.6-0.6c0-2.9,0-5.8,0-8.8c-0.1-0.2,0.1-0.5,0.3-0.5c0.1,0,0.2,0,0.2,0
	c2.4,0,4.9,0,7.3,0c0.3,0,0.7,0.2,0.8,0.5c1.9,3,3.8,6,5.8,9c0.1,0.2,0.2,0.3,0.4,0.4C44.8,53.6,45.5,53.6,46.3,53.6z M49.2,40.4
	c0,4.2,0,8.4,0,12.5c0,0.7,0,0.7,0.6,0.7h15.7c1.2,0,1.2,0,1.2-1.3c0-0.6,0-0.6-0.6-0.6c-4.8,0-9.6,0-14.4,0
	c-0.2,0.1-0.5-0.1-0.5-0.3c0-0.1,0-0.2,0-0.2c0-3.2,0-6.4,0-9.7c0-0.5,0-0.5,0.6-0.5h11.6c1.2,0,1.2,0,1.2-1.2c0-0.6,0-0.6-0.5-0.6
	c-4.1,0-8.2,0-12.2,0c-0.2,0.1-0.5-0.1-0.5-0.3c0-0.1,0-0.2,0-0.2c0-3,0-6,0-9.1c0-0.6,0-0.6,0.5-0.6h13.4c1.2,0,1.2,0,1.2-1.3
	c0-0.6,0-0.6-0.6-0.6h-16c-0.6,0-0.6,0-0.6,0.6C49.2,32.1,49.2,36.2,49.2,40.4L49.2,40.4z"/>
<path class="st0" d="M29.3,35.4c0-2,0-3.9,0-5.9c-0.1-0.2,0.1-0.4,0.3-0.4c0.1,0,0.1,0,0.2,0c2.7,0,5.4,0,8,0
	c1.9-0.1,3.7,0.9,4.8,2.4c2.1,2.9,1.6,7-1.2,9.2c-0.9,0.7-1.9,1-3,1c-2.9,0-5.7,0-8.6,0c-0.2,0.1-0.4-0.1-0.5-0.3c0-0.1,0-0.1,0-0.2
	C29.3,39.4,29.3,37.4,29.3,35.4z"/>
</svg>
