<svg id="Layer_1" data-name="Layer 1" xmlns="http://www.w3.org/2000/svg" viewBox="0 0 141.93 51.99"><defs><style>.cls-1{fill:#fff;}</style></defs><title>resimplifi_logo</title><path class="cls-1" d="M144.77,17.83a1.85,1.85,0,0,0,.31.07,21.48,21.48,0,0,1,12.87,5c0.36,0.3.69,0.62,1,.92a1,1,0,0,0,.36.2,21.65,21.65,0,0,1,12.36,9.35,20.5,20.5,0,0,1,3,7.93,24.41,24.41,0,0,1,.28,2.93,21.15,21.15,0,0,1-4.84,14.44,21.37,21.37,0,0,1-12,7.51c-0.75.18-1.51,0.27-2.27,0.41a1.11,1.11,0,0,0-.36.12,21.34,21.34,0,0,1-7.26,2.7c-0.89.16-1.8,0.2-2.7,0.3-0.12,0-.25,0-0.37.07h-1.56a1.69,1.69,0,0,0-.26-0.07c-0.77-.08-1.55-0.12-2.32-0.23A20.06,20.06,0,0,1,135,67.65,21.65,21.65,0,0,1,124.1,55.84a20,20,0,0,1-1.41-6.49c-0.06-1.3.06-2.61,0.09-3.92a2.83,2.83,0,0,0,0-.68,21.58,21.58,0,0,1-.56-4,1.16,1.16,0,0,0-.07-0.26q0-.78,0-1.56a2,2,0,0,0,.07-0.35,19.25,19.25,0,0,1,.53-3.87A21.81,21.81,0,0,1,142.92,17.9a1.62,1.62,0,0,0,.29-0.07h1.56Zm8.49,8.33A18.83,18.83,0,1,0,172.1,45.09,18.77,18.77,0,0,0,153.26,26.17Zm-4.58,40.16-0.3-.1-2.64-.78a2.18,2.18,0,0,0-.62-0.1,19.13,19.13,0,0,1-3.6-.22A17.41,17.41,0,0,1,127.09,49a16.32,16.32,0,0,1,.46-5,17.32,17.32,0,0,1,6.84-10.08,1.9,1.9,0,0,0,.4-0.42c0.55-.76,1.1-1.52,1.65-2.28l0.15-.24A18.81,18.81,0,0,0,148.68,66.33ZM153,23.18A18.8,18.8,0,0,0,127,31.47a17.26,17.26,0,0,0-1.7,6,0.77,0.77,0,0,0,.2-0.22l1.76-2.64a2.3,2.3,0,0,0,.26-0.51,16.83,16.83,0,0,1,4-6.56,17.1,17.1,0,0,1,14-5.17,16.76,16.76,0,0,1,4.43,1,0.87,0.87,0,0,0,.35.06l1.6-.15Z" transform="translate(-122.15 -17.83)"/><path class="cls-1" d="M264.08,35.27a0.22,0.22,0,0,1-.21-0.26c0-.34,0-0.69,0-1,0-.09,0-0.18,0-0.26l-0.08,0c0,0.08-.08.17-0.11,0.25-0.13.38-.26,0.75-0.39,1.13a0.64,0.64,0,0,1-.13.16,0.61,0.61,0,0,1-.15-0.17c-0.14-.38-0.26-0.77-0.4-1.16,0-.09-0.08-0.18-0.12-0.27h-0.09v1.57h-0.11a0.7,0.7,0,0,1-.06-0.19c0-.51,0-1,0-1.53a0.29,0.29,0,0,1,.13-0.21,0.35,0.35,0,0,1,.25.15c0.16,0.42.3,0.86,0.44,1.29,0,0.06.05,0.11,0.11,0.24,0.07-.16.11-0.26,0.15-0.37,0.11-.31.23-0.63,0.32-0.95a0.42,0.42,0,0,1,.46-0.4v2Z" transform="translate(-122.15 -17.83)"/><path class="cls-1" d="M204.42,41.92l0.2-.32a6.09,6.09,0,0,1,3.7-3,4.69,4.69,0,0,1,5.13,1.49,4.78,4.78,0,0,1,1,2.51,17.94,17.94,0,0,1,.18,2.16c0,2.76,0,5.51.06,8.27a0.25,0.25,0,0,1-.32.31c-0.4,0-.8,0-1.2,0s-0.35-.07-0.35-0.34c0-2.58,0-5.16,0-7.75a16,16,0,0,0-.27-2.84,3.07,3.07,0,0,0-2.77-2.24,4.59,4.59,0,0,0-4.88,4.15,32.63,32.63,0,0,0-.22,3.3c0,1.79,0,3.58,0,5.38,0,0.27-.07.36-0.34,0.34a9.88,9.88,0,0,0-1.14,0c-0.27,0-.33-0.09-0.33-0.34,0-2.54,0-5.09,0-7.63a16.13,16.13,0,0,0-.28-2.87,3.1,3.1,0,0,0-2.79-2.33A4.59,4.59,0,0,0,195,44a18.55,18.55,0,0,0-.28,2.87c0,2,0,4.09,0,6.13,0,0.25-.05.35-0.32,0.34s-0.82,0-1.23,0a0.2,0.2,0,0,1-.25-0.26,1.27,1.27,0,0,0,0-.14q0-6.88,0-13.76c0-.39,0-0.39.39-0.39s0.71,0,1.06,0a0.27,0.27,0,0,1,.35.34c0,0.63,0,1.26,0,1.89a2.72,2.72,0,0,0,0,.28l0.28-.35a5.85,5.85,0,0,1,3.53-2.41,4.89,4.89,0,0,1,4.57,1.18,4.74,4.74,0,0,1,1.1,1.79Z" transform="translate(-122.15 -17.83)"/><path class="cls-1" d="M219.92,51v0.28c0,2.37,0,4.74,0,7.1,0,0.26-.06.36-0.34,0.35s-0.85,0-1.28,0a0.19,0.19,0,0,1-.23-0.23c0-.06,0-0.11,0-0.17q0-9.57,0-19.14c0-.38,0-0.38.38-0.38s0.78,0,1.17,0,0.3,0.08.3,0.31c0,0.66,0,1.32,0,2v0.29l0.07,0,0.28-.33a6.63,6.63,0,0,1,4-2.5,7.55,7.55,0,0,1,8.94,6.72,7.64,7.64,0,0,1-4.39,7.78,7.25,7.25,0,0,1-8.13-1.45C220.44,51.39,220.17,51.2,219.92,51ZM231.4,46.1a5.79,5.79,0,0,0-1.13-3.51A5.59,5.59,0,0,0,225,40.2a5.24,5.24,0,0,0-2.92,1.11,5.94,5.94,0,0,0-2.23,6,5.77,5.77,0,0,0,7,4.65A6,6,0,0,0,231.4,46.1Z" transform="translate(-122.15 -17.83)"/><path class="cls-1" d="M252.8,34.87c-0.4-.11-0.76-0.23-1.12-0.32a2.06,2.06,0,0,0-1.51.16,1,1,0,0,0-.54.88c0,1,0,1.93-.05,2.89a0.27,0.27,0,0,0,.34.33h2.42a0.24,0.24,0,0,1,.3.3c0,0.33,0,.67,0,1a0.22,0.22,0,0,1-.27.27h-2.42c-0.37,0-.37,0-0.37.36q0,6.09,0,12.17a0.63,0.63,0,0,1,0,.25,0.34,0.34,0,0,1-.19.19c-0.46,0-.93,0-1.39,0a0.18,0.18,0,0,1-.21-0.22c0-.08,0-0.17,0-0.25q0-6.06,0-12.11c0-.4,0-0.4-0.39-0.4H246.1c-0.2,0-.29,0-0.28-0.26s0-.71,0-1.06a0.21,0.21,0,0,1,.26-0.25h1.28c0.4,0,.41,0,0.41-0.39,0-.84,0-1.67,0-2.51a6.47,6.47,0,0,1,.13-1.21A2.43,2.43,0,0,1,250,32.84a6.31,6.31,0,0,1,2.63.25,0.29,0.29,0,0,1,.19.16C252.81,33.79,252.8,34.32,252.8,34.87Z" transform="translate(-122.15 -17.83)"/><path class="cls-1" d="M185.39,40.39l-1.24,1.08c-0.16-.13-0.39-0.33-0.64-0.52a4,4,0,0,0-2-.83A2.23,2.23,0,0,0,179,42a2,2,0,0,0,.83,1.77A17.17,17.17,0,0,0,181.78,45a12.24,12.24,0,0,1,2.45,1.63A3.64,3.64,0,0,1,185.38,50a4.11,4.11,0,0,1-3.71,3.65,5.34,5.34,0,0,1-4.75-1.8,0.23,0.23,0,0,1,0-.37c0.33-.35.64-0.72,1-1.16a3.75,3.75,0,0,0,.3.39A4,4,0,0,0,180.66,52a2.74,2.74,0,0,0,3-1.93,2,2,0,0,0-.58-2.07,13.59,13.59,0,0,0-1.71-1.18c-0.76-.48-1.57-0.89-2.31-1.39a3.66,3.66,0,0,1-1.64-3,3.76,3.76,0,0,1,3.35-3.91,5.27,5.27,0,0,1,4.12,1.43l0.42,0.37Z" transform="translate(-122.15 -17.83)"/><path class="cls-1" d="M235.85,43.24c0-3.24,0-6.48,0-9.72,0-.29.09-0.37,0.36-0.36s0.8,0,1.2,0a0.2,0.2,0,0,1,.25.24c0,0.07,0,.15,0,0.22q0,9.63,0,19.27c0,0.46,0,.46-0.47.46s-0.65,0-1,0-0.36-.06-0.36-0.35c0-2,0-4.08,0-6.13V43.24Z" transform="translate(-122.15 -17.83)"/><path class="cls-1" d="M243.6,46.08c0,2.31,0,4.62,0,6.94,0,0.27-.08.36-0.34,0.34a10.45,10.45,0,0,0-1.2,0c-0.29,0-.31-0.12-0.31-0.35q0-5.78,0-11.56c0-.79,0-1.58,0-2.37A0.23,0.23,0,0,1,242,38.8c0.42,0,.84,0,1.25,0,0.25,0,.31.08,0.31,0.32C243.6,41.44,243.6,43.76,243.6,46.08Z" transform="translate(-122.15 -17.83)"/><path class="cls-1" d="M256.92,46.09c0,2.31,0,4.62,0,6.94,0,0.27-.08.36-0.35,0.34a10.48,10.48,0,0,0-1.17,0c-0.28,0-.34-0.08-0.34-0.35q0-6,0-12c0-.65,0-1.3,0-2a0.23,0.23,0,0,1,.29-0.29c0.42,0,.84,0,1.25,0,0.25,0,.31.08,0.31,0.32C256.92,41.44,256.92,43.76,256.92,46.09Z" transform="translate(-122.15 -17.83)"/><path class="cls-1" d="M187.86,46.09q0-3.45,0-6.91c0-.37,0-0.37.36-0.37s0.76,0,1.14,0a0.24,0.24,0,0,1,.3.3c0,1.28,0,2.56,0,3.84q0,5,0,10.06c0,0.28-.06.38-0.35,0.36a10,10,0,0,0-1.14,0c-0.25,0-.32-0.07-0.32-0.32,0-1.39,0-2.79,0-4.18Q187.86,47.48,187.86,46.09Z" transform="translate(-122.15 -17.83)"/><path class="cls-1" d="M244.17,34.3a1.5,1.5,0,1,1-3,0,1.52,1.52,0,0,1,1.48-1.52A1.49,1.49,0,0,1,244.17,34.3Z" transform="translate(-122.15 -17.83)"/><path class="cls-1" d="M257.49,34.3A1.47,1.47,0,0,1,256,35.81a1.51,1.51,0,0,1,0-3A1.47,1.47,0,0,1,257.49,34.3Z" transform="translate(-122.15 -17.83)"/><path class="cls-1" d="M187.25,34.29a1.48,1.48,0,0,1,1.5-1.5,1.51,1.51,0,1,1,0,3A1.48,1.48,0,0,1,187.25,34.29Z" transform="translate(-122.15 -17.83)"/><path class="cls-1" d="M261,35.22v-0.9q0-.14,0-0.28c0-.52,0-0.52-0.51-0.57a0.7,0.7,0,0,1-.15-0.05,2.38,2.38,0,0,1,1.56,0,3.9,3.9,0,0,1-.44,0,0.23,0.23,0,0,0-.28.27c0,0.42,0,.83,0,1.25a1.23,1.23,0,0,1-.06.25Z" transform="translate(-122.15 -17.83)"/><path class="cls-1" d="M153.26,62.34a17.36,17.36,0,1,1,17.36-17.28A17.35,17.35,0,0,1,153.26,62.34ZM153,53.55l-4.33-6.76c0.35-.11.66-0.19,0.95-0.31a5.32,5.32,0,0,0,3.1-5.19,5.52,5.52,0,0,0-1.12-3.15A4.73,4.73,0,0,0,147.68,36h-7.1c-0.2,0-.3.06-0.28,0.27s0,0.13,0,.19q0,8.3,0,16.61c0,0.07,0,.15,0,0.22a0.21,0.21,0,0,0,.25.25h0.72c0.39,0,.39,0,0.39-0.38,0-2,0-3.9,0-5.85A0.28,0.28,0,0,1,142,47q2.44,0,4.88,0a0.57,0.57,0,0,1,.56.31q1.91,3,3.85,6a0.5,0.5,0,0,0,.24.25C152,53.56,152.46,53.55,153,53.55Zm1.92-8.78q0,4.18,0,8.36c0,0.43,0,.43.43,0.43h10.48c0.83,0,.83,0,0.83-0.84,0-.41,0-0.41-0.42-0.41h-9.58a0.29,0.29,0,0,1-.36-0.36c0-2.15,0-4.29,0-6.44,0-.36,0-0.36.38-0.36h7.72c0.78,0,.78,0,0.78-0.79,0-.37,0-0.37-0.37-0.37h-8.16a0.28,0.28,0,0,1-.34-0.35c0-2,0-4,0-6,0-.37,0-0.37.37-0.37h8.94c0.84,0,.84,0,0.83-0.84,0-.38,0-0.38-0.39-0.38H155.35c-0.4,0-.4,0-0.4.42Q154.95,40.61,154.95,44.78Z" transform="translate(-122.15 -17.83)"/><path class="cls-1" d="M141.67,41.47c0-1.31,0-2.62,0-3.93a0.25,0.25,0,0,1,.3-0.3c1.78,0,3.57,0,5.35,0a3.74,3.74,0,0,1,3.21,1.63,4.52,4.52,0,0,1-.81,6.17,3.22,3.22,0,0,1-2,.69H142a0.27,0.27,0,0,1-.33-0.33C141.68,44.09,141.67,42.78,141.67,41.47Z" transform="translate(-122.15 -17.83)"/></svg>