<?xml version="1.0" encoding="utf-8"?>
<!-- Generator: Adobe Illustrator 19.2.1, SVG Export Plug-In . SVG Version: 6.00 Build 0)  -->
<svg version="1.1" xmlns="http://www.w3.org/2000/svg" xmlns:xlink="http://www.w3.org/1999/xlink" x="0px" y="0px"
	 viewBox="0 0 141.9 52" style="enable-background:new 0 0 141.9 52;" xml:space="preserve">
<style type="text/css">
	.st0{fill:#FFFFFF;}
</style>
<g id="Layer_1">
	<title>logo-light</title>
	<path class="st0" d="M22.6,0L22.9,0c4.7,0.2,9.2,2,12.9,5c0.4,0.3,0.7,0.6,1,0.9c0.1,0.1,0.2,0.2,0.4,0.2c5.1,1.5,9.5,4.8,12.4,9.4
		c1.5,2.4,2.6,5.1,3,7.9c0.2,1,0.2,1.9,0.3,2.9c0.2,5.2-1.5,10.4-4.8,14.4c-3,3.8-7.3,6.4-12,7.5c-0.8,0.2-1.5,0.3-2.3,0.4
		c-0.1,0-0.2,0.1-0.4,0.1c-2.2,1.3-4.7,2.3-7.3,2.7c-0.9,0.2-1.8,0.2-2.7,0.3c-0.1,0-0.3,0-0.4,0.1h-1.6l-0.3-0.1
		c-0.8-0.1-1.5-0.1-2.3-0.2c-2.1-0.3-4.1-0.9-6-1.8C7.8,47.4,3.9,43.2,2,38c-0.8-2.1-1.3-4.3-1.4-6.5c-0.1-1.3,0.1-2.6,0.1-3.9
		c0-0.2,0-0.5,0-0.7c-0.3-1.3-0.5-2.7-0.6-4c0-0.1,0-0.2-0.1-0.3v-1.6c0-0.1,0.1-0.2,0.1-0.4c0-1.3,0.2-2.6,0.5-3.9
		C2.8,7.4,11,0.5,20.8,0L21.1,0C21.1,0,22.6,0,22.6,0z M31.7,7.8c-10.9,0.1-20.1,9.6-19.5,20.6c0.6,9.7,8.9,17.6,18.6,18.1
		c11,0.5,20.1-8.3,20.1-19.2C50.8,16.8,42.2,7.9,31.7,7.8L31.7,7.8z M26.5,48.5l-0.3-0.1l-2.6-0.8c-0.2-0.1-0.4-0.1-0.6-0.1
		c-1.2,0-2.4,0-3.6-0.2c-8-1.4-13.9-8-14.4-16.1c-0.1-1.7,0-3.4,0.5-5c1-4.1,3.4-7.7,6.8-10.1c0.2-0.1,0.3-0.3,0.4-0.4l1.6-2.3
		l0.1-0.2C5.1,17.6,1.1,28.9,5.6,38.2C9.4,46.1,18,50.3,26.5,48.5L26.5,48.5L26.5,48.5z M30.9,5.3c-9.1-5-20.5-1.7-25.5,7.4
		c0,0,0,0,0,0C5.1,13,5,13.3,4.8,13.6c-0.9,1.9-1.5,3.9-1.7,6c0.1-0.1,0.1-0.1,0.2-0.2l1.8-2.6c0.1-0.2,0.2-0.3,0.3-0.5
		c0.8-2.5,2.2-4.7,4-6.6c3.6-3.8,8.8-5.7,14-5.2c1.5,0.1,3,0.5,4.4,1c0.1,0,0.2,0.1,0.4,0.1l1.6-0.2L30.9,5.3z"/>
	<path class="st0" d="M82.3,25.1l0.2-0.3c0.8-1.5,2.1-2.5,3.7-3c1.9-0.6,3.9,0,5.1,1.5c0.6,0.7,0.9,1.6,1,2.5
		c0.1,0.7,0.2,1.4,0.2,2.2c0,2.8,0,5.5,0.1,8.3c0,0.1,0,0.3-0.2,0.3c-0.1,0-0.1,0-0.2,0H91c-0.4,0-0.3-0.1-0.3-0.3v-7.8
		c0-1-0.1-1.9-0.3-2.8c-0.4-1.3-1.5-2.2-2.8-2.2c-2.5-0.2-4.6,1.7-4.9,4.1c-0.1,1.1-0.2,2.2-0.2,3.3v5.4c0,0.3-0.1,0.4-0.3,0.3
		c-0.4,0-0.8,0-1.1,0c-0.1,0-0.3,0-0.3-0.2c0,0,0-0.1,0-0.2v-7.6c0-1-0.1-1.9-0.3-2.9c-0.3-1.3-1.5-2.2-2.8-2.3
		c-2.3-0.1-4.4,1.5-4.8,3.8c-0.2,0.9-0.2,1.9-0.3,2.8v6.1c0,0.2-0.1,0.3-0.3,0.3H71c-0.1,0-0.2,0-0.3-0.1c0,0,0-0.1,0-0.1
		c0,0,0-0.1,0-0.1V22.3c0-0.4,0-0.4,0.4-0.4h1.1c0.1-0.1,0.3,0,0.3,0.2c0,0.1,0,0.1,0,0.2v1.9c0,0.1,0,0.2,0,0.3l0.3-0.4
		c0.8-1.2,2.1-2.1,3.5-2.4c1.6-0.4,3.4,0,4.6,1.2c0.5,0.5,0.9,1.1,1.1,1.8L82.3,25.1z"/>
	<path class="st0" d="M97.8,34.1v7.4c0,0.3-0.1,0.4-0.3,0.3s-0.8,0-1.3,0c-0.1,0-0.2,0-0.2-0.1c0,0,0-0.1,0-0.1V22.3
		c0-0.4,0-0.4,0.4-0.4h1.2c0.4,0,0.3,0.1,0.3,0.3v2.3h0.1l0.3-0.3c1-1.3,2.4-2.2,4-2.5c4.1-0.8,8.1,1.9,8.8,6c0,0,0,0,0,0
		c0,0.2,0.1,0.5,0.1,0.7c0.4,3.3-1.4,6.4-4.4,7.8c-2.7,1.3-6,0.7-8.1-1.5C98.3,34.5,98,34.3,97.8,34.1z M109.2,29.2
		c0-1.3-0.4-2.5-1.1-3.5c-1.2-1.7-3.2-2.6-5.3-2.4c-1.1,0.1-2.1,0.5-2.9,1.1c-1.8,1.4-2.7,3.7-2.2,6c0.5,3.1,3.5,5.3,6.7,4.7
		c0,0,0,0,0,0l0.3-0.1C107.4,34.4,109.3,32,109.2,29.2z"/>
	<path class="st0" d="M130.6,18c-0.4-0.1-0.8-0.2-1.1-0.3c-0.5-0.1-1-0.1-1.5,0.2c-0.3,0.2-0.5,0.5-0.5,0.9c0,1,0,1.9-0.1,2.9
		c0,0.1,0,0.3,0.2,0.3c0,0,0.1,0,0.2,0h2.4c0.1,0,0.3,0,0.3,0.2c0,0,0,0.1,0,0.1v1c0,0.1,0,0.2-0.2,0.3c0,0-0.1,0-0.1,0h-2.4
		c-0.4,0-0.4,0-0.4,0.4v12.2c0,0.1,0,0.2,0,0.2c0,0.1-0.1,0.2-0.2,0.2h-1.4c-0.1,0-0.2,0-0.2-0.1c0,0,0-0.1,0-0.1V36
		c0-4,0-8.1,0-12.1c0-0.4,0-0.4-0.4-0.4H124c-0.2,0-0.3,0-0.3-0.3s0-0.7,0-1.1c0-0.1,0-0.2,0.2-0.2h1.4c0.4,0,0.4,0,0.4-0.4V19
		c0-0.4,0-0.8,0.1-1.2c0.2-1,1.1-1.7,2.1-1.9c0.9-0.1,1.8,0,2.6,0.2c0.1,0,0.2,0.1,0.2,0.2C130.7,17,130.6,17.5,130.6,18z"/>
	<path class="st0" d="M63.2,23.5L62,24.6c-0.2-0.1-0.4-0.3-0.6-0.5c-0.6-0.5-1.3-0.7-2-0.8c-1.2-0.2-2.3,0.7-2.5,1.9
		c-0.1,0.7,0.3,1.4,0.8,1.8c0.6,0.5,1.3,0.9,2,1.2c0.9,0.4,1.7,1,2.5,1.6c0.9,0.8,1.4,2.1,1.2,3.4c-0.2,1.9-1.8,3.5-3.7,3.7
		c-1.8,0.2-3.6-0.4-4.8-1.8c-0.1-0.1-0.1-0.2,0-0.3l0,0c0.3-0.3,0.6-0.7,1-1.2c0.1,0.1,0.2,0.3,0.3,0.4c0.6,0.7,1.5,1.2,2.4,1.3
		c1.3,0.2,2.6-0.6,3-1.9c0.2-0.7,0-1.6-0.6-2.1c-0.5-0.4-1.1-0.8-1.7-1.2c-0.8-0.5-1.6-0.9-2.3-1.4c-1-0.7-1.6-1.8-1.6-3
		c-0.1-2,1.4-3.7,3.3-3.9c1.5-0.1,3,0.4,4.1,1.4L63.2,23.5L63.2,23.5z"/>
	<path class="st0" d="M113.7,26.4v-9.7c0-0.3,0.1-0.4,0.4-0.4h1.2c0.1,0,0.2,0,0.2,0.1c0,0,0,0.1,0,0.1v0.2c0,6.4,0,12.8,0,19.3
		c0,0.5,0,0.5-0.5,0.5h-1c-0.3,0-0.4-0.1-0.4-0.3L113.7,26.4L113.7,26.4L113.7,26.4z"/>
	<path class="st0" d="M121.4,29.2v6.9c0,0.3-0.1,0.4-0.3,0.3c-0.4,0-0.8,0-1.2,0c-0.3,0-0.3-0.1-0.3-0.3V22.2c0-0.1,0-0.2,0.2-0.3
		c0,0,0,0,0,0h1.3c0.2,0,0.3,0.1,0.3,0.3C121.4,24.6,121.4,26.9,121.4,29.2z"/>
	<path class="st0" d="M134.8,29.2v6.9c0,0.3-0.1,0.4-0.4,0.3c-0.4,0-0.8,0-1.2,0c-0.3,0-0.3-0.1-0.3-0.3v-14c0-0.1,0-0.3,0.1-0.3
		c0,0,0.1,0,0.1,0h1.2c0.2,0,0.3,0.1,0.3,0.3C134.8,24.6,134.8,26.9,134.8,29.2z"/>
	<path class="st0" d="M65.7,29.2v-6.9c0-0.4,0-0.4,0.4-0.4h1.1c0.1,0,0.3,0,0.3,0.2c0,0,0,0.1,0,0.1v3.8c0,3.3,0,6.7,0,10.1
		c0,0.3-0.1,0.4-0.3,0.4c-0.4,0-0.8,0-1.1,0c-0.1,0-0.3,0-0.3-0.2c0,0,0-0.1,0-0.1V32C65.7,31.1,65.7,30.2,65.7,29.2z"/>
	<path class="st0" d="M122,17.4c0,0.8-0.7,1.5-1.5,1.5s-1.5-0.7-1.5-1.5c0-0.8,0.7-1.5,1.5-1.5C121.3,15.9,122,16.6,122,17.4
		C122,17.4,122,17.4,122,17.4C122,17.4,122,17.4,122,17.4z"/>
	<path class="st0" d="M135.3,17.4c0,0.8-0.6,1.5-1.4,1.5c0,0,0,0,0,0h-0.1c-0.8-0.1-1.4-0.8-1.3-1.7c0.1-0.7,0.6-1.2,1.3-1.3
		C134.7,16,135.3,16.6,135.3,17.4C135.3,17.4,135.3,17.4,135.3,17.4C135.3,17.4,135.3,17.4,135.3,17.4z"/>
	<path class="st0" d="M65.1,17.4c0-0.8,0.7-1.4,1.5-1.5l0,0c0.8-0.1,1.6,0.5,1.7,1.3c0.1,0.8-0.5,1.6-1.3,1.7c-0.1,0-0.2,0-0.3,0
		C65.7,19,65.1,18.3,65.1,17.4C65.1,17.5,65.1,17.5,65.1,17.4C65.1,17.5,65.1,17.4,65.1,17.4z"/>
	<path class="st0" d="M31.5,44.5c-9.6,0-17.4-7.8-17.4-17.4S22,9.8,31.5,9.8s17.4,7.8,17.4,17.4v0v0.1
		C48.9,36.8,41.1,44.5,31.5,44.5z M31.3,35.8L27,29c0.4-0.1,0.7-0.2,1-0.3c2-0.9,3.2-3,3.1-5.2c0-1.1-0.4-2.2-1.1-3.1
		c-0.9-1.3-2.3-2.1-3.9-2.1h-7.1c-0.2,0-0.3,0.1-0.3,0.3c0,0.1,0,0.1,0,0.2v16.8c0,0.1,0,0.2,0.2,0.2h0.8c0.4,0,0.4,0,0.4-0.4v-5.9
		c0-0.2,0.1-0.3,0.2-0.3h5c0.2,0,0.5,0.1,0.6,0.3c1.3,2,2.6,4,3.9,6c0,0.1,0.1,0.2,0.2,0.2L31.3,35.8L31.3,35.8z M33.2,27v8.4
		c0,0.4,0,0.4,0.4,0.4h10.5c0.8,0,0.8,0,0.8-0.8c0-0.4,0-0.4-0.4-0.4h-9.6c-0.2,0-0.3,0-0.4-0.2c0-0.1,0-0.1,0-0.2v-6.4
		c0-0.4,0-0.4,0.4-0.4h7.7c0.8,0,0.8,0,0.8-0.8c0-0.4,0-0.4-0.4-0.4h-8.2c-0.1,0-0.3,0-0.3-0.2c0,0,0-0.1,0-0.2v-6
		c0-0.4,0-0.4,0.4-0.4h8.9c0.8,0,0.8,0,0.8-0.8c0-0.4,0-0.4-0.4-0.4H33.6c-0.4,0-0.4,0-0.4,0.4C33.2,21.4,33.2,24.2,33.2,27L33.2,27
		L33.2,27z"/>
	<path class="st0" d="M20.1,23.8v-3.9c0-0.1,0.1-0.3,0.2-0.3c0,0,0,0,0,0h5.5c1.3-0.1,2.5,0.5,3.2,1.6c1.4,1.9,1.1,4.7-0.8,6.2
		c-0.6,0.4-1.3,0.7-2,0.7h-5.7c-0.1,0-0.3,0-0.3-0.2c0,0,0-0.1,0-0.1C20.1,26.4,20.1,25.1,20.1,23.8z"/>
	<g>
		<path class="st0" d="M140.9,17.6c0,1.1-0.9,2-2,2c-1.1,0-2-0.9-2-2c0-1.1,0.9-2,2-2C140.1,15.6,140.9,16.5,140.9,17.6z
			 M137.4,17.6c0,0.9,0.6,1.6,1.5,1.6c0.9,0,1.5-0.7,1.5-1.6c0-0.9-0.6-1.6-1.5-1.6C138.1,16,137.4,16.7,137.4,17.6z M138.6,18.6
			h-0.5v-2c0.2,0,0.4-0.1,0.8-0.1c0.4,0,0.5,0.1,0.7,0.1c0.1,0.1,0.2,0.2,0.2,0.4c0,0.2-0.2,0.4-0.4,0.5v0c0.2,0.1,0.3,0.2,0.4,0.5
			c0.1,0.3,0.1,0.4,0.1,0.5h-0.5c-0.1-0.1-0.1-0.3-0.2-0.5c0-0.2-0.2-0.3-0.4-0.3h-0.2V18.6z M138.6,17.5h0.2c0.3,0,0.5-0.1,0.5-0.3
			c0-0.2-0.1-0.3-0.4-0.3c-0.1,0-0.2,0-0.3,0V17.5z"/>
	</g>
</g>
<g id="Layer_2">
</g>
</svg>
