<?xml version="1.0" encoding="utf-8"?>
<!-- Generator: Adobe Illustrator 19.2.1, SVG Export Plug-In . SVG Version: 6.00 Build 0)  -->
<svg version="1.1" id="Layer_1" xmlns="http://www.w3.org/2000/svg" xmlns:xlink="http://www.w3.org/1999/xlink" x="0px" y="0px"
	 viewBox="0 0 602.4 371.8" style="enable-background:new 0 0 602.4 371.8;" xml:space="preserve">
<style type="text/css">
	.st0{fill:#FFFFFF;}
	.st1{fill:#265B80;}
	.st2{font-family:'MyriadPro-Regular';}
	.st3{font-size:24px;}
</style>
<title>mac-pro</title>
<g>
	<g id="Layer_1_1_">
		<g id="ducHfx">
			
				<image style="overflow:visible;enable-background:new    ;" width="1284" height="793" id="ducHfx-2" xlink:href="DF29F834D5E36BA.jpg"  transform="matrix(0.4685 0 0 0.4682 0.423 0.2587)">
			</image>
		</g>
		<rect x="98.8" y="47.4" class="st0" width="406.8" height="253.4"/>
		<path class="st1" d="M200.4,120.6c0.2,0.1,0.4,0.1,0.6,0.2c9.7,0.4,19,4.1,26.5,10.4c0.7,0.6,1.4,1.3,2.2,1.9
			c0.2,0.2,0.5,0.3,0.7,0.4c10.6,3.1,19.6,9.9,25.4,19.2c3.2,4.9,5.3,10.5,6.2,16.3c0.3,2,0.5,4,0.6,6c0.5,10.8-3.1,21.4-10,29.7
			c-6.2,7.8-14.9,13.2-24.7,15.4c-1.5,0.4-3.1,0.6-4.7,0.8c-0.3,0-0.5,0.1-0.7,0.3c-4.6,2.7-9.7,4.6-14.9,5.5
			c-1.8,0.3-3.7,0.4-5.6,0.6c-0.3,0-0.5,0.1-0.8,0.2H198c-0.2-0.1-0.3-0.1-0.5-0.1c-1.6-0.2-3.2-0.3-4.8-0.5
			c-4.3-0.6-8.5-1.9-12.5-3.8c-10.3-4.9-18.4-13.6-22.5-24.3c-1.7-4.3-2.7-8.8-2.9-13.3c-0.1-2.7,0.1-5.4,0.2-8.1
			c0.1-0.5,0.1-0.9,0-1.4c-0.6-2.7-1-5.5-1.2-8.3c0-0.2-0.1-0.4-0.1-0.5V164c0.1-0.2,0.1-0.5,0.1-0.7c0.1-2.7,0.5-5.4,1.1-8
			c4.6-19.5,21.5-33.5,41.5-34.5c0.2,0,0.4-0.1,0.6-0.1L200.4,120.6L200.4,120.6z M217.9,137.7c-21.4,0-38.7,17.4-38.7,38.8
			s17.4,38.7,38.8,38.7c21.3,0,38.6-17.2,38.7-38.5c0.2-21.3-17-38.7-38.3-38.9C218.2,137.8,218,137.8,217.9,137.7L217.9,137.7z
			 M208.4,220.4l-0.6-0.2c-1.8-0.5-3.6-1.1-5.4-1.6c-0.4-0.1-0.8-0.2-1.3-0.2c-2.5,0.1-5-0.1-7.4-0.5c-16.4-2.8-28.7-16.6-29.7-33.2
			c-0.2-3.5,0.1-7,1-10.4c2-8.4,7-15.7,14-20.7c0.3-0.2,0.6-0.5,0.8-0.9c1.1-1.5,2.3-3.1,3.4-4.7c0.1-0.1,0.2-0.3,0.3-0.5
			c-19.4,9-27.8,32-18.8,51.4C172.5,215.5,190.7,224.4,208.4,220.4L208.4,220.4z M217.4,131.6c-8.9-5.3-23.9-7.5-37.2-0.2
			c-7.1,3.9-12.9,9.9-16.4,17.2c-1.9,3.9-3.1,8.1-3.5,12.4c0.2-0.1,0.3-0.3,0.4-0.5c1.2-1.8,2.4-3.6,3.6-5.4
			c0.2-0.3,0.4-0.7,0.5-1.1c1.7-5.1,4.5-9.7,8.3-13.5c7.5-7.8,18-11.7,28.8-10.6c3.1,0.3,6.2,0.9,9.1,2c0.2,0.1,0.5,0.1,0.7,0.1
			c1.1-0.1,2.2-0.2,3.3-0.3C215.8,131.7,216.5,131.7,217.4,131.6L217.4,131.6z"/>
		<path class="st1" d="M323.1,170.2c0.2-0.3,0.3-0.5,0.4-0.7c1.6-3,4.4-5.2,7.6-6.1c4.1-1.1,7.7-0.3,10.6,3.1c1.2,1.5,2,3.3,2.2,5.2
			c0.2,1.5,0.3,3,0.4,4.4c0.1,5.7,0.1,11.3,0.1,17c0.1,0.3-0.1,0.6-0.4,0.6c-0.1,0-0.2,0-0.3,0c-0.8,0-1.6,0-2.5,0
			c-0.5,0-0.7-0.2-0.7-0.7c0-5.3,0.1-10.6,0-15.9c0-2-0.2-3.9-0.6-5.8c-0.5-2.5-3.1-4.4-5.7-4.6c-5.1-0.3-9.5,3.5-10,8.5
			c-0.3,2.3-0.4,4.5-0.5,6.8c-0.1,3.7,0,7.4,0,11.1c0,0.5-0.2,0.7-0.7,0.7c-0.8,0-1.6,0-2.3,0c-0.5,0-0.7-0.2-0.7-0.7
			c0-5.2,0.1-10.5,0-15.7c0-2-0.2-4-0.6-5.9c-0.7-2.7-3-4.6-5.8-4.8c-4.8-0.3-9.1,3.1-9.9,7.9c-0.3,1.9-0.5,3.9-0.6,5.9
			c-0.1,4.2,0,8.4,0,12.6c0,0.5-0.1,0.7-0.7,0.7c-0.8,0-1.7,0-2.5,0c-0.2,0.1-0.5-0.1-0.5-0.3c0-0.1,0-0.2,0-0.2c0-0.1,0-0.2,0-0.3
			c0-9.4,0-18.9,0-28.3c0-0.8,0-0.8,0.8-0.8s1.5,0,2.2,0c0.3-0.1,0.6,0.1,0.7,0.3c0,0.1,0,0.2,0,0.3c0,1.3,0,2.6,0,3.9
			c0,0.2,0,0.4,0.1,0.6c0.2-0.3,0.4-0.5,0.6-0.7c1.7-2.5,4.3-4.3,7.2-5c3.3-0.9,6.9,0.1,9.4,2.4c1,1,1.8,2.3,2.3,3.7
			C322.8,169.6,322.9,169.8,323.1,170.2z"/>
		<path class="st1" d="M355,188.8v0.6c0,4.9,0,9.7,0,14.6c0,0.5-0.1,0.8-0.7,0.7c-0.9,0-1.8,0-2.6,0c-0.2,0.1-0.4-0.1-0.5-0.3
			c0-0.1,0-0.1,0-0.2c0-0.1,0-0.2,0-0.3c0-13.1,0-26.2,0-39.4c0-0.8,0-0.8,0.8-0.8s1.6,0,2.4,0c0.5,0,0.6,0.2,0.6,0.6
			c0,1.4,0,2.7,0,4.1v0.6h0.1l0.6-0.7c2-2.7,4.9-4.5,8.2-5.1c8.4-1.6,16.6,3.9,18.2,12.3c0.1,0.5,0.2,1,0.2,1.6
			c0.7,6.7-2.9,13.2-9,16c-5.7,2.6-12.3,1.4-16.7-3C356,189.7,355.5,189.3,355,188.8z M378.6,178.8c0-2.6-0.8-5.1-2.3-7.2
			c-2.4-3.5-6.6-5.5-10.8-5c-2.2,0.1-4.3,0.9-6,2.3c-4,3.2-5.3,7.3-4.6,12.2c1.1,7.2,8.4,11,14.3,9.6
			C374.7,189.4,378.6,184.4,378.6,178.8L378.6,178.8z"/>
		<path class="st1" d="M422.6,155.7c-0.8-0.2-1.6-0.5-2.3-0.7c-1-0.3-2.2-0.2-3.1,0.3c-0.7,0.3-1.1,1-1.1,1.8c0,2,0,4-0.1,6
			c-0.1,0.3,0.1,0.6,0.4,0.7c0.1,0,0.2,0,0.3,0c1.7,0,3.3,0,5,0c0.3-0.1,0.5,0.1,0.6,0.3c0,0.1,0,0.2,0,0.3c0,0.7,0,1.4,0,2.1
			c0.1,0.2-0.1,0.5-0.3,0.6c-0.1,0-0.2,0-0.3,0c-1.7,0-3.3,0-5,0c-0.8,0-0.8,0-0.8,0.8c0,8.3,0,16.7,0,25c0,0.2,0,0.3,0,0.5
			c-0.1,0.2-0.2,0.3-0.4,0.4c-1,0-1.9,0-2.9,0c-0.2,0-0.4-0.1-0.4-0.3c0-0.1,0-0.1,0-0.2c0-0.2,0-0.3,0-0.5c0-8.3,0-16.6,0-24.9
			c0-0.8,0-0.8-0.8-0.8s-1.8,0-2.6,0c-0.4,0-0.6-0.1-0.6-0.5c0-0.7,0-1.5,0-2.2c-0.1-0.2,0.1-0.5,0.3-0.5c0.1,0,0.2,0,0.2,0
			c0.9,0,1.8,0,2.6,0s0.8,0,0.8-0.8c0-1.7,0-3.4,0-5.2c0-0.8,0.1-1.7,0.3-2.5c0.5-2,2.2-3.5,4.2-3.8c1.8-0.2,3.7,0,5.4,0.5
			c0.2,0,0.3,0.2,0.4,0.3C422.6,153.4,422.6,154.6,422.6,155.7z"/>
		<path class="st1" d="M284,167l-2.5,2.2c-0.3-0.3-0.8-0.7-1.3-1.1c-1.2-0.9-2.6-1.5-4.1-1.7c-2.5-0.3-4.8,1.5-5.1,4l0,0
			c-0.1,1.4,0.5,2.8,1.7,3.6c1.3,0.9,2.6,1.7,3.9,2.5c1.8,0.9,3.5,2,5,3.3c1.9,1.7,2.8,4.3,2.4,6.9c-0.4,4-3.6,7.1-7.6,7.5
			c-3.7,0.5-7.4-0.9-9.8-3.7c-0.2-0.2-0.3-0.4-0.1-0.7l0.1-0.1c0.7-0.7,1.3-1.5,2.1-2.4c0.2,0.3,0.4,0.5,0.6,0.8
			c1.3,1.4,3.1,2.3,5,2.6c2.7,0.4,5.3-1.3,6.1-4c0.5-1.5,0-3.2-1.2-4.2c-1.1-0.9-2.3-1.7-3.5-2.4c-1.6-1-3.2-1.8-4.7-2.9
			c-2.1-1.4-3.4-3.7-3.4-6.2c-0.2-4.1,2.9-7.6,6.9-8c3.3-0.4,6,0.9,8.5,3c0.3,0.2,0.6,0.5,0.9,0.8C283.8,166.9,283.9,166.9,284,167z
			"/>
		<path class="st1" d="M387.7,172.9c0-6.7,0-13.3,0-20c0-0.6,0.2-0.8,0.8-0.7c0.8,0,1.6,0,2.5,0c0.2-0.1,0.4,0.1,0.5,0.3
			c0,0.1,0,0.1,0,0.2c0,0.2,0,0.3,0,0.5c0,13.2,0,26.4,0,39.6c0,0.9,0,0.9-1,0.9c-0.7,0-1.3,0-2,0s-0.8-0.1-0.8-0.7
			c0-4.2,0-8.4,0-12.6C387.7,177.9,387.7,175.4,387.7,172.9z"/>
		<path class="st1" d="M403.7,178.7c0,4.8,0,9.5,0,14.3c0,0.5-0.2,0.7-0.7,0.7c-0.8,0-1.6,0-2.5,0c-0.6,0-0.6-0.2-0.6-0.7
			c0-7.9,0-15.9,0-23.8c0-1.6,0-3.2,0-4.9c-0.1-0.3,0.1-0.5,0.3-0.6c0.1,0,0.2,0,0.3,0c0.9,0,1.7,0,2.6,0c0.5,0,0.6,0.2,0.6,0.7
			C403.7,169.2,403.7,174,403.7,178.7z"/>
		<path class="st1" d="M431.1,178.7c0,4.8,0,9.5,0,14.3c0,0.6-0.2,0.7-0.7,0.7c-0.8,0-1.6,0-2.4,0c-0.6,0-0.7-0.2-0.7-0.7
			c0-8.2,0-16.4,0-24.6c0-1.3,0-2.7,0-4c-0.1-0.3,0.1-0.5,0.3-0.6c0.1,0,0.2,0,0.3,0c0.9,0,1.7,0,2.6,0c0.5,0,0.6,0.2,0.6,0.7
			C431.1,169.2,431.1,174,431.1,178.7z"/>
		<path class="st1" d="M289,178.7c0-4.7,0-9.5,0-14.2c0-0.8,0-0.8,0.8-0.8s1.6,0,2.3,0c0.3-0.1,0.5,0.1,0.6,0.3c0,0.1,0,0.2,0,0.3
			c0,2.6,0,5.3,0,7.9c0,6.9,0,13.8,0,20.7c0,0.6-0.1,0.8-0.7,0.8c-0.8,0-1.6,0-2.3,0c-0.5,0-0.7-0.1-0.7-0.7c0-2.9,0-5.7,0-8.6
			C289,182.6,289,180.6,289,178.7z"/>
		<path class="st1" d="M404.9,154.5c0.1,1.7-1.2,3.2-2.9,3.3c-1.7,0.1-3.2-1.2-3.3-2.9c0-0.1,0-0.2,0-0.4c0-1.7,1.3-3.1,3-3.1
			C403.4,151.3,404.8,152.7,404.9,154.5C404.9,154.4,404.9,154.4,404.9,154.5z"/>
		<path class="st1" d="M432.2,154.5c0.1,1.7-1.2,3-2.9,3.1h-0.1c-1.7-0.1-3-1.5-3-3.2c0.1-1.6,1.3-2.9,2.9-3c1.7,0,3,1.3,3.1,2.9
			C432.2,154.4,432.2,154.4,432.2,154.5z"/>
		<path class="st1" d="M287.8,154.5c0-1.7,1.3-3.1,3-3.1c0,0,0,0,0.1,0c1.7-0.1,3.2,1.2,3.3,3c0.1,1.7-1.2,3.2-3,3.3
			c-0.1,0-0.2,0-0.3,0c-1.7,0-3-1.3-3-3C287.8,154.6,287.8,154.5,287.8,154.5z"/>
		<path class="st1" d="M217.9,212.2c-19.7,0-35.7-16-35.7-35.7s16-35.7,35.7-35.7s35.7,16,35.7,35.7v0.1
			C253.5,196.3,237.5,212.2,217.9,212.2z M217.3,194.1l-8.9-13.9c0.7-0.2,1.4-0.4,2-0.6c4.8-2,6.5-6.9,6.4-10.7
			c-0.1-2.3-0.9-4.6-2.3-6.5c-1.8-2.7-4.8-4.3-8.1-4.3H199c-2.4,0-4.8,0-7.3,0c-0.4,0-0.6,0.1-0.6,0.5c0,0.1,0,0.3,0,0.4
			c0,11.4,0,22.8,0,34.2c0,0.2,0,0.3,0,0.5s0.1,0.5,0.4,0.5c0.1,0,0.1,0,0.2,0h1.5c0.8,0,0.8,0,0.8-0.8c0-4,0-8,0-12
			c-0.1-0.3,0.1-0.6,0.4-0.7c0.1,0,0.2,0,0.3,0c3.3,0,6.7,0,10,0c0.5,0,0.9,0.2,1.1,0.6c2.6,4.1,5.3,8.2,7.9,12.3
			c0.1,0.2,0.3,0.4,0.5,0.5C215.3,194.1,216.2,194.1,217.3,194.1z M221.3,176.1c0,5.7,0,11.5,0,17.2c0,0.9,0,0.9,0.9,0.9h21.5
			c1.7,0,1.7,0,1.7-1.7c0-0.8,0-0.8-0.9-0.8c-6.6,0-13.1,0-19.7,0c-0.3,0.1-0.7-0.1-0.7-0.4c0-0.1,0-0.2,0-0.3c0-4.4,0-8.8,0-13.2
			c0-0.7,0-0.7,0.8-0.7h15.9c1.6,0,1.6,0,1.6-1.6c0-0.8,0-0.8-0.8-0.8c-5.6,0-11.2,0-16.8,0c-0.3,0.1-0.6-0.1-0.7-0.4
			c0-0.1,0-0.2,0-0.3c0-4.1,0-8.3,0-12.4c0-0.8,0-0.8,0.8-0.8h18.4c1.7,0,1.7,0,1.7-1.7c0-0.8,0-0.8-0.8-0.8h-22.1
			c-0.8,0-0.8,0-0.8,0.8C221.3,164.6,221.3,170.3,221.3,176.1z"/>
		<path class="st1" d="M194,169.3c0-2.7,0-5.4,0-8.1c-0.1-0.3,0.1-0.5,0.3-0.6c0.1,0,0.2,0,0.3,0c3.7,0,7.3,0,11,0
			c2.6-0.1,5.1,1.2,6.6,3.4c2.9,4,2.2,9.6-1.7,12.7c-1.2,0.9-2.6,1.4-4.2,1.4c-3.9,0-7.8,0-11.8,0c-0.3,0.1-0.6-0.1-0.7-0.4
			c0-0.1,0-0.2,0-0.3C194,174.6,194,171.9,194,169.3z"/>
	</g>
</g>
<text transform="matrix(1 0 0 1 436 166.3237)" class="st1 st2 st3">®</text>
</svg>
