<svg id="Layer_1" data-name="Layer 1" xmlns="http://www.w3.org/2000/svg" viewBox="0 0 601.99 531.93"><defs><style>.cls-1{fill:#6fc7b4;}.cls-2{fill:#fff;}.cls-3{fill:#32607a;}.cls-4{fill:#1c75bc;}.cls-5{fill:#f68c67;}</style></defs><title>REsimplifi_infographic_updated</title><circle class="cls-1" cx="301.06" cy="264.48" r="138.68"/><rect class="cls-2" x="269.45" y="215.92" width="104.51" height="130.02"/><path class="cls-1" d="M459.73,388.49H349.22v-136H459.73v136Zm-104.51-6h98.51v-124H355.22v124Z" transform="translate(-82.77 -39.55)"/><rect class="cls-1" x="280.37" y="266.84" width="82.68" height="4"/><rect class="cls-1" x="280.37" y="275.64" width="82.68" height="4"/><rect class="cls-1" x="280.37" y="284.43" width="82.68" height="4"/><rect class="cls-1" x="280.37" y="293.23" width="82.68" height="4"/><rect class="cls-1" x="280.37" y="302.02" width="82.68" height="4"/><rect class="cls-1" x="280.37" y="310.82" width="82.68" height="4"/><rect class="cls-1" x="280.37" y="319.61" width="82.68" height="4"/><rect class="cls-1" x="280.37" y="328.41" width="82.68" height="4"/><rect class="cls-2" x="249.23" y="199.45" width="104.51" height="130.02"/><path class="cls-1" d="M439.5,372H329V236H439.5V372ZM335,366H433.5V242H335V366Z" transform="translate(-82.77 -39.55)"/><rect class="cls-1" x="260.14" y="250.37" width="82.68" height="4"/><rect class="cls-1" x="260.14" y="259.16" width="82.68" height="4"/><rect class="cls-1" x="260.14" y="267.96" width="82.68" height="4"/><rect class="cls-1" x="260.14" y="276.75" width="82.68" height="4"/><rect class="cls-1" x="260.14" y="285.55" width="82.68" height="4"/><rect class="cls-1" x="260.14" y="294.34" width="82.68" height="4"/><rect class="cls-1" x="260.14" y="303.14" width="82.68" height="4"/><rect class="cls-1" x="260.14" y="311.94" width="82.68" height="4"/><rect class="cls-2" x="228.16" y="183.03" width="104.51" height="130.02"/><path class="cls-1" d="M418.43,355.6H307.92v-136H418.43v136Zm-104.51-6h98.51v-124H313.92v124Z" transform="translate(-82.77 -39.55)"/><path class="cls-3" d="M336,236.47a1,1,0,0,0,.18,0,12.07,12.07,0,0,1,7.23,2.84c0.2,0.17.39,0.35,0.59,0.52a0.58,0.58,0,0,0,.2.11,12.17,12.17,0,0,1,6.95,5.25,11.52,11.52,0,0,1,1.69,4.45,13.72,13.72,0,0,1,.16,1.65,11.89,11.89,0,0,1-2.72,8.12,12,12,0,0,1-6.74,4.22c-0.42.1-.85,0.15-1.27,0.23a0.62,0.62,0,0,0-.2.07,12,12,0,0,1-4.08,1.52c-0.5.09-1,.11-1.52,0.17l-0.21,0h-0.88l-0.15,0c-0.43,0-.87-0.07-1.3-0.13a11.27,11.27,0,0,1-3.41-1,12.17,12.17,0,0,1-6.14-6.64,11.25,11.25,0,0,1-.79-3.65c0-.73,0-1.47.05-2.2a1.59,1.59,0,0,0,0-.38,12.13,12.13,0,0,1-.31-2.27,0.65,0.65,0,0,0,0-.14v-0.88a1.14,1.14,0,0,0,0-.19,10.82,10.82,0,0,1,.3-2.17A12.26,12.26,0,0,1,335,236.51a0.91,0.91,0,0,0,.16,0H336Zm4.77,4.68a10.58,10.58,0,1,0,10.59,10.64A10.55,10.55,0,0,0,340.78,241.15Zm-2.57,22.57-0.17-.06-1.48-.44a1.22,1.22,0,0,0-.35-0.06,10.75,10.75,0,0,1-2-.13,9.79,9.79,0,0,1-8.12-9.08,9.17,9.17,0,0,1,.26-2.84,9.74,9.74,0,0,1,3.84-5.67,1.07,1.07,0,0,0,.22-0.23l0.93-1.28,0.08-.13A10.57,10.57,0,0,0,338.21,263.72Zm2.45-24.25A10.57,10.57,0,0,0,326,244.13a9.7,9.7,0,0,0-1,3.37,0.43,0.43,0,0,0,.11-0.12l1-1.48a1.3,1.3,0,0,0,.15-0.29,9.46,9.46,0,0,1,2.27-3.69,9.61,9.61,0,0,1,7.86-2.91,9.42,9.42,0,0,1,2.49.55,0.49,0.49,0,0,0,.2,0l0.9-.08Z" transform="translate(-82.77 -39.55)"/><path class="cls-3" d="M403.06,246.27a0.12,0.12,0,0,1-.12-0.15c0-.19,0-0.39,0-0.58s0-.1,0-0.15h0l-0.06.14-0.22.63a0.36,0.36,0,0,1-.07.09,0.34,0.34,0,0,1-.09-0.09c-0.08-.22-0.15-0.43-0.22-0.65,0-.05,0-0.1-0.07-0.15h-0.05v0.88H402a0.39,0.39,0,0,1,0-.11c0-.29,0-0.57,0-0.86a0.17,0.17,0,0,1,.08-0.12,0.19,0.19,0,0,1,.14.08c0.09,0.24.17,0.48,0.25,0.72l0.06,0.13,0.08-.21c0.06-.18.13-0.35,0.18-0.53a0.23,0.23,0,0,1,.26-0.22v1.13Z" transform="translate(-82.77 -39.55)"/><path class="cls-3" d="M369.53,250l0.11-.18a3.42,3.42,0,0,1,2.08-1.67,2.64,2.64,0,0,1,2.89.83,2.69,2.69,0,0,1,.59,1.41,10.08,10.08,0,0,1,.1,1.21c0,1.55,0,3.1,0,4.65a0.14,0.14,0,0,1-.18.17c-0.22,0-.45,0-0.67,0s-0.2,0-.2-0.19c0-1.45,0-2.9,0-4.35a9,9,0,0,0-.15-1.6,1.73,1.73,0,0,0-1.56-1.26,2.58,2.58,0,0,0-2.74,2.33,18.34,18.34,0,0,0-.13,1.85c0,1,0,2,0,3,0,0.15,0,.2-0.19.19a5.55,5.55,0,0,0-.64,0c-0.15,0-.18,0-0.18-0.19,0-1.43,0-2.86,0-4.29a9.06,9.06,0,0,0-.16-1.61,1.74,1.74,0,0,0-1.57-1.31,2.58,2.58,0,0,0-2.7,2.15,10.42,10.42,0,0,0-.16,1.61c0,1.15,0,2.3,0,3.44,0,0.14,0,.2-0.18.19s-0.46,0-.69,0a0.12,0.12,0,0,1-.14-0.15,0.71,0.71,0,0,0,0-.08q0-3.87,0-7.74c0-.22,0-0.22.22-0.22s0.4,0,.59,0a0.15,0.15,0,0,1,.2.19c0,0.35,0,.71,0,1.06a1.53,1.53,0,0,0,0,.16l0.16-.19a3.29,3.29,0,0,1,2-1.35,2.75,2.75,0,0,1,2.57.66,2.66,2.66,0,0,1,.62,1Z" transform="translate(-82.77 -39.55)"/><path class="cls-3" d="M378.24,255.1v0.16c0,1.33,0,2.66,0,4,0,0.15,0,.2-0.19.2s-0.48,0-.72,0a0.1,0.1,0,0,1-.13-0.13s0-.06,0-0.09q0-5.38,0-10.75c0-.21,0-0.21.22-0.21h0.66c0.13,0,.17,0,0.17.17,0,0.37,0,.74,0,1.11v0.16h0l0.16-.18a3.72,3.72,0,0,1,2.25-1.4,4.24,4.24,0,0,1,5,3.78,4.3,4.3,0,0,1-2.47,4.37,4.07,4.07,0,0,1-4.57-.82C378.54,255.33,378.38,255.22,378.24,255.1Zm6.45-2.74a3.26,3.26,0,0,0-.64-2,3.14,3.14,0,0,0-3-1.34,3,3,0,0,0-1.64.62,3.34,3.34,0,0,0-1.25,3.35,3.24,3.24,0,0,0,3.91,2.61A3.35,3.35,0,0,0,384.69,252.36Z" transform="translate(-82.77 -39.55)"/><path class="cls-3" d="M396.73,246c-0.22-.06-0.42-0.13-0.63-0.18a1.16,1.16,0,0,0-.85.09,0.55,0.55,0,0,0-.31.49c0,0.54,0,1.08,0,1.63a0.15,0.15,0,0,0,.19.19h1.36a0.14,0.14,0,0,1,.17.17c0,0.19,0,.38,0,0.56a0.12,0.12,0,0,1-.15.15h-1.36c-0.21,0-.21,0-0.21.2q0,3.42,0,6.84a0.36,0.36,0,0,1,0,.14,0.19,0.19,0,0,1-.11.11H394a0.1,0.1,0,0,1-.12-0.12s0-.09,0-0.14q0-3.4,0-6.81c0-.22,0-0.22-0.22-0.22H393c-0.11,0-.16,0-0.16-0.15s0-.4,0-0.59a0.12,0.12,0,0,1,.15-0.14h0.72c0.23,0,.23,0,0.23-0.22,0-.47,0-0.94,0-1.41a3.64,3.64,0,0,1,.07-0.68,1.37,1.37,0,0,1,1.16-1,3.55,3.55,0,0,1,1.48.14,0.16,0.16,0,0,1,.11.09C396.73,245.43,396.73,245.73,396.73,246Z" transform="translate(-82.77 -39.55)"/><path class="cls-3" d="M358.84,249.14l-0.7.61-0.36-.29a2.23,2.23,0,0,0-1.11-.47,1.25,1.25,0,0,0-1.4,1.08,1.12,1.12,0,0,0,.47,1,9.65,9.65,0,0,0,1.08.69,6.88,6.88,0,0,1,1.38.92,2,2,0,0,1,.65,1.89,2.31,2.31,0,0,1-2.08,2,3,3,0,0,1-2.67-1,0.13,0.13,0,0,1,0-.21c0.19-.2.36-0.4,0.58-0.65a2.1,2.1,0,0,0,.17.22,2.27,2.27,0,0,0,1.36.7,1.54,1.54,0,0,0,1.67-1.09,1.13,1.13,0,0,0-.32-1.16,7.64,7.64,0,0,0-1-.66c-0.43-.27-0.88-0.5-1.3-0.78a2.06,2.06,0,0,1-.92-1.71,2.11,2.11,0,0,1,1.89-2.2,3,3,0,0,1,2.32.81l0.24,0.21Z" transform="translate(-82.77 -39.55)"/><path class="cls-3" d="M387.2,250.75c0-1.82,0-3.64,0-5.46,0-.16,0-0.21.2-0.2s0.45,0,.67,0a0.11,0.11,0,0,1,.14.14s0,0.08,0,.13q0,5.42,0,10.83c0,0.26,0,.26-0.26.26s-0.37,0-.55,0-0.21,0-.2-0.2c0-1.15,0-2.3,0-3.44v-2.05Z" transform="translate(-82.77 -39.55)"/><path class="cls-3" d="M391.56,252.35c0,1.3,0,2.6,0,3.9,0,0.15,0,.2-0.19.19a5.87,5.87,0,0,0-.67,0c-0.16,0-.18-0.06-0.18-0.2q0-3.25,0-6.5c0-.44,0-0.89,0-1.33a0.13,0.13,0,0,1,.16-0.16c0.23,0,.47,0,0.7,0s0.18,0,.18.18C391.55,249.74,391.56,251,391.56,252.35Z" transform="translate(-82.77 -39.55)"/><path class="cls-3" d="M399,252.35c0,1.3,0,2.6,0,3.9,0,0.15,0,.2-0.19.19a5.89,5.89,0,0,0-.66,0c-0.16,0-.19,0-0.19-0.2q0-3.37,0-6.73c0-.37,0-0.73,0-1.1a0.13,0.13,0,0,1,.16-0.16c0.23,0,.47,0,0.7,0s0.18,0,.18.18C399,249.74,399,251,399,252.35Z" transform="translate(-82.77 -39.55)"/><path class="cls-3" d="M360.23,252.35q0-1.94,0-3.88c0-.21,0-0.21.2-0.21h0.64a0.14,0.14,0,0,1,.17.17c0,0.72,0,1.44,0,2.16q0,2.83,0,5.65c0,0.16,0,.21-0.2.2a5.62,5.62,0,0,0-.64,0c-0.14,0-.18,0-0.18-0.18,0-.78,0-1.57,0-2.35Q360.23,253.13,360.23,252.35Z" transform="translate(-82.77 -39.55)"/><path class="cls-3" d="M391.88,245.72a0.84,0.84,0,1,1-1.68,0,0.86,0.86,0,0,1,.83-0.85A0.84,0.84,0,0,1,391.88,245.72Z" transform="translate(-82.77 -39.55)"/><path class="cls-3" d="M399.36,245.72a0.83,0.83,0,0,1-.83.85,0.85,0.85,0,0,1,0-1.7A0.83,0.83,0,0,1,399.36,245.72Z" transform="translate(-82.77 -39.55)"/><path class="cls-3" d="M359.88,245.72a0.83,0.83,0,0,1,.84-0.84,0.85,0.85,0,1,1,0,1.7A0.83,0.83,0,0,1,359.88,245.72Z" transform="translate(-82.77 -39.55)"/><path class="cls-3" d="M401.35,246.24v-0.51q0-.08,0-0.16c0-.29,0-0.29-0.29-0.32l-0.09,0a1.34,1.34,0,0,1,.88,0l-0.25,0a0.13,0.13,0,0,0-.16.15c0,0.23,0,.47,0,0.7a0.69,0.69,0,0,1,0,.14Z" transform="translate(-82.77 -39.55)"/><path class="cls-3" d="M340.78,261.48a9.76,9.76,0,1,1,9.76-9.71A9.75,9.75,0,0,1,340.78,261.48Zm-0.13-4.94-2.43-3.8c0.2-.06.37-0.11,0.53-0.17a3,3,0,0,0,1.74-2.92,3.1,3.1,0,0,0-.63-1.77,2.66,2.66,0,0,0-2.21-1.19h-4c-0.11,0-.17,0-0.16.15s0,0.07,0,.11q0,4.67,0,9.33s0,0.08,0,.13a0.12,0.12,0,0,0,.14.14H334c0.22,0,.22,0,0.22-0.22,0-1.1,0-2.19,0-3.29a0.16,0.16,0,0,1,.19-0.19h2.74a0.32,0.32,0,0,1,.31.17l2.16,3.37a0.28,0.28,0,0,0,.13.14C340.07,256.55,340.33,256.54,340.65,256.54Zm1.08-4.93q0,2.35,0,4.7c0,0.24,0,.24.24,0.24h5.89c0.47,0,.47,0,0.47-0.47,0-.23,0-0.23-0.24-0.23H342.7a0.16,0.16,0,0,1-.2-0.2c0-1.21,0-2.41,0-3.62,0-.2,0-0.2.21-0.2H347c0.44,0,.44,0,0.44-0.45,0-.21,0-0.21-0.21-0.21h-4.59a0.16,0.16,0,0,1-.19-0.19c0-1.13,0-2.27,0-3.4,0-.21,0-0.21.21-0.21h5c0.47,0,.47,0,0.47-0.47,0-.21,0-0.21-0.22-0.21h-6c-0.22,0-.23,0-0.23.23Q341.73,249.27,341.73,251.61Z" transform="translate(-82.77 -39.55)"/><path class="cls-3" d="M334.27,249.75c0-.74,0-1.47,0-2.21a0.14,0.14,0,0,1,.17-0.17c1,0,2,0,3,0a2.1,2.1,0,0,1,1.8.92,2.54,2.54,0,0,1-.45,3.47,1.81,1.81,0,0,1-1.13.39h-3.21a0.15,0.15,0,0,1-.18-0.19C334.27,251.22,334.27,250.49,334.27,249.75Z" transform="translate(-82.77 -39.55)"/><rect class="cls-1" x="239.07" y="233.95" width="82.68" height="4"/><rect class="cls-1" x="239.07" y="242.75" width="82.68" height="4"/><rect class="cls-1" x="239.07" y="251.54" width="82.68" height="4"/><rect class="cls-1" x="239.07" y="260.34" width="82.68" height="4"/><rect class="cls-1" x="239.07" y="269.13" width="82.68" height="4"/><rect class="cls-1" x="239.07" y="277.93" width="82.68" height="4"/><rect class="cls-1" x="239.07" y="286.73" width="82.68" height="4"/><rect class="cls-1" x="239.07" y="295.52" width="82.68" height="4"/><path class="cls-3" d="M447.38,145.48L378.83,200V179.27a125.36,125.36,0,0,0-118.77,125v3.53H192.5v-3.53A193,193,0,0,1,378.83,111.67V91Z" transform="translate(-82.77 -39.55)"/><path class="cls-2" d="M196,311.36h67.56v-7.06a122.06,122.06,0,0,1,78.92-113.94c-0.72-2.21-1.44-4.44-2.12-6.72a128.94,128.94,0,0,0-83.86,120.65H196c0-87.32,59.46-161,140-182.72,0-2.43,0-4.86-.13-7.28A196.71,196.71,0,0,0,189,304.31v7.06H196Z" transform="translate(-82.77 -39.55)"/><path class="cls-4" d="M280.59,310.91H259.88a125.36,125.36,0,0,0,125,118.77h3.53v67.56h-3.53A193,193,0,0,1,192.27,310.91H171.58l54.51-68.55Z" transform="translate(-82.77 -39.55)"/><path class="cls-2" d="M384.91,493.7c-103.37,0-187.63-83.32-189.19-186.33H178.89L226.08,248l47.19,59.35H256.22C257.77,377,314.9,433.2,384.91,433.2v60.5m0,7.06H392V426.15h-7.06A121.85,121.85,0,0,1,263.64,314.44h24.26L278.8,303l-47.19-59.35-5.52-6.95-5.52,6.95L173.37,303l-9.11,11.45h24.62a196.52,196.52,0,0,0,196,186.33h0Z" transform="translate(-82.77 -39.55)"/><path class="cls-3" d="M575.15,301.13v3.53A193,193,0,0,1,388.67,497.3l-0.09,20.31-76.76-54.33,77.26-53.62-0.09,20a125.36,125.36,0,0,0,118.61-125v-3.53h67.56Z" transform="translate(-82.77 -39.55)"/><path class="cls-2" d="M385.08,510.82L318,463.31l67.55-46.88-0.08,16.92c69.58-1.62,125.69-58.73,125.69-128.69h60.5c0,103.42-83.4,187.71-186.47,189.2l-0.08,17m7,13.6,0.06-13.57,0-10.16a196.52,196.52,0,0,0,186.5-196V297.6H504.06v7.06A121.85,121.85,0,0,1,392.53,425.91l0-9.45,0.06-13.57-11.15,7.74-67.55,46.88-8.27,5.74,8.22,5.82L381,516.58l11.07,7.84h0Z" transform="translate(-82.77 -39.55)"/><path class="cls-4" d="M447.38,145.48L402.83,180.9A125.44,125.44,0,0,1,507.78,298.06H487.06l54.51,68.55,54.51-68.55H575.38A193.08,193.08,0,0,0,406.82,113.23Z" transform="translate(-82.77 -39.55)"/><path class="cls-2" d="M571.94,301.59h16.82l-47.19,59.35-47.19-59.35h17.06a128.84,128.84,0,0,0-65.21-109.05q-1.89,3-3.85,5.91a122.51,122.51,0,0,1,25.45,19.16A120.94,120.94,0,0,1,504,294.53H479.75L488.85,306,536,365.33l5.52,6.95,5.52-6.95L594.29,306l9.11-11.45H578.77a195.75,195.75,0,0,0-58.29-129.76,197.39,197.39,0,0,0-44.63-33.09q-1.18,3.4-2.44,6.76A189.41,189.41,0,0,1,571.94,301.59Z" transform="translate(-82.77 -39.55)"/><path class="cls-2" d="M382.36,115.11V98.29l59.35,47.19-59.35,47.19V175.61a128,128,0,0,0-42,8c0.68,2.28,1.4,4.51,2.12,6.72A120.93,120.93,0,0,1,375.3,183V207.3l11.45-9.11L446.11,151l6.95-5.52L446.11,140,386.75,92.76l-11.45-9.1v24.62a194.85,194.85,0,0,0-39.38,6c0.1,2.42.13,4.85,0.13,7.28A188.72,188.72,0,0,1,382.36,115.11Z" transform="translate(-82.77 -39.55)"/><path class="cls-2" d="M403.79,184.65a120.41,120.41,0,0,1,38.59,13.79q2-2.94,3.85-5.91A127.9,127.9,0,0,0,411,178.9Z" transform="translate(-82.77 -39.55)"/><path class="cls-2" d="M419.6,118.88a187.94,187.94,0,0,1,53.8,19.56q1.26-3.36,2.44-6.76a194.3,194.3,0,0,0-67.59-21.82Z" transform="translate(-82.77 -39.55)"/><path class="cls-2" d="M498.66,393.88a10.62,10.62,0,0,1,2.86-2.62,10.16,10.16,0,0,1,3.53-1.38,9.05,9.05,0,0,1,4,.2,11.48,11.48,0,0,1,4.07,2,12.37,12.37,0,0,1,2.69,2.76,9.44,9.44,0,0,1,1.44,3,10,10,0,0,1,.31,3,9.29,9.29,0,0,1-.61,2.89,10.4,10.4,0,0,1-1.42,2.54,10.62,10.62,0,0,1-5.84,4.06l-1.12-2.59a8.75,8.75,0,0,0,4.36-3.08,6,6,0,0,0,1.08-2.27,6.41,6.41,0,0,0,.09-2.51,6.78,6.78,0,0,0-1-2.55,8.86,8.86,0,0,0-2.16-2.31,7.58,7.58,0,0,0-5.43-1.76,6.26,6.26,0,0,0-4.52,2.58,8.73,8.73,0,0,0-1.76,5.69l-2.94-.75A11.09,11.09,0,0,1,498.66,393.88Z" transform="translate(-82.77 -39.55)"/><path class="cls-2" d="M492.38,402l14.55,14.12-2.46,2.54-12.37-12-6.53,6.74-2.18-2.11Z" transform="translate(-82.77 -39.55)"/><path class="cls-2" d="M474.28,418.44a9.86,9.86,0,0,1,7.64-2.42,10.67,10.67,0,0,1,6.93,4.32,10.44,10.44,0,0,1,2.55,7.63,9.94,9.94,0,0,1-4.11,6.91,9.66,9.66,0,0,1-7.51,2.33,10.49,10.49,0,0,1-6.84-4.23,10.77,10.77,0,0,1-2.69-7.7A9.68,9.68,0,0,1,474.28,418.44Zm1.94,2.31a5.77,5.77,0,0,0-2.48,4.47,8.55,8.55,0,0,0,2.2,5.37,8.3,8.3,0,0,0,4.66,3.26,5.72,5.72,0,0,0,4.86-1.38A5.86,5.86,0,0,0,488,428a8.17,8.17,0,0,0-2.1-5.29,8.58,8.58,0,0,0-4.73-3.37A5.75,5.75,0,0,0,476.22,420.75Z" transform="translate(-82.77 -39.55)"/><path class="cls-2" d="M458.1,429.6a13.25,13.25,0,0,1,3.77-1.53,7.55,7.55,0,0,1,3.49-.1v2.95a8.66,8.66,0,0,0-2.87.2,8.89,8.89,0,0,0-2.66,1,4.51,4.51,0,0,0-2,2,2.51,2.51,0,0,0,.31,2.28,3.84,3.84,0,0,0,.53.73,1.88,1.88,0,0,0,.69.42,2.81,2.81,0,0,0,1.1.14,11.59,11.59,0,0,0,1.67-.23l1.45-.33,1.5-.33a9,9,0,0,1,4.27.06,5.11,5.11,0,0,1,2.75,2.42,5,5,0,0,1,.75,3.1,5.49,5.49,0,0,1-1.19,2.88,9.94,9.94,0,0,1-2.76,2.34,13.24,13.24,0,0,1-3.89,1.71,7.93,7.93,0,0,1-3.37-.1l0.36-2.94a6.61,6.61,0,0,0,4.91-1,5.56,5.56,0,0,0,2-1.87,1.86,1.86,0,0,0,0-2,3.78,3.78,0,0,0-.56-0.76,1.81,1.81,0,0,0-.72-0.41,3,3,0,0,0-1.11-.1,13.47,13.47,0,0,0-1.67.24l-1.5.33q-1.13.26-1.71,0.36a8,8,0,0,1-4.13-.18,5.78,5.78,0,0,1-2.66-2.56,5.69,5.69,0,0,1-.85-2.6,4.62,4.62,0,0,1,.48-2.38,7.89,7.89,0,0,1,1.46-2A10.88,10.88,0,0,1,458.1,429.6Z" transform="translate(-82.77 -39.55)"/><path class="cls-2" d="M448.55,435.21l8.84,18.24L454.21,455l-8.85-18.24Z" transform="translate(-82.77 -39.55)"/><path class="cls-2" d="M440.94,439l6.9,19.06-3.52,1.28-14.76-10.53,5.08,14L431.48,464l-6.9-19.06,3.54-1.28q13.38,9.5,14.84,10.53l-5.09-14.06Z" transform="translate(-82.77 -39.55)"/><path class="cls-2" d="M410.73,447.75q4.9-1,8.08,1.15a10.06,10.06,0,0,1,4.1,6.71,12.67,12.67,0,0,1,.23,3.37,10.32,10.32,0,0,1-.72,3.18,10.16,10.16,0,0,1-1.65,2.75,9.54,9.54,0,0,1-2.64,2.15,12.17,12.17,0,0,1-3.61,1.31,15.47,15.47,0,0,1-2.6.32,8.45,8.45,0,0,1-2.09-.17,12.71,12.71,0,0,1-1.34-.36,9.52,9.52,0,0,1-1-.43l0.9-2.71a8.86,8.86,0,0,0,5.5.37,7.31,7.31,0,0,0,3-1.26A5.86,5.86,0,0,0,418.7,462a8.11,8.11,0,0,0,.76-2.64,9,9,0,0,0-.13-2.83,9.43,9.43,0,0,0-1-2.78,6.61,6.61,0,0,0-1.7-2,5.57,5.57,0,0,0-2.41-1,8,8,0,0,0-3.06.07,12.16,12.16,0,0,0-3.29,1.21l0.95,4.69,4.64-.94,0.6,3-8.16,1.65-1.94-9.62A17.57,17.57,0,0,1,410.73,447.75Z" transform="translate(-82.77 -39.55)"/><path class="cls-2" d="M307.06,425q0.19,0.86.39,2.39a24.85,24.85,0,0,1,.22,2.86q0.42,0.19.92,0.48a8.09,8.09,0,0,1,4.13,5.11,8.74,8.74,0,0,1-1.23,6.58,8.56,8.56,0,0,1-5.06,4.22,8.15,8.15,0,0,1-6.5-1.07,7.92,7.92,0,0,1-4-5,8.6,8.6,0,0,1,1.19-6.48,9.72,9.72,0,0,1,3.59-3.73,6.93,6.93,0,0,1,4.53-.83,26.74,26.74,0,0,0-.58-4.68l2.23-.68Zm-3.81,7.35a7,7,0,0,0-3.44,3.29,6.8,6.8,0,0,0-1.1,4.53,4.69,4.69,0,0,0,2.51,3.3,4.8,4.8,0,0,0,4.15.57,6.7,6.7,0,0,0,3.42-3.18,7,7,0,0,0,1.17-4.62A5.48,5.48,0,0,0,303.25,432.33Z" transform="translate(-82.77 -39.55)"/><path class="cls-2" d="M293.68,420.77a9.21,9.21,0,0,1,2,2,5.54,5.54,0,0,1,.93,2,4.82,4.82,0,0,1,0,2,7.26,7.26,0,0,1-.66,1.91,12.62,12.62,0,0,1-1.19,1.85l-5.91,7.8-2.31-1.75,6-7.9a7.61,7.61,0,0,0,.94-1.56,4.08,4.08,0,0,0,.36-1.35,2.84,2.84,0,0,0-.17-1.16,3.25,3.25,0,0,0-.57-1,5.62,5.62,0,0,0-.9-0.84,5,5,0,0,0-1.35-.75,3.21,3.21,0,0,0-1.39-.16,3.15,3.15,0,0,0-1.5.62A7.29,7.29,0,0,0,286.4,424l-6,7.89-2.31-1.75,5.92-7.81a13.4,13.4,0,0,1,1.44-1.63,7.15,7.15,0,0,1,1.65-1.16A4.86,4.86,0,0,1,289,419a5.45,5.45,0,0,1,2.17.36A9.35,9.35,0,0,1,293.68,420.77Z" transform="translate(-82.77 -39.55)"/><path class="cls-2" d="M287.11,416.13l-16.28,7.46-2.14-2,6.55-16.69,2.38,2.25-1.62,4,4.87,4.62,3.93-1.86Zm-8.89.88L275,413.94q-1.73,3.73-2.86,6.21Z" transform="translate(-82.77 -39.55)"/><path class="cls-2" d="M273.77,403.05l-12.61,10.82-1.89-2.2,10.73-9.2-5-5.84,1.89-1.62Z" transform="translate(-82.77 -39.55)"/><path class="cls-2" d="M265.43,393l-13.33,9.93-1.73-2.33,13.33-9.93Z" transform="translate(-82.77 -39.55)"/><path class="cls-2" d="M261.2,387.2l-14,9-5.5-8.53,2.09-1.35,3.93,6.09,3.81-2.45-3.7-5.74,2.1-1.35,3.7,5.74,6-3.85Z" transform="translate(-82.77 -39.55)"/><path class="cls-2" d="M254.46,376.31l-14.54,8-1.4-2.54,14.54-8Z" transform="translate(-82.77 -39.55)"/><path class="cls-2" d="M248.16,363.26a8.71,8.71,0,0,1,.78,3.08,8.36,8.36,0,0,1-.37,3.08,7.43,7.43,0,0,1-1.69,2.81,9.4,9.4,0,0,1-3.05,2.15,10.08,10.08,0,0,1-3,.88,7.71,7.71,0,0,1-2.73-.13,8.17,8.17,0,0,1-2.31-1,7.61,7.61,0,0,1-1.85-1.56,8.56,8.56,0,0,1-1.28-2,8.71,8.71,0,0,1-.67-5.79l2.31,0.19a7.18,7.18,0,0,0,.54,4.35A4.9,4.9,0,0,0,236,371a5.23,5.23,0,0,0,1.78,1,5.55,5.55,0,0,0,2.24.26,7.25,7.25,0,0,0,2.51-.67,6.22,6.22,0,0,0,3.38-3.24,5.13,5.13,0,0,0-.11-4.27,7.16,7.16,0,0,0-3.43-3.48l1.69-1.83A9.09,9.09,0,0,1,248.16,363.26Z" transform="translate(-82.77 -39.55)"/><path class="cls-2" d="M244.93,356.72l-17.87-1.21-0.91-2.8,13.72-11.55,1,3.12-3.36,2.78,2.08,6.38,4.34,0.24Zm-8.23-3.47L235.32,349l-5.47,4.1Z" transform="translate(-82.77 -39.55)"/><path class="cls-2" d="M239.13,337.33l-13.78,3.12,1.13,5L224,346l-2.92-12.9,2.43-.55,1.15,5.08,13.78-3.11Z" transform="translate(-82.77 -39.55)"/><path class="cls-2" d="M237.1,327.17l-16.43,2.5-0.44-2.87,16.43-2.51Z" transform="translate(-82.77 -39.55)"/><path class="cls-2" d="M235.74,312.7a8.08,8.08,0,0,1-2,6.27,8.74,8.74,0,0,1-6.15,2.63,8.56,8.56,0,0,1-6.33-1.86,8.15,8.15,0,0,1-2.72-6,7.93,7.93,0,0,1,2-6.14,8.61,8.61,0,0,1,6.05-2.62,8.84,8.84,0,0,1,6.44,1.8A7.93,7.93,0,0,1,235.74,312.7Zm-2.47.22a4.73,4.73,0,0,0-1.84-3.76,7,7,0,0,0-4.65-1,6.8,6.8,0,0,0-4.38,1.6,4.69,4.69,0,0,0-1.35,3.92,4.8,4.8,0,0,0,1.83,3.77,6.7,6.7,0,0,0,4.54,1.07,7.05,7.05,0,0,0,4.49-1.6A4.72,4.72,0,0,0,233.28,312.92Z" transform="translate(-82.77 -39.55)"/><path class="cls-2" d="M235,301.25l-16.59-1.07,0.2-3.06,12.75-7.63-12.21-.78,0.18-2.76L236,287l-0.2,3.08L223,297.79l12.23,0.79Z" transform="translate(-82.77 -39.55)"/><path class="cls-2" d="M459.39,177.15l9.28-13.79,2.55,1.71q0.16,14,.16,14.86l6.84-10.15,2.29,1.54-9.28,13.79-2.56-1.72q-0.18-13.45-.21-14.92l-6.85,10.17Z" transform="translate(-82.77 -39.55)"/><path class="cls-2" d="M474.48,187.73l10.75-12.68,8,6.78-1.61,1.9-5.79-4.91L483,182.22l5.48,4.64-1.62,1.91-5.45-4.62-3,3.59,6,5.1-1.61,1.9Z" transform="translate(-82.77 -39.55)"/><path class="cls-2" d="M490,202.41a8.46,8.46,0,0,1-2.73-6.11,8.25,8.25,0,0,1,2.86-5.78,10.4,10.4,0,0,1,2.23-1.64,8.45,8.45,0,0,1,2.52-.89,8.35,8.35,0,0,1,2.63-.06,7.83,7.83,0,0,1,2.64.89,10,10,0,0,1,2.49,1.93,12.8,12.8,0,0,1,1.36,1.66,6.88,6.88,0,0,1,.8,1.52,10.28,10.28,0,0,1,.33,1.08,7.72,7.72,0,0,1,.14.88l-2.27.56a7.26,7.26,0,0,0-2.15-4,6,6,0,0,0-2.17-1.5,4.82,4.82,0,0,0-2.3-.33,6.66,6.66,0,0,0-2.16.63,7.41,7.41,0,0,0-1.9,1.33,7.65,7.65,0,0,0-1.49,1.91,5.4,5.4,0,0,0-.64,2,4.55,4.55,0,0,0,.33,2.13,6.51,6.51,0,0,0,1.39,2.09,10,10,0,0,0,2.28,1.76l2.84-2.71L494.3,197l1.79-1.71,4.71,4.94L495,205.82A14.39,14.39,0,0,1,490,202.41Z" transform="translate(-82.77 -39.55)"/><path class="cls-2" d="M500.92,215.49a8.08,8.08,0,0,1-1.78-6.32,8.74,8.74,0,0,1,3.72-5.56,8.55,8.55,0,0,1,6.32-1.89,8.15,8.15,0,0,1,5.55,3.55,7.92,7.92,0,0,1,1.71,6.22,8.6,8.6,0,0,1-3.65,5.49,8.83,8.83,0,0,1-6.38,2A7.94,7.94,0,0,1,500.92,215.49Zm1.95-1.53a4.73,4.73,0,0,0,3.6,2.15,7,7,0,0,0,4.46-1.66,6.8,6.8,0,0,0,2.8-3.73,4.7,4.7,0,0,0-1-4,4.8,4.8,0,0,0-3.59-2.16,6.7,6.7,0,0,0-4.39,1.58,7,7,0,0,0-2.89,3.78A4.72,4.72,0,0,0,502.87,214Z" transform="translate(-82.77 -39.55)"/><path class="cls-2" d="M509.17,227.33l12.19-7.15-2.59-4.42,2.15-1.26,6.7,11.41-2.15,1.26-2.63-4.49-12.19,7.16Z" transform="translate(-82.77 -39.55)"/><path class="cls-2" d="M514.18,236.39L529,228.84l1.32,2.58L515.49,239Z" transform="translate(-82.77 -39.55)"/><path class="cls-2" d="M516.68,241h17.91l1.1,2.73-12.91,12.45-1.22-3,3.16-3-2.5-6.23-4.35,0Zm8.45,2.9,1.66,4.13q3.12-2.67,5.18-4.46Z" transform="translate(-82.77 -39.55)"/><path class="cls-2" d="M523.78,259.95l13.54-4L535.85,251l2.38-.71L542,263l-2.38.71-1.49-5-13.54,4Z" transform="translate(-82.77 -39.55)"/><path class="cls-2" d="M526.5,270l16.22-3.62,0.63,2.83-16.22,3.62Z" transform="translate(-82.77 -39.55)"/><path class="cls-2" d="M528.84,284.28a8.09,8.09,0,0,1,1.52-6.39,8.75,8.75,0,0,1,6-3,8.56,8.56,0,0,1,6.44,1.43,8.15,8.15,0,0,1,3.12,5.8,7.93,7.93,0,0,1-1.53,6.26,8.6,8.6,0,0,1-5.86,3,8.83,8.83,0,0,1-6.55-1.36A7.94,7.94,0,0,1,528.84,284.28Zm2.45-.39a4.73,4.73,0,0,0,2.1,3.63,7,7,0,0,0,4.7.72,6.79,6.79,0,0,0,4.26-1.9,4.69,4.69,0,0,0,1.08-4,4.8,4.8,0,0,0-2.08-3.63,6.7,6.7,0,0,0-4.61-.76,7,7,0,0,0-4.37,1.9A4.72,4.72,0,0,0,531.28,283.89Z" transform="translate(-82.77 -39.55)"/><path class="cls-2" d="M530.32,295.67l16.62-.06v3.07l-12.21,8.48,12.24,0v2.76l-16.62.06v-3.08q11-7.7,12.23-8.55l-12.26,0v-2.68Z" transform="translate(-82.77 -39.55)"/><path class="cls-2" d="M265.86,216.48L250,203.75l2.22-2.76,13.45,10.82,5.89-7.32L274,206.4Z" transform="translate(-82.77 -39.55)"/><path class="cls-2" d="M276.1,204.32l-14.69-14,2.45-2.56,14.69,14Z" transform="translate(-82.77 -39.55)"/><path class="cls-2" d="M286.81,194.38a13.29,13.29,0,0,1-3.44,2.2,7.55,7.55,0,0,1-3.42.73l-0.54-2.9a8.68,8.68,0,0,0,2.79-.72,8.89,8.89,0,0,0,2.44-1.44,4.53,4.53,0,0,0,1.63-2.36,2.51,2.51,0,0,0-.72-2.19,3.9,3.9,0,0,0-.66-0.62,1.9,1.9,0,0,0-.75-0.29,2.79,2.79,0,0,0-1.11.06,11.47,11.47,0,0,0-1.61.53l-1.37.59-1.42.59a9,9,0,0,1-4.21.72,5.12,5.12,0,0,1-3.15-1.88,5,5,0,0,1-1.31-2.92,5.49,5.49,0,0,1,.65-3.06,9.91,9.91,0,0,1,2.29-2.81,13.27,13.27,0,0,1,3.53-2.39,8,8,0,0,1,3.33-.51l0.18,3a6.62,6.62,0,0,0-4.65,1.91,5.59,5.59,0,0,0-1.65,2.21,1.87,1.87,0,0,0,.37,2,3.72,3.72,0,0,0,.69.64,1.78,1.78,0,0,0,.79.27,3,3,0,0,0,1.11-.1,13.43,13.43,0,0,0,1.6-.54l1.41-.6q1.07-.46,1.61-0.66a8,8,0,0,1,4.1-.57,5.77,5.77,0,0,1,3.09,2,5.69,5.69,0,0,1,1.31,2.4,4.63,4.63,0,0,1,0,2.43,7.88,7.88,0,0,1-1.08,2.24A10.94,10.94,0,0,1,286.81,194.38Z" transform="translate(-82.77 -39.55)"/><path class="cls-2" d="M298.83,184.5l-9.76-14.24-5.17,3.54-1.72-2.51,13.33-9.14,1.72,2.51-5.25,3.6,9.76,14.24Z" transform="translate(-82.77 -39.55)"/><path class="cls-2" d="M309.38,177.72l-10-17.66,3.08-1.75,10,17.66Z" transform="translate(-82.77 -39.55)"/><path class="cls-2" d="M316.75,173.42l-8.12-18.61,3.44-1.5,15.42,9.58-6-13.71,3.09-1.35,8.12,18.61L329.28,168q-14-8.65-15.51-9.58l6,13.73Z" transform="translate(-82.77 -39.55)"/><path class="cls-2" d="M346.4,162.79q-4.84,1.29-8.15-.65a10.08,10.08,0,0,1-4.52-6.46,12.72,12.72,0,0,1-.44-3.35,10.33,10.33,0,0,1,.52-3.22,10.17,10.17,0,0,1,1.48-2.86,9.55,9.55,0,0,1,2.51-2.31,12.22,12.22,0,0,1,3.52-1.53,15.62,15.62,0,0,1,2.58-.48,8.42,8.42,0,0,1,2.1,0,12.27,12.27,0,0,1,1.36.28,9.31,9.31,0,0,1,1,.37l-0.73,2.77a8.87,8.87,0,0,0-5.52,0,7.31,7.31,0,0,0-2.88,1.45,5.88,5.88,0,0,0-1.7,2.27,8.13,8.13,0,0,0-.6,2.69,9.08,9.08,0,0,0,.31,2.82,9.4,9.4,0,0,0,1.17,2.72,6.59,6.59,0,0,0,1.82,1.89,5.55,5.55,0,0,0,2.47.9,7.92,7.92,0,0,0,3.06-.26,12.21,12.21,0,0,0,3.22-1.41l-1.24-4.64L343.17,155l-0.78-2.92,8.06-2.16,2.54,9.5A17.59,17.59,0,0,1,346.4,162.79Z" transform="translate(-82.77 -39.55)"/><path class="cls-5" d="M516.27,542.5H250.83L118.11,304.62,250.83,66.75H516.27L649,304.62Zm-256.2-16.56H507L630.51,304.62,507,83.31h-247L136.59,304.62Z" transform="translate(-82.77 -39.55)"/><path class="cls-4" d="M640.82,346.75a41.44,41.44,0,1,1,41.44-41.44A41.49,41.49,0,0,1,640.82,346.75Z" transform="translate(-82.77 -39.55)"/><path class="cls-2" d="M640.82,266.37a38.94,38.94,0,1,1-38.94,38.94,38.94,38.94,0,0,1,38.94-38.94m0-5a43.94,43.94,0,1,0,43.94,43.94,44,44,0,0,0-43.94-43.94h0Z" transform="translate(-82.77 -39.55)"/><path class="cls-3" d="M513.21,124.93a41.44,41.44,0,1,1,41.44-41.44A41.49,41.49,0,0,1,513.21,124.93Z" transform="translate(-82.77 -39.55)"/><path class="cls-2" d="M513.21,44.55a38.94,38.94,0,1,1-38.94,38.94,38.94,38.94,0,0,1,38.94-38.94m0-5a43.94,43.94,0,1,0,43.94,43.94,44,44,0,0,0-43.94-43.94h0Z" transform="translate(-82.77 -39.55)"/><path class="cls-4" d="M254.91,124.93a41.44,41.44,0,1,1,41.44-41.44A41.49,41.49,0,0,1,254.91,124.93Z" transform="translate(-82.77 -39.55)"/><path class="cls-2" d="M254.91,44.55A38.94,38.94,0,1,1,216,83.49a38.94,38.94,0,0,1,38.94-38.94m0-5a43.94,43.94,0,1,0,43.94,43.94,44,44,0,0,0-43.94-43.94h0Z" transform="translate(-82.77 -39.55)"/><path class="cls-3" d="M126.71,346.75a41.44,41.44,0,1,1,41.44-41.44A41.49,41.49,0,0,1,126.71,346.75Z" transform="translate(-82.77 -39.55)"/><path class="cls-2" d="M126.71,266.37a38.94,38.94,0,1,1-38.94,38.94,38.94,38.94,0,0,1,38.94-38.94m0-5a43.94,43.94,0,1,0,43.94,43.94,44,44,0,0,0-43.94-43.94h0Z" transform="translate(-82.77 -39.55)"/><path class="cls-4" d="M256,569a41.44,41.44,0,1,1,41.44-41.44A41.49,41.49,0,0,1,256,569Z" transform="translate(-82.77 -39.55)"/><path class="cls-2" d="M256,488.6a38.94,38.94,0,1,1-38.94,38.94A38.94,38.94,0,0,1,256,488.6m0-5A43.94,43.94,0,1,0,300,527.54,44,44,0,0,0,256,483.6h0Z" transform="translate(-82.77 -39.55)"/><path class="cls-3" d="M512,569a41.44,41.44,0,1,1,41.44-41.44A41.49,41.49,0,0,1,512,569Z" transform="translate(-82.77 -39.55)"/><path class="cls-2" d="M512,488.6a38.94,38.94,0,1,1-38.94,38.94A38.94,38.94,0,0,1,512,488.6m0-5a43.94,43.94,0,1,0,43.94,43.94A44,44,0,0,0,512,483.6h0Z" transform="translate(-82.77 -39.55)"/><path class="cls-2" d="M226,527.77a3.6,3.6,0,0,1-1.29-.23,3.45,3.45,0,0,1-1.09-.67,3.06,3.06,0,0,1-.76-1.11,3.87,3.87,0,0,1-.28-1.51,4.16,4.16,0,0,1,.19-1.29,3.17,3.17,0,0,1,.51-1,3.39,3.39,0,0,1,.75-0.7,3.12,3.12,0,0,1,.9-0.43,3.51,3.51,0,0,1,1-.14,3.58,3.58,0,0,1,2.28.74l-0.47.83a3,3,0,0,0-1.72-.54,2,2,0,0,0-.83.17,2.18,2.18,0,0,0-.69.49,2.29,2.29,0,0,0-.48.79,3,3,0,0,0-.18,1.05,2.56,2.56,0,0,0,.64,1.82,2.11,2.11,0,0,0,1.62.69,2.94,2.94,0,0,0,1.89-.69l0.4,0.94A3.74,3.74,0,0,1,226,527.77Z" transform="translate(-82.77 -39.55)"/><path class="cls-2" d="M232.77,527.78a3.33,3.33,0,0,1-2.52-1,3.6,3.6,0,0,1-.92-2.6,3.52,3.52,0,0,1,.93-2.55,3.35,3.35,0,0,1,2.53-1,3.26,3.26,0,0,1,2.47,1,3.54,3.54,0,0,1,.92,2.55,3.63,3.63,0,0,1-.91,2.6A3.27,3.27,0,0,1,232.77,527.78Zm0-1a2,2,0,0,0,1.59-.66,2.88,2.88,0,0,0,.54-1.88,2.8,2.8,0,0,0-.54-1.84,1.93,1.93,0,0,0-1.57-.66,2,2,0,0,0-1.6.66,2.76,2.76,0,0,0-.56,1.84,2.9,2.9,0,0,0,.54,1.88A1.94,1.94,0,0,0,232.75,526.76Z" transform="translate(-82.77 -39.55)"/><path class="cls-2" d="M237.85,527.67v-6.84h1.4l1,2.3,1.36,3,0.74-1.65,0.88-2,0.73-1.66h1.4v6.84h-1.12v-4.89l-2.2,4.89H241.2l-0.69-1.52-0.81-1.79q-0.37-.8-0.71-1.5v4.81h-1.15Z" transform="translate(-82.77 -39.55)"/><path class="cls-2" d="M247.44,527.67v-6.84h1.4l1,2.3,1.36,3,0.74-1.65,0.88-2,0.73-1.66H255v6.84h-1.12v-4.89l-2.2,4.89h-0.88l-0.69-1.52-0.81-1.79q-0.37-.8-0.71-1.5v4.81h-1.15Z" transform="translate(-82.77 -39.55)"/><path class="cls-2" d="M256.95,527.67v-6.84h1.19v6.84h-1.19Z" transform="translate(-82.77 -39.55)"/><path class="cls-2" d="M262.19,527.78a4.47,4.47,0,0,1-1.36-.21,2.55,2.55,0,0,1-1-.57l0.51-.86a2.91,2.91,0,0,0,.87.44,3,3,0,0,0,.94.18,1.52,1.52,0,0,0,.94-0.24,0.85,0.85,0,0,0,.3-0.71,1.33,1.33,0,0,0,0-.3,0.64,0.64,0,0,0-.13-0.24,0.94,0.94,0,0,0-.29-0.23,3.74,3.74,0,0,0-.52-0.22l-0.48-.16-0.49-.16a3,3,0,0,1-1.23-.75,1.73,1.73,0,0,1-.38-1.18,1.68,1.68,0,0,1,.32-1,1.85,1.85,0,0,1,.84-0.63,3.36,3.36,0,0,1,1.2-.2,4.49,4.49,0,0,1,1.42.18,2.68,2.68,0,0,1,1,.61l-0.61.79a2.23,2.23,0,0,0-1.6-.55,1.88,1.88,0,0,0-.91.19,0.63,0.63,0,0,0-.35.59,1.26,1.26,0,0,0,0,.32,0.6,0.6,0,0,0,.14.25,1,1,0,0,0,.3.22,4.55,4.55,0,0,0,.53.22l0.49,0.16,0.56,0.19a2.7,2.7,0,0,1,1.17.77,2,2,0,0,1,.33,1.2,1.91,1.91,0,0,1-.2.9,1.55,1.55,0,0,1-.55.61,2.65,2.65,0,0,1-.77.33A3.66,3.66,0,0,1,262.19,527.78Z" transform="translate(-82.77 -39.55)"/><path class="cls-2" d="M268.23,527.78a4.47,4.47,0,0,1-1.36-.21,2.55,2.55,0,0,1-1-.57l0.51-.86a2.91,2.91,0,0,0,.87.44,3,3,0,0,0,.94.18,1.52,1.52,0,0,0,.94-0.24,0.85,0.85,0,0,0,.3-0.71,1.33,1.33,0,0,0,0-.3,0.64,0.64,0,0,0-.13-0.24A0.94,0.94,0,0,0,269,525a3.74,3.74,0,0,0-.52-0.22l-0.48-.16-0.49-.16a3,3,0,0,1-1.23-.75,1.73,1.73,0,0,1-.38-1.18,1.68,1.68,0,0,1,.32-1,1.85,1.85,0,0,1,.84-0.63,3.36,3.36,0,0,1,1.2-.2,4.49,4.49,0,0,1,1.42.18,2.68,2.68,0,0,1,1,.61l-0.61.79a2.23,2.23,0,0,0-1.6-.55,1.88,1.88,0,0,0-.91.19,0.63,0.63,0,0,0-.35.59,1.26,1.26,0,0,0,0,.32,0.6,0.6,0,0,0,.14.25,1,1,0,0,0,.3.22,4.55,4.55,0,0,0,.53.22l0.49,0.16,0.56,0.19a2.7,2.7,0,0,1,1.17.77,2,2,0,0,1,.33,1.2,1.91,1.91,0,0,1-.2.9,1.55,1.55,0,0,1-.55.61,2.65,2.65,0,0,1-.77.33A3.66,3.66,0,0,1,268.23,527.78Z" transform="translate(-82.77 -39.55)"/><path class="cls-2" d="M272.28,527.67v-6.84h1.19v6.84h-1.19Z" transform="translate(-82.77 -39.55)"/><path class="cls-2" d="M278.56,527.78a3.33,3.33,0,0,1-2.52-1,3.6,3.6,0,0,1-.92-2.6,3.52,3.52,0,0,1,.93-2.55,3.35,3.35,0,0,1,2.53-1,3.26,3.26,0,0,1,2.47,1,3.54,3.54,0,0,1,.92,2.55,3.63,3.63,0,0,1-.91,2.6A3.27,3.27,0,0,1,278.56,527.78Zm0-1a2,2,0,0,0,1.59-.66,2.88,2.88,0,0,0,.54-1.88,2.8,2.8,0,0,0-.54-1.84,1.93,1.93,0,0,0-1.57-.66,2,2,0,0,0-1.6.66,2.76,2.76,0,0,0-.56,1.84,2.9,2.9,0,0,0,.54,1.88A1.94,1.94,0,0,0,278.53,526.76Z" transform="translate(-82.77 -39.55)"/><path class="cls-2" d="M283.63,527.67v-6.84h1.26l3.47,5v-5h1.14v6.84h-1.27l-3.5-5v5h-1.1Z" transform="translate(-82.77 -39.55)"/><path class="cls-2" d="M237.56,539.55v-6.84h4.32v1h-3.12v1.83h3v1h-2.94v1.94H242v1h-4.45Z" transform="translate(-82.77 -39.55)"/><path class="cls-2" d="M245.64,539.55l-2.6-6.84h1.34l0.8,2.27q0.7,2,1.08,3l1.91-5.28h1.25l-2.6,6.84h-1.18Z" transform="translate(-82.77 -39.55)"/><path class="cls-2" d="M250.7,539.55v-6.84H255v1h-3.12v1.83h3v1H251.9v1.94h3.25v1H250.7Z" transform="translate(-82.77 -39.55)"/><path class="cls-2" d="M256.81,539.55v-6.84h1.26l3.47,5v-5h1.14v6.84h-1.27l-3.5-5v5h-1.1Z" transform="translate(-82.77 -39.55)"/><path class="cls-2" d="M266.06,539.55v-5.82h-2.11v-1h5.44v1h-2.14v5.82h-1.19Z" transform="translate(-82.77 -39.55)"/><path class="cls-2" d="M272.82,539.66a4.47,4.47,0,0,1-1.36-.21,2.55,2.55,0,0,1-1-.57l0.51-.86a2.91,2.91,0,0,0,.87.44,3,3,0,0,0,.94.18,1.52,1.52,0,0,0,.94-0.24,0.85,0.85,0,0,0,.3-0.71,1.33,1.33,0,0,0,0-.3,0.64,0.64,0,0,0-.13-0.24,0.94,0.94,0,0,0-.29-0.23,3.74,3.74,0,0,0-.52-0.22l-0.48-.16-0.49-.16a3,3,0,0,1-1.23-.75,1.73,1.73,0,0,1-.38-1.18,1.68,1.68,0,0,1,.32-1,1.85,1.85,0,0,1,.84-0.63,3.36,3.36,0,0,1,1.2-.2,4.49,4.49,0,0,1,1.42.18,2.68,2.68,0,0,1,1,.61l-0.61.79a2.23,2.23,0,0,0-1.6-.55,1.88,1.88,0,0,0-.91.19,0.63,0.63,0,0,0-.35.59,1.26,1.26,0,0,0,0,.32,0.6,0.6,0,0,0,.14.25,1,1,0,0,0,.3.22,4.55,4.55,0,0,0,.53.22l0.49,0.16,0.56,0.19a2.7,2.7,0,0,1,1.17.77,2,2,0,0,1,.33,1.2,1.91,1.91,0,0,1-.2.9,1.55,1.55,0,0,1-.55.61,2.65,2.65,0,0,1-.77.33A3.66,3.66,0,0,1,272.82,539.66Z" transform="translate(-82.77 -39.55)"/><path class="cls-2" d="M103.15,309.36v-8.08h3l0.64,0a3.52,3.52,0,0,1,.6.11,4.13,4.13,0,0,1,.51.19,1.44,1.44,0,0,1,.43.29,2.1,2.1,0,0,1,.32.41,1.74,1.74,0,0,1,.21.55,3.46,3.46,0,0,1,.07.71,2.61,2.61,0,0,1-.21,1.1,1.6,1.6,0,0,1-.63.71,3,3,0,0,1-1,.37,6.73,6.73,0,0,1-1.32.11h-1.23v3.49h-1.41Zm1.41-4.69h1.21a4.58,4.58,0,0,0,.69,0,1.87,1.87,0,0,0,.52-0.16,0.76,0.76,0,0,0,.35-0.33,1.14,1.14,0,0,0,.12-0.54,1.55,1.55,0,0,0,0-.32,1.52,1.52,0,0,0-.07-0.25,0.51,0.51,0,0,0-.14-0.19l-0.17-.14a0.67,0.67,0,0,0-.23-0.09l-0.26-.06-0.31,0h-1.66v2.17Z" transform="translate(-82.77 -39.55)"/><path class="cls-2" d="M110.49,309.36v-8.08h1.41v3.33h3.79v-3.33h1.41v8.08h-1.38v-3.54h-3.79v3.54h-1.44Z" transform="translate(-82.77 -39.55)"/><path class="cls-2" d="M123.06,309.49a3.93,3.93,0,0,1-3-1.14,4.25,4.25,0,0,1-1.09-3.07,4.16,4.16,0,0,1,1.1-3,4,4,0,0,1,3-1.14,3.86,3.86,0,0,1,2.92,1.14,4.19,4.19,0,0,1,1.09,3,4.3,4.3,0,0,1-1.07,3.07A3.86,3.86,0,0,1,123.06,309.49Zm0-1.21a2.3,2.3,0,0,0,1.88-.78,3.41,3.41,0,0,0,.64-2.22,3.31,3.31,0,0,0-.64-2.17,2.28,2.28,0,0,0-1.86-.77,2.34,2.34,0,0,0-1.89.77,3.26,3.26,0,0,0-.66,2.17,3.42,3.42,0,0,0,.64,2.23A2.29,2.29,0,0,0,123,308.28Z" transform="translate(-82.77 -39.55)"/><path class="cls-2" d="M130.37,309.36v-6.87h-2.49v-1.21h6.44v1.21h-2.53v6.87h-1.41Z" transform="translate(-82.77 -39.55)"/><path class="cls-2" d="M139.18,309.49a3.93,3.93,0,0,1-3-1.14,4.25,4.25,0,0,1-1.09-3.07,4.16,4.16,0,0,1,1.1-3,4,4,0,0,1,3-1.14,3.86,3.86,0,0,1,2.92,1.14,4.19,4.19,0,0,1,1.09,3,4.3,4.3,0,0,1-1.07,3.07A3.86,3.86,0,0,1,139.18,309.49Zm0-1.21a2.3,2.3,0,0,0,1.88-.78,3.41,3.41,0,0,0,.64-2.22,3.31,3.31,0,0,0-.64-2.17,2.28,2.28,0,0,0-1.86-.77,2.34,2.34,0,0,0-1.89.77,3.26,3.26,0,0,0-.66,2.17,3.42,3.42,0,0,0,.64,2.23A2.29,2.29,0,0,0,139.15,308.28Z" transform="translate(-82.77 -39.55)"/><path class="cls-2" d="M147.4,309.49a5.31,5.31,0,0,1-1.6-.24,3,3,0,0,1-1.22-.68l0.6-1a3.44,3.44,0,0,0,1,.52,3.55,3.55,0,0,0,1.11.21,1.81,1.81,0,0,0,1.11-.28,1,1,0,0,0,.36-0.84,1.57,1.57,0,0,0,0-.36,0.76,0.76,0,0,0-.15-0.28,1.1,1.1,0,0,0-.35-0.27,4.52,4.52,0,0,0-.62-0.26l-0.56-.18-0.58-.19a3.58,3.58,0,0,1-1.45-.89,2,2,0,0,1-.45-1.39,2,2,0,0,1,.38-1.22,2.18,2.18,0,0,1,1-.74,3.94,3.94,0,0,1,1.42-.24,5.27,5.27,0,0,1,1.68.21,3.16,3.16,0,0,1,1.13.72l-0.72.93a2.64,2.64,0,0,0-1.89-.65,2.22,2.22,0,0,0-1.07.23,0.74,0.74,0,0,0-.41.69,1.5,1.5,0,0,0,0,.37,0.72,0.72,0,0,0,.16.29,1.2,1.2,0,0,0,.36.26,5.39,5.39,0,0,0,.62.26l0.58,0.19,0.66,0.23a3.18,3.18,0,0,1,1.38.9,2.3,2.3,0,0,1,.39,1.42,2.27,2.27,0,0,1-.24,1.06,1.84,1.84,0,0,1-.65.72,3.13,3.13,0,0,1-.91.39A4.35,4.35,0,0,1,147.4,309.49Z" transform="translate(-82.77 -39.55)"/><path class="cls-2" d="M480.59,528v-7.46h1.3V528h-1.3Z" transform="translate(-82.77 -39.55)"/><path class="cls-2" d="M484,528v-7.46h1.53l1.13,2.51,1.48,3.29q0.4-.86.81-1.8l1-2.19,0.8-1.81h1.53V528H491v-5.33q-0.27.59-2.4,5.33h-1l-0.75-1.66L486,524.38q-0.4-.87-0.77-1.64V528H484Z" transform="translate(-82.77 -39.55)"/><path class="cls-2" d="M494.44,528v-7.46h2.78l0.59,0a3.28,3.28,0,0,1,.55.1,3.81,3.81,0,0,1,.47.17,1.35,1.35,0,0,1,.4.26,2,2,0,0,1,.29.37,1.62,1.62,0,0,1,.19.51,3.19,3.19,0,0,1,.06.66,2.41,2.41,0,0,1-.19,1,1.49,1.49,0,0,1-.58.65,2.76,2.76,0,0,1-.9.34,6.26,6.26,0,0,1-1.22.1h-1.14V528h-1.3Zm1.3-4.33h1.12a4.18,4.18,0,0,0,.64,0,1.7,1.7,0,0,0,.48-0.15,0.71,0.71,0,0,0,.33-0.31,1.06,1.06,0,0,0,.11-0.5,1.39,1.39,0,0,0,0-.3,1.33,1.33,0,0,0-.07-0.23,0.46,0.46,0,0,0-.13-0.18l-0.16-.13a0.64,0.64,0,0,0-.21-0.08l-0.24-.05-0.29,0h-1.53v2Z" transform="translate(-82.77 -39.55)"/><path class="cls-2" d="M504.75,528.1A3.63,3.63,0,0,1,502,527a3.92,3.92,0,0,1-1-2.83,3.84,3.84,0,0,1,1-2.78,3.66,3.66,0,0,1,2.76-1.05,3.56,3.56,0,0,1,2.7,1,3.87,3.87,0,0,1,1,2.79,4,4,0,0,1-1,2.83A3.56,3.56,0,0,1,504.75,528.1Zm0-1.11a2.13,2.13,0,0,0,1.74-.72,3.15,3.15,0,0,0,.59-2.05,3.05,3.05,0,0,0-.59-2,2.11,2.11,0,0,0-1.72-.71,2.16,2.16,0,0,0-1.74.71,3,3,0,0,0-.61,2,3.16,3.16,0,0,0,.59,2.05A2.12,2.12,0,0,0,504.72,527Z" transform="translate(-82.77 -39.55)"/><path class="cls-2" d="M510.24,528v-7.46h2.69a5.34,5.34,0,0,1,1.06.09,2.5,2.5,0,0,1,.81.32,1.38,1.38,0,0,1,.55.64,2.49,2.49,0,0,1,.18,1,1.78,1.78,0,0,1-.37,1.12,1.88,1.88,0,0,1-1.13.65,2.23,2.23,0,0,1,1,1.17l1,2.46h-1.41l-0.86-2.22a1.74,1.74,0,0,0-.46-0.74,1.19,1.19,0,0,0-.74-0.2h-1V528h-1.3Zm1.29-4.26h1.25q1.39,0,1.39-1.08a0.92,0.92,0,0,0-.29-0.8,1.71,1.71,0,0,0-1-.21h-1.38v2.09Z" transform="translate(-82.77 -39.55)"/><path class="cls-2" d="M519.06,528v-6.34h-2.3v-1.12h5.94v1.12h-2.34V528h-1.3Z" transform="translate(-82.77 -39.55)"/><path class="cls-2" d="M522.43,528l3-7.46h1.32l3,7.46H528.3l-0.72-1.82h-3L523.86,528h-1.43Zm2.62-3h2q-0.59-1.75-1-2.91Z" transform="translate(-82.77 -39.55)"/><path class="cls-2" d="M531.11,528v-7.46h1.38l3.79,5.49v-5.49h1.24V528h-1.38l-3.82-5.5V528h-1.2Z" transform="translate(-82.77 -39.55)"/><path class="cls-2" d="M541.16,528v-6.34h-2.3v-1.12h5.94v1.12h-2.34V528h-1.3Z" transform="translate(-82.77 -39.55)"/><path class="cls-2" d="M496,539.86V532.4h2.08a5,5,0,0,1,3.35,1,3.41,3.41,0,0,1,1.11,2.73,3.57,3.57,0,0,1-1.08,2.81,4.61,4.61,0,0,1-3.16,1H496Zm1.3-1.12h1.06a2.93,2.93,0,0,0,2.08-.68,2.59,2.59,0,0,0,.72-2,2.44,2.44,0,0,0-.73-1.9,3.25,3.25,0,0,0-2.23-.66h-0.9v5.23Z" transform="translate(-82.77 -39.55)"/><path class="cls-2" d="M503.13,539.86l3-7.46h1.32l3,7.46H509L508.28,538h-3l-0.71,1.82h-1.43Zm2.62-3h2q-0.59-1.75-1-2.91Z" transform="translate(-82.77 -39.55)"/><path class="cls-2" d="M512.53,539.86v-6.34h-2.3V532.4h5.94v1.12h-2.34v6.34h-1.3Z" transform="translate(-82.77 -39.55)"/><path class="cls-2" d="M517.5,539.86V532.4h4.71v1.12h-3.41v2H522v1.12h-3.21v2.11h3.54v1.12H517.5Z" transform="translate(-82.77 -39.55)"/><path class="cls-2" d="M526.37,540a4.88,4.88,0,0,1-1.48-.23,2.79,2.79,0,0,1-1.12-.62l0.55-.93a3.16,3.16,0,0,0,.95.48,3.28,3.28,0,0,0,1,.2,1.66,1.66,0,0,0,1-.26,0.92,0.92,0,0,0,.33-0.78,1.45,1.45,0,0,0,0-.33,0.7,0.7,0,0,0-.14-0.26,1,1,0,0,0-.32-0.25,4.34,4.34,0,0,0-.57-0.24l-0.52-.17-0.54-.18a3.3,3.3,0,0,1-1.34-.82,1.88,1.88,0,0,1-.42-1.28,1.83,1.83,0,0,1,.35-1.12,2,2,0,0,1,.92-0.69,3.63,3.63,0,0,1,1.31-.22,4.9,4.9,0,0,1,1.55.19,2.9,2.9,0,0,1,1,.67l-0.67.86a2.43,2.43,0,0,0-1.75-.6,2,2,0,0,0-1,.21,0.68,0.68,0,0,0-.38.64,1.36,1.36,0,0,0,0,.35,0.66,0.66,0,0,0,.15.27,1.1,1.1,0,0,0,.33.24,4.76,4.76,0,0,0,.57.24l0.54,0.18,0.61,0.21a2.94,2.94,0,0,1,1.27.83,2.12,2.12,0,0,1,.36,1.31,2.09,2.09,0,0,1-.22,1,1.7,1.7,0,0,1-.6.66,2.89,2.89,0,0,1-.84.36A4,4,0,0,1,526.37,540Z" transform="translate(-82.77 -39.55)"/><path class="cls-2" d="M228,87.67a4.23,4.23,0,0,1-1.52-.27,4.06,4.06,0,0,1-1.29-.79,3.61,3.61,0,0,1-.9-1.31,4.58,4.58,0,0,1-.34-1.79,4.92,4.92,0,0,1,.23-1.52,3.76,3.76,0,0,1,.61-1.18,4,4,0,0,1,.89-0.83,3.7,3.7,0,0,1,1.07-.5,4.14,4.14,0,0,1,1.15-.16,4.24,4.24,0,0,1,2.7.87l-0.55,1a3.49,3.49,0,0,0-2-.64,2.39,2.39,0,0,0-1,.21,2.55,2.55,0,0,0-.82.58,2.71,2.71,0,0,0-.57.94,3.54,3.54,0,0,0-.21,1.24,3,3,0,0,0,.75,2.15,2.5,2.5,0,0,0,1.91.81,3.48,3.48,0,0,0,2.23-.82l0.47,1.12A4.42,4.42,0,0,1,228,87.67Z" transform="translate(-82.77 -39.55)"/><path class="cls-2" d="M235.88,87.67a3.93,3.93,0,0,1-3-1.14,4.25,4.25,0,0,1-1.09-3.07,4.16,4.16,0,0,1,1.1-3,4,4,0,0,1,3-1.14,3.86,3.86,0,0,1,2.92,1.14,4.19,4.19,0,0,1,1.09,3,4.3,4.3,0,0,1-1.07,3.07A3.86,3.86,0,0,1,235.88,87.67Zm0-1.21a2.3,2.3,0,0,0,1.88-.78,3.41,3.41,0,0,0,.64-2.22,3.31,3.31,0,0,0-.64-2.17,2.28,2.28,0,0,0-1.86-.77,2.34,2.34,0,0,0-1.89.77,3.26,3.26,0,0,0-.66,2.17,3.42,3.42,0,0,0,.64,2.23A2.29,2.29,0,0,0,235.84,86.47Z" transform="translate(-82.77 -39.55)"/><path class="cls-2" d="M241.78,87.55V79.46h1.49l4.1,6v-6h1.34v8.08h-1.5l-4.14-6v6h-1.31Z" transform="translate(-82.77 -39.55)"/><path class="cls-2" d="M252.62,87.55V80.67h-2.49V79.46h6.44v1.21H254v6.87h-1.41Z" transform="translate(-82.77 -39.55)"/><path class="cls-2" d="M256.21,87.55l3.25-8.08h1.43l3.28,8.08h-1.59l-0.78-2h-3.26l-0.77,2h-1.55Zm2.84-3.29h2.17q-0.64-1.89-1.07-3.15Z" transform="translate(-82.77 -39.55)"/><path class="cls-2" d="M268.82,87.67a4.23,4.23,0,0,1-1.52-.27,4.06,4.06,0,0,1-1.29-.79,3.61,3.61,0,0,1-.9-1.31,4.58,4.58,0,0,1-.34-1.79A4.92,4.92,0,0,1,265,82a3.76,3.76,0,0,1,.61-1.18,4,4,0,0,1,.89-0.83,3.7,3.7,0,0,1,1.07-.5,4.14,4.14,0,0,1,1.15-.16,4.24,4.24,0,0,1,2.7.87l-0.55,1a3.49,3.49,0,0,0-2-.64,2.39,2.39,0,0,0-1,.21,2.55,2.55,0,0,0-.82.58,2.71,2.71,0,0,0-.57.94,3.54,3.54,0,0,0-.21,1.24,3,3,0,0,0,.75,2.15,2.5,2.5,0,0,0,1.91.81,3.48,3.48,0,0,0,2.23-.82l0.47,1.12A4.42,4.42,0,0,1,268.82,87.67Z" transform="translate(-82.77 -39.55)"/><path class="cls-2" d="M275.15,87.55V80.67h-2.49V79.46h6.44v1.21h-2.53v6.87h-1.41Z" transform="translate(-82.77 -39.55)"/><path class="cls-2" d="M283,87.67a5.28,5.28,0,0,1-1.6-.24,3,3,0,0,1-1.22-.68l0.6-1a3.45,3.45,0,0,0,1,.52,3.55,3.55,0,0,0,1.11.21,1.8,1.8,0,0,0,1.11-.28,1,1,0,0,0,.36-0.84,1.57,1.57,0,0,0,0-.36,0.76,0.76,0,0,0-.15-0.28,1.1,1.1,0,0,0-.35-0.27,4.52,4.52,0,0,0-.62-0.26L282.71,84l-0.58-.19a3.58,3.58,0,0,1-1.45-.89,2,2,0,0,1-.45-1.39,2,2,0,0,1,.38-1.22,2.18,2.18,0,0,1,1-.74,3.94,3.94,0,0,1,1.42-.24,5.27,5.27,0,0,1,1.68.21,3.16,3.16,0,0,1,1.13.72l-0.72.93a2.64,2.64,0,0,0-1.89-.65,2.22,2.22,0,0,0-1.07.23,0.74,0.74,0,0,0-.41.69,1.5,1.5,0,0,0,0,.37,0.72,0.72,0,0,0,.16.29,1.2,1.2,0,0,0,.36.26,5.39,5.39,0,0,0,.62.26l0.58,0.19L284.16,83a3.18,3.18,0,0,1,1.38.9,2.3,2.3,0,0,1,.39,1.42,2.27,2.27,0,0,1-.24,1.06,1.84,1.84,0,0,1-.65.72,3.13,3.13,0,0,1-.91.39A4.35,4.35,0,0,1,283,87.67Z" transform="translate(-82.77 -39.55)"/><path class="cls-2" d="M621.83,309.36v-8.08h1.49l4.1,6v-6h1.34v8.08h-1.5l-4.14-6v6h-1.3Z" transform="translate(-82.77 -39.55)"/><path class="cls-2" d="M634.72,309.49a3.93,3.93,0,0,1-3-1.14,4.25,4.25,0,0,1-1.09-3.07,4.16,4.16,0,0,1,1.1-3,4,4,0,0,1,3-1.14,3.85,3.85,0,0,1,2.92,1.14,4.19,4.19,0,0,1,1.09,3,4.3,4.3,0,0,1-1.07,3.07A3.86,3.86,0,0,1,634.72,309.49Zm0-1.21a2.3,2.3,0,0,0,1.88-.78,3.4,3.4,0,0,0,.64-2.22,3.3,3.3,0,0,0-.64-2.17,2.28,2.28,0,0,0-1.86-.77,2.34,2.34,0,0,0-1.88.77,3.26,3.26,0,0,0-.66,2.17,3.42,3.42,0,0,0,.64,2.23A2.29,2.29,0,0,0,634.69,308.28Z" transform="translate(-82.77 -39.55)"/><path class="cls-2" d="M642,309.36v-6.87h-2.49v-1.21H646v1.21h-2.53v6.87H642Z" transform="translate(-82.77 -39.55)"/><path class="cls-2" d="M647.38,309.36v-8.08h5.1v1.21h-3.69v2.16h3.49v1.22h-3.48v2.29h3.84v1.21h-5.26Z" transform="translate(-82.77 -39.55)"/><path class="cls-2" d="M656.94,309.49a5.31,5.31,0,0,1-1.6-.24,3,3,0,0,1-1.22-.68l0.6-1a3.45,3.45,0,0,0,1,.52,3.55,3.55,0,0,0,1.11.21A1.8,1.8,0,0,0,658,308a1,1,0,0,0,.36-0.84,1.54,1.54,0,0,0,0-.36,0.75,0.75,0,0,0-.15-0.28,1.1,1.1,0,0,0-.35-0.27,4.55,4.55,0,0,0-.62-0.26l-0.56-.18L656,305.6a3.59,3.59,0,0,1-1.45-.89,2,2,0,0,1-.45-1.39,2,2,0,0,1,.37-1.22,2.18,2.18,0,0,1,1-.74,3.94,3.94,0,0,1,1.42-.24,5.28,5.28,0,0,1,1.68.21,3.16,3.16,0,0,1,1.13.72L659,303a2.64,2.64,0,0,0-1.89-.65,2.22,2.22,0,0,0-1.07.23,0.74,0.74,0,0,0-.41.69,1.52,1.52,0,0,0,0,.37,0.73,0.73,0,0,0,.16.29,1.19,1.19,0,0,0,.36.26,5.41,5.41,0,0,0,.62.26l0.58,0.19,0.66,0.23a3.18,3.18,0,0,1,1.38.9,2.3,2.3,0,0,1,.39,1.42,2.27,2.27,0,0,1-.24,1.06,1.84,1.84,0,0,1-.65.72,3.12,3.12,0,0,1-.91.39A4.35,4.35,0,0,1,656.94,309.49Z" transform="translate(-82.77 -39.55)"/><path class="cls-2" d="M479.84,87v-6.6h4v1H481v1.8h2.71v1H481V87h-1.15Z" transform="translate(-82.77 -39.55)"/><path class="cls-2" d="M488.28,87.13a3.21,3.21,0,0,1-2.44-.93,3.47,3.47,0,0,1-.89-2.5,3.4,3.4,0,0,1,.9-2.46,3.24,3.24,0,0,1,2.45-.93,3.15,3.15,0,0,1,2.39.93,3.42,3.42,0,0,1,.89,2.46,3.5,3.5,0,0,1-.87,2.51A3.15,3.15,0,0,1,488.28,87.13Zm0-1a1.88,1.88,0,0,0,1.54-.64,2.78,2.78,0,0,0,.53-1.82,2.7,2.7,0,0,0-.53-1.77,1.86,1.86,0,0,0-1.52-.63,1.91,1.91,0,0,0-1.54.63,2.66,2.66,0,0,0-.54,1.77,2.79,2.79,0,0,0,.52,1.82A1.87,1.87,0,0,0,488.25,86.14Z" transform="translate(-82.77 -39.55)"/><path class="cls-2" d="M493.19,87v-6.6h2.38a4.7,4.7,0,0,1,.94.08,2.22,2.22,0,0,1,.72.28,1.23,1.23,0,0,1,.48.56,2.19,2.19,0,0,1,.16.9,1.57,1.57,0,0,1-.33,1,1.67,1.67,0,0,1-1,.58,2,2,0,0,1,.88,1L498.32,87h-1.25l-0.76-2a1.55,1.55,0,0,0-.4-0.66,1,1,0,0,0-.66-0.17h-0.91V87h-1.15Zm1.14-3.77h1.1a1,1,0,0,0,1.23-1,0.82,0.82,0,0,0-.26-0.71,1.51,1.51,0,0,0-.85-0.18h-1.22v1.85Z" transform="translate(-82.77 -39.55)"/><path class="cls-2" d="M499.74,87v-6.6h4.17v1h-3v1.76h2.85v1H500.9V86H504v1h-4.3Z" transform="translate(-82.77 -39.55)"/><path class="cls-2" d="M508.48,87.12a3.46,3.46,0,0,1-1.24-.22,3.33,3.33,0,0,1-1.05-.64,2.94,2.94,0,0,1-.74-1.07,3.75,3.75,0,0,1-.27-1.46,4,4,0,0,1,.18-1.24,3.06,3.06,0,0,1,.5-1,3.25,3.25,0,0,1,.73-0.68,3,3,0,0,1,.87-0.41,3.4,3.4,0,0,1,.94-0.13,3.46,3.46,0,0,1,2.2.71l-0.45.8a2.85,2.85,0,0,0-1.66-.52,2,2,0,0,0-.8.17,2.08,2.08,0,0,0-.67.47,2.2,2.2,0,0,0-.46.77,2.88,2.88,0,0,0-.17,1,2.47,2.47,0,0,0,.62,1.75,2,2,0,0,0,1.56.66,2.85,2.85,0,0,0,1.82-.67l0.38,0.91A3.61,3.61,0,0,1,508.48,87.12Z" transform="translate(-82.77 -39.55)"/><path class="cls-2" d="M511.7,87l2.65-6.6h1.17l2.67,6.6h-1.3l-0.64-1.61h-2.67L513,87H511.7ZM514,84.34h1.77q-0.52-1.55-.87-2.57Z" transform="translate(-82.77 -39.55)"/><path class="cls-2" d="M521.47,87.13a4.32,4.32,0,0,1-1.31-.2,2.45,2.45,0,0,1-1-.55l0.49-.82a2.83,2.83,0,0,0,.84.42,2.9,2.9,0,0,0,.9.17,1.48,1.48,0,0,0,.91-0.23,0.82,0.82,0,0,0,.29-0.69,1.25,1.25,0,0,0,0-.29,0.62,0.62,0,0,0-.12-0.23,0.91,0.91,0,0,0-.28-0.22,3.7,3.7,0,0,0-.51-0.22l-0.46-.15L520.72,84a2.93,2.93,0,0,1-1.18-.73,1.67,1.67,0,0,1-.37-1.14,1.62,1.62,0,0,1,.31-1,1.78,1.78,0,0,1,.81-0.61,3.22,3.22,0,0,1,1.16-.19,4.3,4.3,0,0,1,1.37.17,2.59,2.59,0,0,1,.92.59l-0.59.76a2.15,2.15,0,0,0-1.55-.53,1.82,1.82,0,0,0-.88.19,0.61,0.61,0,0,0-.34.57,1.21,1.21,0,0,0,0,.31,0.57,0.57,0,0,0,.13.24,1,1,0,0,0,.29.21,4.32,4.32,0,0,0,.51.21l0.47,0.16,0.54,0.18a2.59,2.59,0,0,1,1.12.74,1.87,1.87,0,0,1,.32,1.16,1.85,1.85,0,0,1-.19.87,1.51,1.51,0,0,1-.53.59,2.54,2.54,0,0,1-.74.32A3.54,3.54,0,0,1,521.47,87.13Z" transform="translate(-82.77 -39.55)"/><path class="cls-2" d="M526.87,87V81.41h-2v-1h5.25v1H528V87h-1.15Z" transform="translate(-82.77 -39.55)"/><path class="cls-2" d="M531.26,87v-6.6h1.15V87h-1.15Z" transform="translate(-82.77 -39.55)"/><path class="cls-2" d="M534.35,87v-6.6h1.22l3.35,4.86V80.42H540V87h-1.22l-3.38-4.87V87h-1.07Z" transform="translate(-82.77 -39.55)"/><path class="cls-2" d="M545,87.13a3.36,3.36,0,0,1-2.5-.89,3.28,3.28,0,0,1-.88-2.41,4.1,4.1,0,0,1,.14-1.09,3.36,3.36,0,0,1,.43-1,3.3,3.3,0,0,1,.71-0.77,3.11,3.11,0,0,1,1-.51,4,4,0,0,1,1.24-.19,5.08,5.08,0,0,1,.85.07,2.73,2.73,0,0,1,.66.19l0.4,0.2,0.29,0.2-0.46.81a2.88,2.88,0,0,0-1.73-.47,2.38,2.38,0,0,0-1,.21,1.91,1.91,0,0,0-.72.57,2.64,2.64,0,0,0-.41.79,3,3,0,0,0-.14.91,3.05,3.05,0,0,0,.14,1,2.14,2.14,0,0,0,.41.75,1.8,1.8,0,0,0,.7.49,2.58,2.58,0,0,0,1,.17A4,4,0,0,0,546.2,86V84.41h-1.54v-1h2.71v3.2A5.71,5.71,0,0,1,545,87.13Z" transform="translate(-82.77 -39.55)"/></svg>