<?xml version="1.0" encoding="utf-8"?>
<!-- Generator: Adobe Illustrator 19.2.1, SVG Export Plug-In . SVG Version: 6.00 Build 0)  -->
<svg version="1.1" id="Layer_1" xmlns:sketch="http://www.bohemiancoding.com/sketch/ns"
	 xmlns="http://www.w3.org/2000/svg" xmlns:xlink="http://www.w3.org/1999/xlink" x="0px" y="0px" viewBox="0 0 60 60"
	 style="enable-background:new 0 0 60 60;" xml:space="preserve">
<style type="text/css">
	.st0{fill:#265B80;}
	.st1{fill:#FFFFFF;}
</style>
<title></title>
<desc></desc>
<g id="soical">
	<g id="social" transform="translate(-773.000000, -138.000000)">
		<g id="slices" transform="translate(173.000000, 138.000000)">
		</g>
		<g id="hexagon-flat" transform="translate(173.000000, 138.000000)">
			<polygon id="Polygon-6" class="st0" points="630,0 656,15 656,45 630,60 604,45 604,15 			"/>
		</g>
		<g id="icon" transform="translate(182.000000, 150.000000)">
			<path id="linkedin" class="st1" d="M612.9,31.8V13.5h-5.7v18.3H612.9z M612.9,7c0-1.6-1.1-2.9-2.9-2.9c-1.8,0-2.9,1.2-2.9,2.9
				c0,1.6,1.1,2.9,2.9,2.9h0C611.8,9.9,612.9,8.6,612.9,7z M622.1,31.8V21.4c0-0.6,0-1.1,0.2-1.5c0.4-1.1,1.5-2.3,3.2-2.3
				c2.2,0,3.7,1.3,3.7,3.8v10.4h5.7V21.1c0-5.7-3.1-8.4-7.1-8.4c-3.3,0-4.8,1.9-5.6,3.1l0-2.4h-5.7c0.1,1.8,0,18.4,0,18.4H622.1z"/>
		</g>
	</g>
</g>
</svg>
